SplineFontDB: 3.2
FontName: OmniversifyGenshin
FullName: OmniversifyGenshinImpact
FamilyName: OmniversifyFonts
Weight: Book
Copyright: (c) Copyright Omniversify Inc.
Version: 1.00;April 25, 2022
ItalicAngle: 0
UnderlinePosition: 0
UnderlineWidth: 1
Ascent: 819
Descent: 205
InvalidEm: 0
sfntRevision: 0x00010000
LayerCount: 2
Layer: 0 1 "Back" 1
Layer: 1 1 "Fore" 0
XUID: [1021 680 632218264 13865533]
StyleMap: 0x0040
FSType: 0
OS2Version: 2
OS2_WeightWidthSlopeOnly: 0
OS2_UseTypoMetrics: 0
CreationTime: 1651269567
ModificationTime: 1651276914
PfmFamily: 81
TTFWeight: 400
TTFWidth: 5
LineGap: 0
VLineGap: 0
Panose: 0 0 0 0 0 0 0 0 0 0
OS2TypoAscent: 938
OS2TypoAOffset: 0
OS2TypoDescent: -308
OS2TypoDOffset: 0
OS2TypoLinegap: 100
OS2WinAscent: 938
OS2WinAOffset: 0
OS2WinDescent: 308
OS2WinDOffset: 0
HheadAscent: 938
HheadAOffset: 0
HheadDescent: -308
HheadDOffset: 0
OS2SubXSize: 40
OS2SubYSize: 40
OS2SubXOff: 40
OS2SubYOff: 40
OS2SupXSize: 40
OS2SupYSize: 40
OS2SupXOff: 40
OS2SupYOff: 40
OS2StrikeYSize: 40
OS2StrikeYPos: 200
OS2CapHeight: 938
OS2XHeight: 574
OS2Vendor: 'Bird'
OS2CodePages: 003e0001.00000000
OS2UnicodeRanges: 00000001.00000000.00000000.00000000
DEI: 91125
ShortTable: maxp 16
  1
  0
  192
  152
  5
  0
  0
  1
  0
  0
  0
  0
  0
  0
  0
  0
EndShort
LangName: 1033 "" "" "85W" "OmniversifyGenshinImpactEN" "" "Version 1.00;April 25, 2022" "" "Trademark of Omniversify Inc." "Omniversify" "Omniversify" "" "https://omniversify.com" "https://omniversify.com"
GaspTable: 1 65535 2 0
Encoding: UnicodeBmp
UnicodeInterp: none
NameList: AGL For New Fonts
DisplaySize: -48
AntiAlias: 1
FitToEm: 0
WinInfo: 65312 16 4
BeginChars: 65537 192

StartChar: .notdef
Encoding: 65536 -1 0
Width: 317
GlyphClass: 1
Flags: W
LayerCount: 2
Fore
SplineSet
-104 37 m 256,0,1
 -104 81 -104 81 -76 108 c 0,2,3
 -48 136 -48 136 -1 136 c 256,4,5
 46 136 46 136 73 108 c 0,6,7
 101 81 101 81 101 37 c 256,8,9
 101 -7 101 -7 73 -35 c 0,10,11
 46 -62 46 -62 -1 -62 c 256,12,13
 -48 -62 -48 -62 -76 -35 c 0,14,15
 -104 -7 -104 -7 -104 37 c 256,0,1
140 37 m 256,16,17
 140 81 140 81 168 108 c 0,18,19
 196 136 196 136 243 136 c 256,20,21
 290 136 290 136 317 108 c 0,22,23
 345 81 345 81 345 37 c 256,24,25
 345 -7 345 -7 317 -35 c 0,26,27
 290 -62 290 -62 243 -62 c 256,28,29
 196 -62 196 -62 168 -35 c 0,30,31
 140 -7 140 -7 140 37 c 256,16,17
EndSplineSet
EndChar

StartChar: .null
Encoding: 0 0 1
Width: 317
GlyphClass: 1
Flags: W
LayerCount: 2
Fore
SplineSet
53 37 m 256,0,1
 53 81 53 81 81 108 c 0,2,3
 109 136 109 136 156 136 c 256,4,5
 203 136 203 136 230 108 c 0,6,7
 258 81 258 81 258 37 c 256,8,9
 258 -7 258 -7 230 -35 c 0,10,11
 203 -62 203 -62 156 -62 c 256,12,13
 109 -62 109 -62 81 -35 c 0,14,15
 53 -7 53 -7 53 37 c 256,0,1
EndSplineSet
EndChar

StartChar: space
Encoding: 32 32 3
Width: 297
GlyphClass: 1
Flags: W
LayerCount: 2
Fore
SplineSet
738 321 m 256,0,1
 738 323 738 323 740 323 c 256,2,3
 742 323 742 323 742 321 c 256,4,5
 742 319 742 319 740 319 c 256,6,7
 738 319 738 319 738 321 c 256,0,1
EndSplineSet
EndChar

StartChar: exclam
Encoding: 33 33 4
Width: 512
GlyphClass: 1
Flags: W
LayerCount: 2
Fore
SplineSet
174 16 m 256,0,1
 174 60 174 60 202 88 c 0,2,3
 229 116 229 116 276 116 c 0,4,5
 281 116 281 116 285 116 c 0,6,7
 326 113 326 113 351 88 c 0,8,9
 379 60 379 60 379 16 c 256,10,11
 379 -28 379 -28 352 -56 c 0,12,13
 324 -83 324 -83 276 -83 c 0,14,15
 229 -83 229 -83 202 -56 c 0,16,17
 174 -28 174 -28 174 16 c 256,0,1
331 813 m 0,18,19
 357 813 357 813 357 784 c 1,20,21
 357 784 357 784 357 785 c 1,22,23
 357 785 357 785 357 744 c 0,24,25
 357 700 357 700 357 655 c 0,26,27
 357 524 357 524 357 263 c 0,28,29
 357 260 357 260 357 257 c 0,30,31
 357 222 357 222 322 216 c 1,32,33
 292 216 292 216 272 215 c 0,34,35
 235 215 235 215 235 215 c 257,36,37
 235 215 235 215 240 215 c 1,38,39
 190 217 190 217 190 261 c 0,40,41
 190 262 190 262 190 263 c 0,42,43
 190 435 190 435 190 780 c 0,44,45
 190 812 190 812 212 811 c 0,46,47
 252 812 252 812 331 813 c 0,18,19
EndSplineSet
EndChar

StartChar: quotedbl
Encoding: 34 34 5
Width: 410
GlyphClass: 1
Flags: W
LayerCount: 2
Fore
SplineSet
37 806 m 0,0,1
 73 806 73 806 181 806 c 0,2,3
 194 805 194 805 194 790 c 0,4,5
 185 716 185 716 166 567 c 1,6,7
 154 509 154 509 60 508 c 1,8,9
 48 605 48 605 25 798 c 0,10,11
 27 806 27 806 37 806 c 0,0,1
237 806 m 0,12,13
 273 806 273 806 381 806 c 0,14,15
 393 805 393 805 393 791 c 2,16,17
 393 791 393 791 393 790 c 0,18,19
 384 716 384 716 367 567 c 1,20,21
 354 509 354 509 260 508 c 1,22,23
 248 605 248 605 225 798 c 0,24,25
 227 806 227 806 237 806 c 0,12,13
EndSplineSet
EndChar

StartChar: numbersign
Encoding: 35 35 6
Width: 819
GlyphClass: 1
Flags: W
LayerCount: 2
Fore
SplineSet
329 285 m 1,0,1
 360 285 360 285 454 285 c 1,2,3
 465 333 465 333 496 477 c 1,4,5
 465 477 465 477 371 477 c 1,6,7
 361 429 361 429 329 285 c 1,0,1
396 765 m 0,8,9
 398 765 398 765 403 765 c 0,10,11
 405 765 405 765 407 765 c 0,12,13
 423 765 423 765 427 750 c 1,14,15
 417 688 417 688 396 564 c 1,16,17
 425 564 425 564 510 563 c 1,18,19
 516 589 516 589 534 667 c 1,20,21
 542 725 542 725 506 750 c 1,22,23
 511 763 511 763 526 764 c 0,24,25
 577 764 577 764 680 765 c 0,26,27
 682 765 682 765 688 765 c 0,28,29
 712 763 712 763 710 743 c 0,30,31
 699 683 699 683 676 564 c 1,32,33
 703 564 703 564 782 564 c 0,34,35
 801 564 801 564 802 548 c 0,36,37
 802 532 802 532 802 501 c 0,38,39
 802 498 802 498 802 495 c 0,40,41
 802 480 802 480 791 477 c 0,42,43
 746 477 746 477 656 477 c 1,44,45
 645 429 645 429 612 284 c 1,46,47
 643 284 643 284 734 284 c 0,48,49
 757 284 757 284 755 260 c 0,50,51
 755 244 755 244 755 213 c 0,52,53
 755 197 755 197 735 197 c 0,54,55
 688 197 688 197 593 197 c 1,56,57
 585 162 585 162 562 56 c 0,58,59
 548 -10 548 -10 491 -26 c 0,60,61
 440 -40 440 -40 402 -40 c 0,62,63
 397 -40 397 -40 392 -40 c 0,64,65
 386 -37 386 -37 388 -28 c 0,66,67
 402 47 402 47 431 197 c 1,68,69
 401 197 401 197 309 197 c 1,70,71
 302 161 302 161 280 55 c 0,72,73
 260 -42 260 -42 108 -40 c 0,74,75
 102 -37 102 -37 103 -28 c 0,76,77
 118 47 118 47 147 197 c 1,78,79
 121 197 121 197 43 197 c 0,80,81
 29 197 29 197 29 209 c 0,82,83
 29 230 29 230 29 272 c 0,84,85
 29 277 29 277 41 284 c 1,86,87
 83 284 83 284 167 284 c 1,88,89
 178 332 178 332 210 477 c 1,90,91
 181 477 181 477 93 477 c 0,92,93
 82 477 82 477 76 489 c 1,94,95
 76 510 76 510 76 552 c 0,96,97
 76 564 76 564 92 564 c 0,98,99
 137 564 137 564 226 564 c 1,100,101
 231 590 231 590 246 667 c 0,102,103
 246 671 246 671 246 682 c 0,104,105
 250 722 250 722 219 750 c 1,106,107
 221 761 221 761 236 765 c 1,108,109
 289 765 289 765 396 765 c 0,8,9
EndSplineSet
EndChar

StartChar: dollar
Encoding: 36 36 7
Width: 614
GlyphClass: 1
Flags: W
LayerCount: 2
Fore
SplineSet
253 800 m 0,0,1
 283 800 283 800 375 800 c 0,2,3
 401 798 401 798 402 774 c 0,4,5
 402 740 402 740 402 673 c 1,6,7
 430 671 430 671 467 657 c 1,8,9
 499 659 499 659 506 692 c 1,10,11
 515 694 515 694 524 683 c 1,12,13
 532 625 532 625 549 509 c 0,14,15
 551 494 551 494 540 494 c 0,16,17
 527 494 527 494 501 494 c 0,18,19
 486 492 486 492 477 507 c 0,20,21
 439 596 439 596 333 605 c 0,22,23
 322 605 322 605 301 605 c 0,24,25
 208 605 208 605 208 538 c 0,26,27
 208 476 208 476 393 414 c 1,28,29
 587 354 587 354 587 230 c 0,30,31
 587 108 587 108 451 60 c 0,32,33
 434 52 434 52 402 49 c 1,34,35
 402 20 402 20 402 -39 c 0,36,37
 403 -63 403 -63 371 -66 c 0,38,39
 333 -66 333 -66 258 -66 c 0,40,41
 235 -64 235 -64 231 -39 c 1,42,43
 231 -9 231 -9 231 52 c 1,44,45
 153 67 153 67 106 106 c 0,46,47
 60 146 60 146 48 174 c 0,48,49
 46 177 46 177 46 180 c 0,50,51
 46 184 46 184 50 188 c 0,52,53
 89 217 89 217 98 224 c 0,54,55
 108 230 108 230 118 219 c 0,56,57
 200 131 200 131 314 126 c 1,58,59
 434 126 434 126 434 190 c 0,60,61
 434 193 434 193 434 198 c 0,62,63
 434 256 434 256 222 334 c 1,64,65
 60 382 60 382 60 494 c 0,66,67
 60 498 60 498 60 505 c 0,68,69
 60 632 60 632 226 677 c 0,70,71
 228 677 228 677 231 677 c 1,72,73
 231 701 231 701 231 774 c 0,74,75
 233 799 233 799 253 800 c 0,0,1
EndSplineSet
EndChar

StartChar: percent
Encoding: 37 37 8
Width: 952
GlyphClass: 1
Flags: W
LayerCount: 2
Fore
SplineSet
630 763 m 0,0,1
 680 763 680 763 828 763 c 1,2,3
 840 759 840 759 838 749 c 1,4,5
 355 76 355 76 266 -34 c 0,6,7
 261 -45 261 -45 245 -43 c 0,8,9
 203 -43 203 -43 118 -43 c 0,10,11
 95 -43 95 -43 91 -31 c 1,12,13
 402 385 402 385 533 568 c 0,14,15
 612 678 612 678 625 703 c 0,16,17
 630 711 630 711 630 722 c 256,18,19
 630 733 630 733 616 754 c 1,20,21
 619 763 619 763 630 763 c 0,0,1
51 574 m 0,22,23
 51 622 51 622 66 660 c 0,24,25
 80 697 80 697 105 723 c 0,26,27
 130 750 130 750 165 764 c 0,28,29
 200 777 200 777 241 777 c 0,30,31
 283 777 283 777 318 764 c 0,32,33
 352 750 352 750 377 723 c 0,34,35
 402 697 402 697 416 660 c 0,36,37
 431 623 431 623 431 574 c 0,38,39
 431 527 431 527 416 490 c 0,40,41
 402 453 402 453 377 426 c 0,42,43
 352 400 352 400 318 386 c 0,44,45
 284 374 284 374 244 373 c 0,46,47
 243 373 243 373 241 373 c 0,48,49
 200 373 200 373 165 386 c 0,50,51
 130 400 130 400 105 426 c 0,52,53
 80 453 80 453 66 490 c 0,54,55
 51 527 51 527 51 574 c 0,22,23
316 574 m 256,56,57
 316 607 316 607 310 632 c 0,58,59
 305 658 305 658 295 676 c 0,60,61
 286 694 286 694 272 704 c 0,62,63
 257 714 257 714 241 714 c 0,64,65
 224 714 224 714 210 704 c 256,66,67
 196 694 196 694 186 676 c 256,68,69
 176 658 176 658 170 632 c 0,70,71
 165 607 165 607 165 574 c 256,72,73
 165 541 165 541 170 515 c 0,74,75
 176 490 176 490 186 472 c 256,76,77
 196 454 196 454 210 445 c 0,78,79
 223 435 223 435 241 435 c 0,80,81
 257 435 257 435 272 445 c 0,82,83
 286 454 286 454 295 472 c 0,84,85
 305 490 305 490 310 515 c 0,86,87
 316 541 316 541 316 574 c 256,56,57
539 188 m 0,88,89
 539 236 539 236 553 274 c 0,90,91
 567 311 567 311 592 337 c 0,92,93
 617 364 617 364 652 378 c 0,94,95
 687 391 687 391 728 391 c 0,96,97
 770 391 770 391 805 378 c 0,98,99
 840 364 840 364 865 337 c 0,100,101
 890 311 890 311 904 274 c 0,102,103
 919 237 919 237 919 188 c 0,104,105
 919 141 919 141 904 104 c 0,106,107
 890 67 890 67 865 40 c 0,108,109
 840 14 840 14 805 1 c 0,110,111
 770 -13 770 -13 728 -13 c 0,112,113
 687 -13 687 -13 652 1 c 0,114,115
 617 14 617 14 592 40 c 0,116,117
 567 67 567 67 553 104 c 256,118,119
 539 141 539 141 539 188 c 0,88,89
804 191 m 256,120,121
 804 224 804 224 798 250 c 0,122,123
 793 275 793 275 783 293 c 256,124,125
 773 311 773 311 759 321 c 256,126,127
 745 331 745 331 728 331 c 0,128,129
 712 331 712 331 698 321 c 0,130,131
 683 311 683 311 673 293 c 0,132,133
 664 275 664 275 658 250 c 0,134,135
 652 224 652 224 652 191 c 256,136,137
 652 158 652 158 658 133 c 256,138,139
 664 108 664 108 673 89 c 0,140,141
 683 71 683 71 698 62 c 0,142,143
 712 52 712 52 728 52 c 0,144,145
 745 52 745 52 759 62 c 0,146,147
 773 71 773 71 783 89 c 0,148,149
 793 108 793 108 798 133 c 0,150,151
 804 158 804 158 804 191 c 256,120,121
EndSplineSet
EndChar

StartChar: ampersand
Encoding: 38 38 9
Width: 829
GlyphClass: 1
Flags: W
LayerCount: 2
Fore
SplineSet
317 57 m 0,0,1
 386 57 386 57 433 114 c 1,2,3
 379 199 379 199 271 370 c 1,4,5
 209 326 209 326 183 286 c 256,6,7
 157 246 157 246 157 207 c 0,8,9
 157 142 157 142 198 100 c 0,10,11
 238 57 238 57 317 57 c 0,0,1
556 642 m 1,12,13
 552 524 552 524 395 443 c 1,14,15
 445 367 445 367 544 216 c 1,16,17
 564 239 564 239 622 308 c 1,18,19
 636 359 636 359 589 375 c 1,20,21
 589 391 589 391 605 394 c 0,22,23
 667 394 667 394 790 394 c 1,24,25
 808 389 808 389 808 371 c 1,26,27
 766 373 766 373 729 316 c 1,28,29
 684 260 684 260 595 147 c 1,30,31
 643 76 643 76 697 77 c 1,32,33
 765 85 765 85 814 151 c 1,34,35
 820 146 820 146 820 137 c 0,36,37
 820 132 820 132 819 127 c 0,38,39
 772 -36 772 -36 637 -36 c 0,40,41
 563 -36 563 -36 490 34 c 1,42,43
 403 -49 403 -49 268 -49 c 0,44,45
 255 -49 255 -49 242 -48 c 0,46,47
 90 -40 90 -40 35 88 c 0,48,49
 16 133 16 133 16 176 c 0,50,51
 16 205 16 205 25 234 c 0,52,53
 67 354 67 354 233 439 c 1,54,55
 199 494 199 494 131 604 c 0,56,57
 123 611 123 611 122 634 c 0,58,59
 134 763 134 763 331 773 c 1,60,61
 550 770 550 770 556 642 c 1,12,13
344 506 m 1,62,63
 431 549 431 549 431 629 c 1,64,65
 424 705 424 705 352 711 c 1,66,67
 265 707 265 707 262 644 c 0,68,69
 262 636 262 636 265 632 c 0,70,71
 291 590 291 590 344 506 c 1,62,63
EndSplineSet
EndChar

StartChar: quotesingle
Encoding: 39 39 10
Width: 246
GlyphClass: 1
Flags: W
LayerCount: 2
Fore
SplineSet
50 806 m 0,0,1
 86 806 86 806 195 806 c 0,2,3
 207 805 207 805 207 791 c 2,4,5
 207 791 207 791 207 790 c 0,6,7
 198 716 198 716 180 567 c 1,8,9
 167 509 167 509 74 508 c 1,10,11
 62 605 62 605 39 798 c 0,12,13
 40 806 40 806 50 806 c 0,0,1
EndSplineSet
EndChar

StartChar: parenleft
Encoding: 40 40 11
Width: 389
GlyphClass: 1
Flags: W
LayerCount: 2
Fore
SplineSet
350 835 m 0,0,1
 359 823 359 823 386 785 c 0,2,3
 395 774 395 774 385 763 c 0,4,5
 208 592 208 592 208 326 c 0,6,7
 208 75 208 75 387 -100 c 0,8,9
 390 -105 390 -105 390 -111 c 0,10,11
 390 -116 390 -116 388 -121 c 0,12,13
 374 -136 374 -136 347 -167 c 0,14,15
 341 -173 341 -173 334 -173 c 0,16,17
 330 -173 330 -173 326 -171 c 0,18,19
 41 -3 41 -3 41 340 c 0,20,21
 41 665 41 665 333 839 c 0,22,23
 337 841 337 841 340 841 c 0,24,25
 346 841 346 841 350 835 c 0,0,1
EndSplineSet
EndChar

StartChar: parenright
Encoding: 41 41 12
Width: 389
GlyphClass: 1
Flags: W
LayerCount: 2
Fore
SplineSet
52 -167 m 0,0,1
 43 -155 43 -155 16 -118 c 0,2,3
 12 -113 12 -113 12 -108 c 0,4,5
 12 -101 12 -101 18 -94 c 0,6,7
 194 77 194 77 195 343 c 0,8,9
 195 594 195 594 16 768 c 0,10,11
 10 777 10 777 14 788 c 1,12,13
 28 804 28 804 55 835 c 0,14,15
 60 842 60 842 67 842 c 0,16,17
 72 842 72 842 77 839 c 0,18,19
 362 672 362 672 361 329 c 0,20,21
 361 4 361 4 70 -171 c 0,22,23
 66 -173 66 -173 62 -173 c 0,24,25
 56 -173 56 -173 52 -167 c 0,0,1
EndSplineSet
EndChar

StartChar: asterisk
Encoding: 42 42 13
Width: 481
GlyphClass: 1
Flags: W
LayerCount: 2
Fore
SplineSet
196 806 m 1,0,1
 220 806 220 806 292 806 c 0,2,3
 304 805 304 805 305 791 c 0,4,5
 305 749 305 749 305 666 c 1,6,7
 332 674 332 674 412 697 c 0,8,9
 431 700 431 700 436 687 c 0,10,11
 444 660 444 660 459 606 c 0,12,13
 459 604 459 604 459 602 c 0,14,15
 459 586 459 586 444 582 c 0,16,17
 405 570 405 570 327 547 c 1,18,19
 351 521 351 521 422 444 c 0,20,21
 430 435 430 435 424 424 c 0,22,23
 402 402 402 402 357 358 c 0,24,25
 353 356 353 356 349 356 c 0,26,27
 341 356 341 356 334 366 c 1,28,29
 341 356 341 356 241 469 c 1,30,31
 209 435 209 435 144 367 c 0,32,33
 134 355 134 355 120 364 c 0,34,35
 98 385 98 385 55 426 c 0,36,37
 46 436 46 436 54 446 c 0,38,39
 87 480 87 480 152 548 c 1,40,41
 124 556 124 556 39 580 c 0,42,43
 26 585 26 585 26 599 c 0,44,45
 26 600 26 600 26 601 c 0,46,47
 32 629 32 629 44 684 c 1,48,49
 51 696 51 696 65 695 c 0,50,51
 104 685 104 685 182 666 c 1,52,53
 182 697 182 697 182 791 c 0,54,55
 183 802 183 802 196 806 c 1,0,1
EndSplineSet
EndChar

StartChar: plus
Encoding: 43 43 14
Width: 655
GlyphClass: 1
Flags: W
LayerCount: 2
Fore
SplineSet
283 603 m 0,0,1
 307 603 307 603 378 603 c 0,2,3
 379 603 379 603 379 603 c 2,4,5
 401 603 401 603 400 583 c 0,6,7
 400 528 400 528 400 419 c 1,8,9
 449 419 449 419 597 419 c 0,10,11
 612 419 612 419 614 407 c 0,12,13
 614 377 614 377 614 316 c 0,14,15
 614 300 614 300 598 300 c 0,16,17
 532 300 532 300 400 300 c 1,18,19
 400 251 400 251 400 102 c 0,20,21
 399 77 399 77 383 76 c 0,22,23
 348 76 348 76 279 75 c 0,24,25
 259 75 259 75 258 98 c 0,26,27
 258 165 258 165 258 300 c 1,28,29
 210 300 210 300 68 300 c 0,30,31
 54 299 54 299 49 312 c 1,32,33
 49 344 49 344 49 407 c 0,34,35
 52 421 52 421 67 419 c 0,36,37
 131 419 131 419 258 419 c 1,38,39
 258 460 258 460 258 581 c 0,40,41
 258 603 258 603 283 603 c 0,0,1
EndSplineSet
EndChar

StartChar: comma
Encoding: 44 44 15
Width: 297
GlyphClass: 1
Flags: W
LayerCount: 2
Fore
SplineSet
259 37 m 0,0,1
 259 32 259 32 259 27 c 0,2,3
 259 -166 259 -166 74 -208 c 0,4,5
 63 -208 63 -208 61 -198 c 1,6,7
 136 -160 136 -160 150 -54 c 1,8,9
 63 -55 63 -55 55 38 c 0,10,11
 55 47 55 47 56 56 c 0,12,13
 66 135 66 135 157 139 c 1,14,15
 250 137 250 137 259 37 c 0,0,1
EndSplineSet
EndChar

StartChar: hyphen
Encoding: 45 45 16
Width: 543
GlyphClass: 1
Flags: W
LayerCount: 2
Fore
SplineSet
63 314 m 0,0,1
 170 314 170 314 492 314 c 0,2,3
 507 314 507 314 507 302 c 0,4,5
 507 271 507 271 507 208 c 0,6,7
 506 196 506 196 493 196 c 2,8,9
 493 196 493 196 492 196 c 0,10,11
 349 196 349 196 63 196 c 0,12,13
 51 196 51 196 51 209 c 0,14,15
 51 240 51 240 51 302 c 0,16,17
 51 313 51 313 63 314 c 0,0,1
EndSplineSet
EndChar

StartChar: period
Encoding: 46 46 17
Width: 317
GlyphClass: 1
Flags: W
LayerCount: 2
Fore
SplineSet
53 37 m 256,0,1
 53 81 53 81 81 108 c 0,2,3
 109 136 109 136 156 136 c 256,4,5
 203 136 203 136 230 108 c 0,6,7
 258 81 258 81 258 37 c 256,8,9
 258 -7 258 -7 230 -35 c 0,10,11
 203 -62 203 -62 156 -62 c 256,12,13
 109 -62 109 -62 81 -35 c 0,14,15
 53 -7 53 -7 53 37 c 256,0,1
EndSplineSet
EndChar

StartChar: slash
Encoding: 47 47 18
Width: 430
GlyphClass: 1
Flags: W
LayerCount: 2
Fore
SplineSet
435 774 m 0,0,1
 450 772 450 772 450 757 c 1,2,3
 367 486 367 486 201 -55 c 0,4,5
 196 -71 196 -71 178 -72 c 0,6,7
 138 -72 138 -72 57 -72 c 0,8,9
 56 -72 56 -72 56 -72 c 2,10,11
 42 -72 42 -72 41 -59 c 1,12,13
 127 214 127 214 300 759 c 0,14,15
 304 771 304 771 317 773 c 0,16,17
 356 773 356 773 435 774 c 0,0,1
EndSplineSet
EndChar

StartChar: zero
Encoding: 48 48 19
Width: 748
GlyphClass: 1
Flags: W
LayerCount: 2
Fore
SplineSet
65 351 m 256,0,1
 65 558 65 558 148 661 c 0,2,3
 232 764 232 764 382 764 c 256,4,5
 532 764 532 764 616 661 c 0,6,7
 699 558 699 558 699 351 c 0,8,9
 699 248 699 248 678 170 c 0,10,11
 656 93 656 93 615 41 c 0,12,13
 574 -10 574 -10 516 -35 c 0,14,15
 457 -61 457 -61 382 -61 c 0,16,17
 232 -61 232 -61 148 42 c 0,18,19
 65 144 65 144 65 351 c 256,0,1
243 351 m 256,20,21
 243 187 243 187 278 108 c 0,22,23
 314 28 314 28 382 28 c 256,24,25
 450 28 450 28 485 108 c 0,26,27
 521 187 521 187 521 351 c 256,28,29
 521 515 521 515 485 595 c 0,30,31
 450 675 450 675 382 675 c 256,32,33
 314 675 314 675 278 595 c 0,34,35
 243 515 243 515 243 351 c 256,20,21
EndSplineSet
EndChar

StartChar: one
Encoding: 49 49 20
Width: 399
GlyphClass: 1
Flags: W
LayerCount: 2
Fore
SplineSet
316 769 m 0,0,1
 319 770 319 770 322 770 c 0,2,3
 333 770 333 770 338 760 c 1,4,5
 338 536 338 536 338 89 c 0,6,7
 338 -32 338 -32 182 -69 c 0,8,9
 167 -69 167 -69 167 -56 c 0,10,11
 167 120 167 120 167 471 c 1,12,13
 171 601 171 601 8 596 c 1,14,15
 8 598 8 598 8 601 c 0,16,17
 7 614 7 614 22 625 c 0,18,19
 120 673 120 673 316 769 c 0,0,1
EndSplineSet
EndChar

StartChar: two
Encoding: 50 50 21
Width: 655
GlyphClass: 1
Flags: W
LayerCount: 2
Fore
SplineSet
306 765 m 0,0,1
 310 765 310 765 314 765 c 0,2,3
 536 765 536 765 595 605 c 0,4,5
 603 575 603 575 603 550 c 0,6,7
 603 545 603 545 603 535 c 0,8,9
 605 385 605 385 435 292 c 0,10,11
 266 199 266 199 262 89 c 1,12,13
 337 89 337 89 488 89 c 0,14,15
 585 89 585 89 607 128 c 1,16,17
 621 125 621 125 623 109 c 1,18,19
 611 58 611 58 587 -45 c 1,20,21
 575 -45 575 -45 540 -45 c 0,22,23
 422 -45 422 -45 68 -45 c 0,24,25
 48 -45 48 -45 47 -5 c 0,26,27
 47 -3 47 -3 47 2 c 0,28,29
 47 5 47 5 47 8 c 0,30,31
 47 170 47 170 270 313 c 1,32,33
 430 423 430 423 436 481 c 0,34,35
 454 657 454 657 327 674 c 1,36,37
 197 664 197 664 207 479 c 0,38,39
 206 463 206 463 188 460 c 0,40,41
 148 460 148 460 67 460 c 0,42,43
 52 460 52 460 49 478 c 0,44,45
 51 621 51 621 129 693 c 0,46,47
 198 756 198 756 306 765 c 0,0,1
EndSplineSet
EndChar

StartChar: three
Encoding: 51 51 22
Width: 676
GlyphClass: 1
Flags: W
LayerCount: 2
Fore
SplineSet
317 774 m 0,0,1
 453 773 453 773 526 707 c 0,2,3
 600 641 600 641 596 558 c 0,4,5
 590 431 590 431 485 380 c 1,6,7
 523 370 523 370 553 346 c 0,8,9
 625 295 625 295 625 196 c 0,10,11
 625 191 625 191 625 187 c 0,12,13
 617 61 617 61 528 0 c 0,14,15
 445 -55 445 -55 329 -55 c 0,16,17
 319 -55 319 -55 309 -55 c 0,18,19
 125 -55 125 -55 63 80 c 1,20,21
 52 122 52 122 52 152 c 0,22,23
 52 173 52 173 52 215 c 0,24,25
 54 225 54 225 63 227 c 0,26,27
 100 227 100 227 173 227 c 0,28,29
 182 226 182 226 185 215 c 0,30,31
 185 207 185 207 185 191 c 0,32,33
 179 67 179 67 306 56 c 0,34,35
 307 56 307 56 310 56 c 0,36,37
 447 66 447 66 449 187 c 0,38,39
 451 319 451 319 310 334 c 0,40,41
 283 334 283 334 230 334 c 0,42,43
 221 334 221 334 219 345 c 0,44,45
 219 368 219 368 219 413 c 0,46,47
 218 425 218 425 230 425 c 0,48,49
 255 425 255 425 306 425 c 0,50,51
 435 427 435 427 442 557 c 1,52,53
 427 668 427 668 310 669 c 1,54,55
 190 658 190 658 189 547 c 0,56,57
 189 540 189 540 189 527 c 0,58,59
 189 511 189 511 175 511 c 0,60,61
 140 511 140 511 70 511 c 0,62,63
 56 510 56 510 54 526 c 0,64,65
 56 769 56 769 317 774 c 0,0,1
EndSplineSet
EndChar

StartChar: four
Encoding: 52 52 23
Width: 737
GlyphClass: 1
Flags: W
LayerCount: 2
Fore
SplineSet
531 766 m 0,0,1
 532 766 532 766 534 766 c 0,2,3
 551 766 551 766 555 754 c 1,4,5
 555 592 555 592 556 268 c 1,6,7
 594 268 594 268 707 268 c 0,8,9
 718 267 718 267 718 256 c 0,10,11
 718 223 718 223 718 157 c 1,12,13
 714 145 714 145 694 144 c 0,14,15
 648 144 648 144 556 144 c 1,16,17
 556 129 556 129 556 84 c 0,18,19
 556 -42 556 -42 393 -67 c 0,20,21
 386 -66 386 -66 386 -55 c 0,22,23
 386 11 386 11 386 144 c 1,24,25
 320 144 320 144 124 144 c 0,26,27
 109 144 109 144 63 144 c 0,28,29
 34 147 34 147 37 166 c 0,30,31
 36 176 36 176 36 185 c 0,32,33
 36 217 36 217 49 233 c 0,34,35
 161 405 161 405 385 750 c 0,36,37
 395 765 395 765 413 766 c 0,38,39
 452 766 452 766 531 766 c 0,0,1
381 603 m 0,40,41
 371 585 371 585 245 380 c 0,42,43
 214 330 214 330 176 268 c 1,44,45
 246 268 246 268 386 268 c 1,46,47
 386 352 386 352 385 603 c 0,48,49
 384 603 384 603 381 603 c 0,40,41
EndSplineSet
EndChar

StartChar: five
Encoding: 53 53 24
Width: 676
GlyphClass: 1
Flags: W
LayerCount: 2
Fore
SplineSet
173 762 m 0,0,1
 279 762 279 762 597 762 c 0,2,3
 604 761 604 761 604 754 c 0,4,5
 604 751 604 751 604 745 c 0,6,7
 604 673 604 673 521 635 c 0,8,9
 504 627 504 627 458 627 c 0,10,11
 392 627 392 627 260 627 c 1,12,13
 236 468 236 468 237 449 c 0,14,15
 238 449 238 449 241 449 c 0,16,17
 269 464 269 464 359 469 c 1,18,19
 561 469 561 469 621 314 c 0,20,21
 636 276 636 276 636 207 c 0,22,23
 636 31 636 31 449 -34 c 1,24,25
 392 -49 392 -49 313 -49 c 1,26,27
 167 -41 167 -41 111 28 c 0,28,29
 55 96 55 96 54 160 c 0,30,31
 54 171 54 171 54 193 c 256,32,33
 54 215 54 215 70 219 c 1,34,35
 103 219 103 219 169 219 c 0,36,37
 180 218 180 218 181 207 c 0,38,39
 181 206 181 206 181 203 c 0,40,41
 181 49 181 49 315 49 c 0,42,43
 316 49 316 49 319 49 c 0,44,45
 423 49 423 49 454 156 c 0,46,47
 458 178 458 178 458 191 c 256,48,49
 458 204 458 204 458 231 c 0,50,51
 458 322 458 322 387 361 c 0,52,53
 351 377 351 377 311 378 c 0,54,55
 245 378 245 378 150 340 c 0,56,57
 128 327 128 327 123 335 c 1,58,59
 115 339 115 339 98 347 c 0,60,61
 91 353 91 353 95 371 c 0,62,63
 117 497 117 497 161 749 c 0,64,65
 162 761 162 761 173 762 c 0,0,1
EndSplineSet
EndChar

StartChar: six
Encoding: 54 54 25
Width: 696
GlyphClass: 1
Flags: W
LayerCount: 2
Fore
SplineSet
365 -65 m 0,0,1
 295 -65 295 -65 238 -46 c 256,2,3
 181 -27 181 -27 140 12 c 256,4,5
 99 51 99 51 78 110 c 0,6,7
 56 170 56 170 56 249 c 0,8,9
 55 463 55 463 184 603 c 0,10,11
 314 743 314 743 464 781 c 0,12,13
 471 783 471 783 476 783 c 0,14,15
 488 784 488 784 492 771 c 0,16,17
 499 756 499 756 514 726 c 0,18,19
 515 722 515 722 515 719 c 0,20,21
 516 709 516 709 504 701 c 0,22,23
 443 669 443 669 390 626 c 0,24,25
 338 584 338 584 302 526 c 0,26,27
 267 469 267 469 257 425 c 1,28,29
 285 443 285 443 322 457 c 0,30,31
 358 470 358 470 406 470 c 0,32,33
 530 470 530 470 598 402 c 0,34,35
 667 334 667 334 667 204 c 0,36,37
 667 139 667 139 646 89 c 256,38,39
 625 39 625 39 585 5 c 0,40,41
 546 -29 546 -29 490 -47 c 256,42,43
 434 -65 434 -65 365 -65 c 0,0,1
232 205 m 0,44,45
 236 116 236 116 270 72 c 0,46,47
 305 27 305 27 365 27 c 0,48,49
 423 27 423 27 458 72 c 0,50,51
 492 116 492 116 492 204 c 256,52,53
 492 292 492 292 458 336 c 0,54,55
 423 379 423 379 365 379 c 0,56,57
 333 379 333 379 301 366 c 0,58,59
 269 354 269 354 244 332 c 1,60,61
 231 279 231 279 232 205 c 0,44,45
EndSplineSet
EndChar

StartChar: seven
Encoding: 55 55 26
Width: 594
GlyphClass: 1
Flags: W
LayerCount: 2
Fore
SplineSet
604 763 m 1,0,1
 620 757 620 757 621 742 c 1,2,3
 419 469 419 469 360 87 c 0,4,5
 349 12 349 12 311 -20 c 0,6,7
 274 -53 274 -53 190 -55 c 0,8,9
 183 -54 183 -54 172 -47 c 1,10,11
 186 371 186 371 437 631 c 1,12,13
 328 631 328 631 109 631 c 0,14,15
 51 631 51 631 27 595 c 0,16,17
 26 595 26 595 23 595 c 0,18,19
 11 598 11 598 10 610 c 0,20,21
 19 656 19 656 38 749 c 0,22,23
 42 762 42 762 57 763 c 0,24,25
 239 763 239 763 604 763 c 1,0,1
EndSplineSet
EndChar

StartChar: eight
Encoding: 56 56 27
Width: 686
GlyphClass: 1
Flags: W
LayerCount: 2
Fore
SplineSet
34 165 m 0,0,1
 34 199 34 199 45 230 c 0,2,3
 56 260 56 260 77 286 c 256,4,5
 98 312 98 312 127 331 c 256,6,7
 156 350 156 350 191 359 c 1,8,9
 155 378 155 378 130 400 c 0,10,11
 106 423 106 423 92 447 c 0,12,13
 78 472 78 472 72 499 c 256,14,15
 66 526 66 526 66 557 c 0,16,17
 66 654 66 654 139 712 c 0,18,19
 212 769 212 769 347 769 c 0,20,21
 415 769 415 769 467 754 c 256,22,23
 519 739 519 739 555 712 c 0,24,25
 591 686 591 686 610 649 c 0,26,27
 629 611 629 611 629 567 c 0,28,29
 629 533 629 533 619 504 c 256,30,31
 609 475 609 475 592 452 c 256,32,33
 575 429 575 429 552 412 c 0,34,35
 530 396 530 396 505 388 c 1,36,37
 588 348 588 348 624 295 c 256,38,39
 660 242 660 242 660 166 c 0,40,41
 660 50 660 50 580 -9 c 0,42,43
 500 -67 500 -67 347 -67 c 256,44,45
 194 -67 194 -67 114 -9 c 0,46,47
 34 50 34 50 34 165 c 0,0,1
489 182 m 0,48,49
 479 210 479 210 460 232 c 0,50,51
 442 254 442 254 403 275 c 0,52,53
 364 297 364 297 310 307 c 1,54,55
 249 272 249 272 226 236 c 0,56,57
 203 199 203 199 203 157 c 0,58,59
 203 91 203 91 242 57 c 0,60,61
 280 23 280 23 347 23 c 0,62,63
 415 23 415 23 450 50 c 0,64,65
 484 76 484 76 491 115 c 0,66,67
 499 155 499 155 489 182 c 0,48,49
234 574 m 0,68,69
 234 548 234 548 243 528 c 0,70,71
 253 509 253 509 272 491 c 0,72,73
 291 474 291 474 314 463 c 0,74,75
 336 452 336 452 380 439 c 1,76,77
 422 464 422 464 443 498 c 0,78,79
 463 532 463 532 463 583 c 0,80,81
 460 625 460 625 428 652 c 0,82,83
 397 680 397 680 347 680 c 256,84,85
 297 680 297 680 265 650 c 0,86,87
 234 621 234 621 234 574 c 0,68,69
EndSplineSet
EndChar

StartChar: nine
Encoding: 57 57 28
Width: 645
GlyphClass: 1
Flags: W
LayerCount: 2
Fore
SplineSet
327 784 m 256,0,1
 395 784 395 784 450 766 c 0,2,3
 506 748 506 748 546 709 c 0,4,5
 586 671 586 671 607 613 c 0,6,7
 629 555 629 555 629 477 c 0,8,9
 629 391 629 391 603 308 c 256,10,11
 577 225 577 225 527 155 c 0,12,13
 478 86 478 86 408 35 c 0,14,15
 337 -16 337 -16 228 -54 c 0,16,17
 221 -56 221 -56 216 -56 c 0,18,19
 204 -56 204 -56 200 -43 c 0,20,21
 193 -29 193 -29 180 0 c 0,22,23
 178 4 178 4 178 7 c 0,24,25
 177 16 177 16 189 24 c 0,26,27
 249 56 249 56 286 84 c 0,28,29
 324 113 324 113 353 147 c 0,30,31
 382 182 382 182 402 222 c 256,32,33
 422 262 422 262 431 305 c 1,34,35
 404 287 404 287 368 274 c 256,36,37
 332 261 332 261 286 261 c 0,38,39
 165 261 165 261 98 327 c 0,40,41
 30 394 30 394 30 521 c 0,42,43
 30 584 30 584 51 634 c 0,44,45
 72 683 72 683 110 716 c 0,46,47
 148 750 148 750 204 767 c 0,48,49
 259 784 259 784 327 784 c 256,0,1
456 520 m 0,50,51
 452 608 452 608 418 652 c 0,52,53
 384 695 384 695 327 695 c 256,54,55
 270 695 270 695 236 652 c 0,56,57
 202 608 202 608 202 521 c 0,58,59
 202 435 202 435 235 393 c 0,60,61
 269 350 269 350 327 350 c 0,62,63
 358 350 358 350 389 362 c 256,64,65
 420 374 420 374 444 396 c 1,66,67
 457 448 457 448 456 520 c 0,50,51
EndSplineSet
EndChar

StartChar: colon
Encoding: 58 58 29
Width: 338
GlyphClass: 1
Flags: W
LayerCount: 2
Fore
SplineSet
69 432 m 256,0,1
 69 471 69 471 94 496 c 0,2,3
 118 520 118 520 160 520 c 0,4,5
 201 520 201 520 225 496 c 0,6,7
 250 471 250 471 250 432 c 256,8,9
 250 393 250 393 225 368 c 0,10,11
 201 344 201 344 160 344 c 0,12,13
 118 344 118 344 94 368 c 0,14,15
 69 393 69 393 69 432 c 256,0,1
69 60 m 256,16,17
 69 99 69 99 94 124 c 0,18,19
 118 148 118 148 160 148 c 0,20,21
 201 148 201 148 225 124 c 0,22,23
 250 99 250 99 250 60 c 256,24,25
 250 21 250 21 225 -4 c 0,26,27
 201 -28 201 -28 160 -28 c 0,28,29
 118 -28 118 -28 94 -4 c 0,30,31
 69 21 69 21 69 60 c 256,16,17
EndSplineSet
EndChar

StartChar: semicolon
Encoding: 59 59 30
Width: 358
GlyphClass: 1
Flags: W
LayerCount: 2
Fore
SplineSet
73 425 m 256,0,1
 73 466 73 466 98 492 c 0,2,3
 124 518 124 518 169 518 c 0,4,5
 213 518 213 518 238 492 c 0,6,7
 264 466 264 466 264 425 c 256,8,9
 264 384 264 384 238 358 c 0,10,11
 213 333 213 333 169 333 c 0,12,13
 160 333 160 333 152 334 c 0,14,15
 119 338 119 338 98 358 c 0,16,17
 73 384 73 384 73 425 c 256,0,1
264 57 m 0,18,19
 264 52 264 52 264 47 c 0,20,21
 264 -131 264 -131 91 -171 c 0,22,23
 80 -171 80 -171 80 -161 c 1,24,25
 150 -125 150 -125 163 -28 c 1,26,27
 80 -29 80 -29 74 58 c 0,28,29
 75 68 75 68 75 76 c 0,30,31
 84 150 84 150 168 153 c 1,32,33
 256 151 256 151 264 57 c 0,18,19
EndSplineSet
EndChar

StartChar: less
Encoding: 60 60 31
Width: 614
GlyphClass: 1
Flags: W
LayerCount: 2
Fore
SplineSet
562 594 m 1,0,1
 563 596 563 596 563 512 c 0,2,3
 563 511 563 511 563 509 c 0,4,5
 563 480 563 480 546 469 c 0,6,7
 451 420 451 420 260 321 c 1,8,9
 260 321 260 321 260 322 c 1,10,11
 329 286 329 286 535 178 c 0,12,13
 563 165 563 165 562 133 c 0,14,15
 562 47 562 47 562 42 c 0,16,17
 562 26 562 26 547 26 c 1,18,19
 392 105 392 105 81 264 c 0,20,21
 53 276 53 276 52 305 c 0,22,23
 52 316 52 316 52 337 c 0,24,25
 52 338 52 338 52 339 c 0,26,27
 52 365 52 365 80 376 c 0,28,29
 237 456 237 456 552 617 c 0,30,31
 553 617 553 617 555 618 c 0,32,33
 564 618 564 618 562 594 c 1,0,1
EndSplineSet
EndChar

StartChar: equal
Encoding: 61 61 32
Width: 563
GlyphClass: 1
Flags: W
LayerCount: 2
Fore
SplineSet
52 510 m 0,0,1
 167 510 167 510 513 510 c 0,2,3
 527 510 527 510 527 500 c 0,4,5
 527 471 527 471 527 414 c 0,6,7
 526 402 526 402 514 402 c 0,8,9
 360 402 360 402 52 402 c 0,10,11
 42 402 42 402 42 415 c 0,12,13
 42 443 42 443 42 500 c 0,14,15
 42 509 42 509 52 510 c 0,0,1
52 287 m 0,16,17
 167 287 167 287 513 287 c 0,18,19
 527 287 527 287 527 276 c 0,20,21
 527 247 527 247 527 190 c 0,22,23
 526 179 526 179 514 179 c 0,24,25
 360 179 360 179 52 179 c 0,26,27
 42 179 42 179 42 191 c 0,28,29
 42 219 42 219 42 276 c 0,30,31
 42 286 42 286 52 287 c 0,16,17
EndSplineSet
EndChar

StartChar: greater
Encoding: 62 62 33
Width: 614
GlyphClass: 1
Flags: W
LayerCount: 2
Fore
SplineSet
53 599 m 1,0,1
 53 601 53 601 53 602 c 0,2,3
 53 623 53 623 62 623 c 0,4,5
 63 624 63 624 65 623 c 0,6,7
 222 542 222 542 537 381 c 0,8,9
 563 371 563 371 563 346 c 0,10,11
 563 345 563 345 563 343 c 0,12,13
 563 332 563 332 563 311 c 0,14,15
 563 281 563 281 536 270 c 0,16,17
 381 191 381 191 70 32 c 1,18,19
 54 32 54 32 53 48 c 0,20,21
 53 52 53 52 53 138 c 0,22,23
 53 170 53 170 82 184 c 0,24,25
 173 232 173 232 355 327 c 1,26,27
 355 327 355 327 355 326 c 1,28,29
 284 363 284 363 70 474 c 0,30,31
 52 487 52 487 53 518 c 0,32,33
 53 602 53 602 53 599 c 1,0,1
EndSplineSet
EndChar

StartChar: question
Encoding: 63 63 34
Width: 625
GlyphClass: 1
Flags: W
LayerCount: 2
Fore
SplineSet
200 28 m 256,0,1
 200 72 200 72 228 100 c 0,2,3
 256 127 256 127 304 127 c 256,4,5
 352 127 352 127 380 100 c 0,6,7
 409 72 409 72 409 28 c 256,8,9
 409 -16 409 -16 380 -44 c 0,10,11
 352 -72 352 -72 304 -72 c 256,12,13
 256 -72 256 -72 228 -44 c 256,14,15
 200 -16 200 -16 200 28 c 256,0,1
303 823 m 0,16,17
 535 823 535 823 558 638 c 0,18,19
 558 630 558 630 558 614 c 0,20,21
 551 441 551 441 407 376 c 0,22,23
 383 365 383 365 379 346 c 1,24,25
 379 319 379 319 379 266 c 0,26,27
 379 221 379 221 338 220 c 0,28,29
 325 220 325 220 300 219 c 0,30,31
 292 219 292 219 267 219 c 0,32,33
 265 219 265 219 265 219 c 1,34,35
 217 264 217 264 217 265 c 1,36,37
 217 264 217 264 217 264 c 1,38,39
 219 303 219 303 219 336 c 0,40,41
 219 358 219 358 218 378 c 0,42,43
 218 380 218 380 218 381 c 0,44,45
 218 419 218 419 316 483 c 0,46,47
 390 531 390 531 390 618 c 0,48,49
 390 622 390 622 390 625 c 256,50,51
 390 628 390 628 390 632 c 0,52,53
 390 729 390 729 307 739 c 1,54,55
 246 738 246 738 225 692 c 1,56,57
 210 645 210 645 210 605 c 0,58,59
 210 601 210 601 210 596 c 0,60,61
 210 582 210 582 211 567 c 0,62,63
 212 547 212 547 197 543 c 1,64,65
 150 543 150 543 57 543 c 0,66,67
 43 543 43 543 42 563 c 0,68,69
 42 576 42 576 41 602 c 0,70,71
 41 606 41 606 41 610 c 0,72,73
 41 755 41 755 179 805 c 0,74,75
 229 823 229 823 290 823 c 0,76,77
 293 823 293 823 296 823 c 256,78,79
 299 823 299 823 303 823 c 0,16,17
EndSplineSet
EndChar

StartChar: at
Encoding: 64 64 35
Width: 1034
GlyphClass: 1
Flags: W
LayerCount: 2
Fore
SplineSet
579 811 m 1,0,1
 949 791 949 791 981 460 c 0,2,3
 981 455 981 455 981 449 c 0,4,5
 981 223 981 223 773 115 c 0,6,7
 728 90 728 90 683 94 c 1,8,9
 596 114 596 114 596 177 c 1,10,11
 596 177 596 177 596 177 c 1,12,13
 538 99 538 99 437 99 c 0,14,15
 429 99 429 99 412 99 c 0,16,17
 266 108 266 108 269 233 c 0,18,19
 272 377 272 377 550 434 c 0,20,21
 595 445 595 445 591 470 c 0,22,23
 591 479 591 479 591 496 c 0,24,25
 581 563 581 563 514 562 c 1,26,27
 444 552 444 552 433 475 c 0,28,29
 432 453 432 453 417 455 c 0,30,31
 389 455 389 455 334 455 c 0,32,33
 319 457 319 457 318 475 c 0,34,35
 335 637 335 637 529 644 c 1,36,37
 745 639 745 639 745 475 c 1,38,39
 741 405 741 405 732 264 c 0,40,41
 728 218 728 218 762 229 c 1,42,43
 832 295 832 295 843 388 c 0,44,45
 862 560 862 560 780 639 c 0,46,47
 697 718 697 718 582 721 c 1,48,49
 382 718 382 718 291 607 c 0,50,51
 199 495 199 495 193 359 c 0,52,53
 176 20 176 20 548 -18 c 1,54,55
 699 -11 699 -11 812 74 c 1,56,57
 871 136 871 136 938 137 c 0,58,59
 953 135 953 135 952 125 c 0,60,61
 840 -115 840 -115 572 -125 c 1,62,63
 228 -123 228 -123 95 110 c 1,64,65
 51 200 51 200 46 315 c 0,66,67
 46 317 46 317 46 321 c 0,68,69
 58 691 58 691 385 788 c 0,70,71
 458 810 458 810 579 811 c 1,0,1
422 239 m 0,72,73
 425 197 425 197 468 187 c 0,74,75
 475 187 475 187 488 187 c 0,76,77
 575 187 575 187 580 365 c 1,78,79
 422 331 422 331 422 239 c 0,72,73
EndSplineSet
EndChar

StartChar: A
Encoding: 65 65 36
Width: 676
GlyphClass: 1
Flags: W
LayerCount: 2
Fore
SplineSet
291 761 m 0,0,1
 318 761 318 761 397 761 c 0,2,3
 399 761 399 761 401 761 c 0,4,5
 427 761 427 761 434 737 c 0,6,7
 698 -29 698 -29 698 -40 c 0,8,9
 698 -48 698 -48 690 -48 c 0,10,11
 675 -48 675 -48 646 -48 c 0,12,13
 522 -48 522 -48 464 100 c 0,14,15
 442 157 442 157 440 164 c 1,16,17
 351 164 351 164 174 164 c 1,18,19
 172 159 172 159 116 -15 c 0,20,21
 109 -28 109 -28 88 -38 c 0,22,23
 60 -49 60 -49 24 -49 c 0,24,25
 14 -49 14 -49 4 -48 c 0,26,27
 -4 -48 -4 -48 -4 -40 c 0,28,29
 29 78 29 78 254 737 c 0,30,31
 264 762 264 762 291 761 c 0,0,1
311 582 m 0,32,33
 285 502 285 502 206 262 c 1,34,35
 258 262 258 262 412 262 c 1,36,37
 412 263 412 263 412 266 c 0,38,39
 388 345 388 345 315 582 c 0,40,41
 314 582 314 582 311 582 c 0,32,33
EndSplineSet
EndChar

StartChar: B
Encoding: 66 66 37
Width: 707
GlyphClass: 1
Flags: W
LayerCount: 2
Fore
SplineSet
265 668 m 1,0,1
 265 609 265 609 265 432 c 1,2,3
 284 432 284 432 342 432 c 0,4,5
 398 432 398 432 432 462 c 0,6,7
 465 493 465 493 465 550 c 256,8,9
 465 607 465 607 432 638 c 0,10,11
 398 668 398 668 342 668 c 0,12,13
 316 668 316 668 265 668 c 1,0,1
37 763 m 0,14,15
 126 763 126 763 394 763 c 0,16,17
 592 763 592 763 638 632 c 1,18,19
 647 593 647 593 646 578 c 0,20,21
 646 443 646 443 522 399 c 0,22,23
 519 398 519 398 514 396 c 1,24,25
 556 389 556 389 592 371 c 1,26,27
 691 308 691 308 691 198 c 0,28,29
 691 189 691 189 691 172 c 0,30,31
 691 22 691 22 522 -27 c 0,32,33
 470 -39 470 -39 408 -39 c 0,34,35
 313 -39 313 -39 123 -39 c 0,36,37
 90 -39 90 -39 90 -5 c 0,38,39
 90 210 90 210 90 640 c 0,40,41
 90 696 90 696 20 742 c 0,42,43
 20 743 20 743 20 746 c 0,44,45
 25 760 25 760 37 763 c 0,14,15
267 337 m 1,46,47
 267 270 267 270 267 71 c 0,48,49
 270 58 270 58 280 57 c 0,50,51
 303 57 303 57 349 57 c 0,52,53
 510 57 510 57 510 193 c 0,54,55
 510 337 510 337 345 337 c 0,56,57
 319 337 319 337 267 337 c 1,46,47
EndSplineSet
EndChar

StartChar: C
Encoding: 67 67 38
Width: 737
GlyphClass: 1
Flags: W
LayerCount: 2
Fore
SplineSet
654 772 m 0,0,1
 656 773 656 773 658 773 c 0,2,3
 665 773 665 773 669 764 c 0,4,5
 682 688 682 688 707 537 c 0,6,7
 710 515 710 515 689 515 c 0,8,9
 688 515 688 515 687 515 c 0,10,11
 677 515 677 515 647 516 c 0,12,13
 633 517 633 517 630 530 c 0,14,15
 554 660 554 660 426 669 c 1,16,17
 294 669 294 669 239 532 c 0,18,19
 209 448 209 448 209 357 c 0,20,21
 209 90 209 90 379 47 c 0,22,23
 396 43 396 43 413 43 c 0,24,25
 426 43 426 43 452 43 c 0,26,27
 554 43 554 43 669 146 c 0,28,29
 681 155 681 155 690 146 c 0,30,31
 701 137 701 137 724 119 c 0,32,33
 731 114 731 114 731 106 c 0,34,35
 731 103 731 103 731 101 c 0,36,37
 687 24 687 24 595 -24 c 1,38,39
 514 -59 514 -59 422 -59 c 0,40,41
 420 -59 420 -59 417 -59 c 0,42,43
 87 -56 87 -56 26 258 c 0,44,45
 18 301 18 301 17 379 c 0,46,47
 17 630 17 630 247 736 c 0,48,49
 317 766 317 766 417 766 c 0,50,51
 509 766 509 766 622 720 c 1,52,53
 649 732 649 732 654 772 c 0,0,1
EndSplineSet
EndChar

StartChar: D
Encoding: 68 68 39
Width: 788
GlyphClass: 1
Flags: W
LayerCount: 2
Fore
SplineSet
33 763 m 1,0,1
 118 763 118 763 373 763 c 0,2,3
 630 763 630 763 722 559 c 1,4,5
 761 484 761 484 761 358 c 0,6,7
 761 84 761 84 539 -24 c 0,8,9
 470 -54 470 -54 375 -54 c 0,10,11
 372 -54 372 -54 369 -54 c 0,12,13
 287 -54 287 -54 122 -54 c 0,14,15
 88 -54 88 -54 88 -18 c 0,16,17
 88 200 88 200 88 637 c 0,18,19
 88 694 88 694 16 740 c 0,20,21
 16 741 16 741 16 744 c 0,22,23
 19 759 19 759 33 763 c 1,0,1
266 657 m 1,24,25
 266 515 266 515 266 90 c 0,26,27
 264 71 264 71 284 70 c 0,28,29
 578 60 578 60 578 362 c 0,30,31
 578 592 578 592 424 645 c 0,32,33
 382 657 382 657 313 657 c 0,34,35
 297 657 297 657 266 657 c 1,24,25
EndSplineSet
EndChar

StartChar: E
Encoding: 69 69 40
Width: 645
GlyphClass: 1
Flags: W
LayerCount: 2
Fore
SplineSet
55 766 m 0,0,1
 187 766 187 766 581 766 c 0,2,3
 594 766 594 766 602 758 c 1,4,5
 610 722 610 722 626 649 c 0,6,7
 626 646 626 646 626 636 c 0,8,9
 622 624 622 624 610 623 c 1,10,11
 581 664 581 664 526 662 c 0,12,13
 441 662 441 662 270 662 c 1,14,15
 270 604 270 604 270 431 c 1,16,17
 343 431 343 431 560 431 c 1,18,19
 572 427 572 427 572 414 c 0,20,21
 572 391 572 391 572 345 c 0,22,23
 571 330 571 330 556 328 c 0,24,25
 298 327 298 327 270 327 c 1,26,27
 270 326 270 326 270 323 c 0,28,29
 270 89 270 89 270 84 c 1,30,31
 352 84 352 84 515 84 c 1,32,33
 602 89 602 89 602 124 c 1,34,35
 606 124 606 124 614 124 c 0,36,37
 624 120 624 120 626 106 c 0,38,39
 621 59 621 59 610 -35 c 0,40,41
 605 -47 605 -47 594 -47 c 0,42,43
 593 -47 593 -47 592 -47 c 0,44,45
 431 -47 431 -47 110 -47 c 1,46,47
 93 -38 93 -38 93 -11 c 0,48,49
 93 206 93 206 93 640 c 0,50,51
 93 703 93 703 22 740 c 1,52,53
 30 766 30 766 55 766 c 0,0,1
EndSplineSet
EndChar

StartChar: F
Encoding: 70 70 41
Width: 594
GlyphClass: 1
Flags: W
LayerCount: 2
Fore
SplineSet
57 767 m 0,0,1
 183 767 183 767 563 767 c 0,2,3
 581 766 581 766 587 752 c 0,4,5
 601 663 601 663 606 637 c 0,6,7
 606 636 606 636 606 634 c 0,8,9
 606 618 606 618 590 613 c 1,10,11
 567 662 567 662 500 665 c 0,12,13
 422 665 422 665 266 665 c 1,14,15
 266 605 266 605 266 425 c 1,16,17
 336 425 336 425 547 425 c 0,18,19
 555 424 555 424 555 417 c 0,20,21
 555 390 555 390 555 336 c 0,22,23
 555 327 555 327 547 327 c 0,24,25
 453 327 453 327 266 327 c 1,26,27
 266 272 266 272 266 105 c 0,28,29
 266 -26 266 -26 103 -52 c 0,30,31
 102 -52 102 -52 99 -52 c 0,32,33
 90 -52 90 -52 90 -44 c 0,34,35
 90 184 90 184 90 639 c 0,36,37
 88 711 88 711 19 745 c 1,38,39
 19 767 19 767 57 767 c 0,0,1
EndSplineSet
EndChar

StartChar: G
Encoding: 71 71 42
Width: 788
GlyphClass: 1
Flags: W
LayerCount: 2
Fore
SplineSet
666 780 m 0,0,1
 668 780 668 780 671 780 c 0,2,3
 685 781 685 781 688 765 c 0,4,5
 698 687 698 687 718 530 c 0,6,7
 720 517 720 517 703 517 c 0,8,9
 683 517 683 517 643 518 c 0,10,11
 626 516 626 516 621 535 c 0,12,13
 570 671 570 671 433 673 c 1,14,15
 221 657 221 657 211 374 c 1,16,17
 218 137 218 137 334 66 c 0,18,19
 383 40 383 40 437 40 c 0,20,21
 473 40 473 40 537 56 c 1,22,23
 537 112 537 112 537 224 c 0,24,25
 537 281 537 281 463 333 c 1,26,27
 470 355 470 355 494 354 c 0,28,29
 580 354 580 354 752 354 c 0,30,31
 776 354 776 354 782 337 c 0,32,33
 782 336 782 336 782 333 c 0,34,35
 708 284 708 284 709 208 c 0,36,37
 709 150 709 150 709 35 c 0,38,39
 709 -26 709 -26 565 -50 c 0,40,41
 518 -59 518 -59 446 -59 c 0,42,43
 430 -59 430 -59 398 -59 c 0,44,45
 189 -52 189 -52 103 68 c 0,46,47
 20 184 20 184 20 362 c 0,48,49
 20 366 20 366 20 370 c 0,50,51
 19 652 19 652 273 750 c 0,52,53
 326 772 326 772 427 772 c 0,54,55
 527 771 527 771 631 724 c 1,56,57
 660 738 660 738 666 780 c 0,0,1
EndSplineSet
EndChar

StartChar: H
Encoding: 72 72 43
Width: 799
GlyphClass: 1
Flags: W
LayerCount: 2
Fore
SplineSet
35 764 m 1,0,1
 90 764 90 764 253 764 c 1,2,3
 270 757 270 757 270 733 c 0,4,5
 270 637 270 637 270 444 c 1,6,7
 341 444 341 444 553 444 c 1,8,9
 553 521 553 521 553 751 c 0,10,11
 553 757 553 757 565 764 c 1,12,13
 615 764 615 764 716 764 c 1,14,15
 732 757 732 757 732 733 c 0,16,17
 732 545 732 545 732 170 c 1,18,19
 727 33 727 33 669 -9 c 256,20,21
 611 -51 611 -51 561 -51 c 1,22,23
 558 -47 558 -47 553 -39 c 1,24,25
 553 55 553 55 553 338 c 1,26,27
 482 338 482 338 270 338 c 1,28,29
 270 284 270 284 271 122 c 0,30,31
 270 6 270 6 176 -31 c 0,32,33
 126 -51 126 -51 99 -51 c 1,34,35
 96 -47 96 -47 90 -39 c 1,36,37
 90 125 90 125 90 618 c 0,38,39
 90 698 90 698 17 742 c 0,40,41
 17 743 17 743 17 746 c 0,42,43
 19 759 19 759 35 764 c 1,0,1
100 -51 m 0,44,45
 90 -51 90 -51 90 -42 c 256,46,47
 90 -33 90 -33 100 -33 c 0,48,49
 109 -33 109 -33 110 -42 c 0,50,51
 109 -51 109 -51 100 -51 c 0,44,45
100 -51 m 0,52,53
 90 -51 90 -51 90 -42 c 256,54,55
 90 -33 90 -33 100 -33 c 0,56,57
 109 -33 109 -33 110 -42 c 0,58,59
 109 -51 109 -51 100 -51 c 0,52,53
562 -51 m 0,60,61
 553 -51 553 -51 553 -42 c 256,62,63
 553 -33 553 -33 562 -33 c 0,64,65
 572 -33 572 -33 572 -42 c 256,66,67
 572 -51 572 -51 562 -51 c 0,60,61
EndSplineSet
EndChar

StartChar: I
Encoding: 73 73 44
Width: 389
GlyphClass: 1
Flags: W
LayerCount: 2
Fore
SplineSet
50 766 m 1,0,1
 123 766 123 766 343 766 c 1,2,3
 360 760 360 760 365 744 c 0,4,5
 365 743 365 743 365 740 c 0,6,7
 292 696 292 696 292 635 c 0,8,9
 292 450 292 450 292 81 c 0,10,11
 292 20 292 20 365 -25 c 0,12,13
 365 -26 365 -26 365 -29 c 0,14,15
 362 -46 362 -46 343 -49 c 0,16,17
 245 -49 245 -49 50 -49 c 0,18,19
 30 -46 30 -46 29 -29 c 0,20,21
 29 -28 29 -28 29 -25 c 0,22,23
 103 19 103 19 102 81 c 0,24,25
 102 266 102 266 102 635 c 0,26,27
 102 696 102 696 29 740 c 0,28,29
 29 741 29 741 29 744 c 0,30,31
 33 760 33 760 50 766 c 1,0,1
EndSplineSet
EndChar

StartChar: J
Encoding: 74 74 45
Width: 358
GlyphClass: 1
Flags: W
LayerCount: 2
Fore
SplineSet
55 768 m 0,0,1
 108 768 108 768 267 768 c 0,2,3
 275 768 275 768 282 753 c 1,4,5
 282 499 282 499 282 -9 c 0,6,7
 282 -197 282 -197 113 -280 c 1,8,9
 47 -305 47 -305 -27 -305 c 0,10,11
 -29 -305 -29 -305 -32 -305 c 0,12,13
 -43 -303 -43 -303 -46 -291 c 1,14,15
 104 -218 104 -218 103 -15 c 0,16,17
 103 191 103 191 103 602 c 0,18,19
 103 692 103 692 23 743 c 0,20,21
 23 745 23 745 23 748 c 0,22,23
 29 768 29 768 55 768 c 0,0,1
EndSplineSet
EndChar

StartChar: K
Encoding: 75 75 46
Width: 737
GlyphClass: 1
Flags: W
LayerCount: 2
Fore
SplineSet
44 765 m 0,0,1
 95 765 95 765 249 765 c 0,2,3
 255 765 255 765 261 752 c 1,4,5
 261 626 261 626 261 374 c 1,6,7
 262 374 262 374 265 374 c 0,8,9
 316 447 316 447 470 667 c 0,10,11
 471 671 471 671 472 681 c 0,12,13
 472 721 472 721 420 743 c 0,14,15
 420 745 420 745 420 748 c 0,16,17
 427 765 427 765 450 765 c 0,18,19
 528 765 528 765 683 765 c 0,20,21
 713 765 713 765 713 739 c 1,22,23
 635 723 635 723 597 664 c 0,24,25
 548 593 548 593 450 451 c 1,26,27
 653 70 653 70 684 45 c 1,28,29
 722 6 722 6 779 -27 c 0,30,31
 779 -29 779 -29 779 -32 c 0,32,33
 777 -41 777 -41 767 -44 c 0,34,35
 739 -45 739 -45 684 -46 c 0,36,37
 677 -46 677 -46 669 -46 c 0,38,39
 556 -46 556 -46 486 46 c 1,40,41
 438 134 438 134 342 309 c 1,42,43
 342 309 342 309 341 309 c 0,44,45
 321 284 321 284 261 209 c 1,46,47
 261 185 261 185 261 115 c 0,48,49
 261 -17 261 -17 94 -44 c 0,50,51
 93 -41 93 -41 90 -36 c 0,52,53
 90 113 90 113 90 558 c 0,54,55
 90 721 90 721 15 739 c 0,56,57
 15 740 15 740 15 743 c 0,58,59
 21 765 21 765 44 765 c 0,0,1
94 -44 m 256,60,61
 90 -44 90 -44 90 -40 c 256,62,63
 90 -36 90 -36 90 -32 c 1,64,65
 98 -36 98 -36 98 -40 c 256,66,67
 98 -44 98 -44 94 -44 c 256,60,61
EndSplineSet
EndChar

StartChar: L
Encoding: 76 76 47
Width: 604
GlyphClass: 1
Flags: W
LayerCount: 2
Fore
SplineSet
45 755 m 0,0,1
 94 755 94 755 242 755 c 0,2,3
 265 755 265 755 264 732 c 0,4,5
 264 513 264 513 264 75 c 0,6,7
 264 52 264 52 286 52 c 0,8,9
 398 52 398 52 621 52 c 0,10,11
 633 51 633 51 633 39 c 2,12,13
 633 39 633 39 633 38 c 0,14,15
 626 8 626 8 590 -20 c 0,16,17
 554 -47 554 -47 478 -47 c 0,18,19
 362 -47 362 -47 131 -47 c 0,20,21
 87 -47 87 -47 87 -6 c 0,22,23
 87 201 87 201 87 614 c 0,24,25
 87 690 87 690 16 733 c 0,26,27
 16 735 16 735 16 738 c 0,28,29
 22 755 22 755 45 755 c 0,0,1
EndSplineSet
EndChar

StartChar: M
Encoding: 77 77 48
Width: 983
GlyphClass: 1
Flags: W
LayerCount: 2
Fore
SplineSet
44 764 m 0,0,1
 100 764 100 764 269 764 c 0,2,3
 272 764 272 764 275 764 c 0,4,5
 299 765 299 765 310 744 c 0,6,7
 507 278 507 278 507 261 c 1,8,9
 508 261 508 261 511 261 c 0,10,11
 677 712 677 712 702 756 c 1,12,13
 713 765 713 765 728 764 c 0,14,15
 782 764 782 764 889 764 c 0,16,17
 894 764 894 764 902 752 c 1,18,19
 902 486 902 486 902 -47 c 1,20,21
 815 -48 815 -48 770 -18 c 0,22,23
 724 11 724 11 724 65 c 0,24,25
 724 214 724 214 724 513 c 1,26,27
 723 513 723 513 719 513 c 0,28,29
 671 379 671 379 525 -22 c 1,30,31
 518 -23 518 -23 498 -24 c 0,32,33
 436 -24 436 -24 412 15 c 1,34,35
 319 266 319 266 210 542 c 0,36,37
 209 542 209 542 206 542 c 1,38,39
 206 423 206 423 206 65 c 0,40,41
 206 -11 206 -11 133 -39 c 0,42,43
 108 -47 108 -47 99 -47 c 0,44,45
 97 -47 97 -47 96 -47 c 0,46,47
 94 -44 94 -44 91 -39 c 0,48,49
 91 123 91 123 91 609 c 0,50,51
 91 704 91 704 14 742 c 1,52,53
 19 764 19 764 44 764 c 0,0,1
95 -47 m 0,54,55
 91 -47 91 -47 91 -43 c 256,56,57
 91 -39 91 -39 91 -35 c 1,58,59
 99 -39 99 -39 99 -43 c 0,60,61
 99 -48 99 -48 95 -47 c 0,54,55
EndSplineSet
EndChar

StartChar: N
Encoding: 78 78 49
Width: 840
GlyphClass: 1
Flags: W
LayerCount: 2
Fore
SplineSet
46 764 m 0,0,1
 97 764 97 764 250 764 c 0,2,3
 251 764 251 764 253 764 c 0,4,5
 287 764 287 764 302 738 c 0,6,7
 413 582 413 582 634 270 c 1,8,9
 634 354 634 354 634 606 c 0,10,11
 634 704 634 704 557 742 c 1,12,13
 563 764 563 764 587 764 c 0,14,15
 663 764 663 764 816 764 c 1,16,17
 828 760 828 760 834 748 c 0,18,19
 834 745 834 745 834 738 c 1,20,21
 756 720 756 720 753 620 c 0,22,23
 753 402 753 402 753 -33 c 0,24,25
 752 -45 752 -45 735 -50 c 1,26,27
 713 -50 713 -50 670 -50 c 0,28,29
 626 -50 626 -50 596 -5 c 0,30,31
 468 185 468 185 212 564 c 1,32,33
 212 445 212 445 212 86 c 0,34,35
 212 -15 212 -15 135 -46 c 0,36,37
 103 -55 103 -55 96 -55 c 0,38,39
 95 -52 95 -52 92 -46 c 0,40,41
 92 117 92 117 92 606 c 0,42,43
 92 704 92 704 15 742 c 1,44,45
 22 764 22 764 46 764 c 0,0,1
96 -55 m 0,46,47
 92 -55 92 -55 92 -47 c 0,48,49
 92 -40 92 -40 96 -40 c 0,50,51
 102 -40 102 -40 102 -47 c 0,52,53
 102 -55 102 -55 96 -55 c 0,46,47
EndSplineSet
EndChar

StartChar: O
Encoding: 79 79 50
Width: 819
GlyphClass: 1
Flags: W
LayerCount: 2
Fore
SplineSet
15 361 m 256,0,1
 15 457 15 457 44 534 c 0,2,3
 74 611 74 611 125 664 c 0,4,5
 176 718 176 718 247 746 c 256,6,7
 318 774 318 774 402 774 c 256,8,9
 486 774 486 774 558 746 c 0,10,11
 629 718 629 718 680 664 c 0,12,13
 731 611 731 611 761 534 c 0,14,15
 790 458 790 458 790 361 c 0,16,17
 790 265 790 265 761 188 c 0,18,19
 731 112 731 112 680 58 c 0,20,21
 629 5 629 5 558 -23 c 0,22,23
 486 -51 486 -51 402 -51 c 256,24,25
 318 -51 318 -51 247 -23 c 256,26,27
 176 5 176 5 125 58 c 0,28,29
 74 112 74 112 44 188 c 0,30,31
 15 265 15 265 15 361 c 256,0,1
599 361 m 256,32,33
 599 435 599 435 584 493 c 0,34,35
 570 551 570 551 544 592 c 0,36,37
 519 633 519 633 483 654 c 0,38,39
 446 676 446 676 402 676 c 256,40,41
 358 676 358 676 322 654 c 0,42,43
 286 633 286 633 260 592 c 256,44,45
 234 551 234 551 220 493 c 256,46,47
 206 435 206 435 206 361 c 256,48,49
 206 287 206 287 220 230 c 0,50,51
 234 172 234 172 260 131 c 256,52,53
 286 90 286 90 322 68 c 0,54,55
 358 47 358 47 402 47 c 256,56,57
 446 47 446 47 483 68 c 0,58,59
 519 90 519 90 544 131 c 0,60,61
 570 172 570 172 584 230 c 0,62,63
 599 287 599 287 599 361 c 256,32,33
EndSplineSet
EndChar

StartChar: P
Encoding: 80 80 51
Width: 686
GlyphClass: 1
Flags: W
LayerCount: 2
Fore
SplineSet
47 762 m 0,0,1
 118 762 118 762 332 762 c 0,2,3
 672 762 672 762 672 511 c 0,4,5
 672 320 672 320 472 269 c 1,6,7
 390 254 390 254 268 260 c 1,8,9
 268 210 268 210 268 109 c 0,10,11
 268 -12 268 -12 104 -61 c 1,12,13
 88 -60 88 -60 90 -45 c 0,14,15
 90 177 90 177 90 622 c 0,16,17
 90 699 90 699 17 736 c 0,18,19
 17 739 17 739 17 744 c 0,20,21
 24 762 24 762 47 762 c 0,0,1
268 665 m 1,22,23
 268 588 268 588 268 358 c 1,24,25
 288 358 288 358 349 358 c 0,26,27
 497 358 497 358 498 511 c 0,28,29
 498 665 498 665 345 665 c 0,30,31
 319 665 319 665 268 665 c 1,22,23
EndSplineSet
EndChar

StartChar: Q
Encoding: 81 81 52
Width: 819
GlyphClass: 1
Flags: W
LayerCount: 2
Fore
SplineSet
411 779 m 1,0,1
 660 777 660 777 760 528 c 0,2,3
 786 462 786 462 786 369 c 0,4,5
 786 366 786 366 786 362 c 0,6,7
 786 109 786 109 579 -1 c 1,8,9
 631 -116 631 -116 706 -176 c 1,10,11
 742 -199 742 -199 763 -207 c 1,12,13
 761 -217 761 -217 743 -222 c 1,14,15
 721 -222 721 -222 676 -222 c 0,16,17
 485 -222 485 -222 396 -40 c 1,18,19
 391 -40 391 -40 380 -40 c 0,20,21
 16 27 16 27 15 379 c 1,22,23
 41 771 41 771 411 779 c 1,0,1
210 375 m 1,24,25
 228 61 228 61 409 57 c 0,26,27
 578 57 578 57 591 378 c 1,28,29
 572 668 572 668 407 682 c 1,30,31
 232 667 232 667 210 375 c 1,24,25
EndSplineSet
EndChar

StartChar: R
Encoding: 82 82 53
Width: 737
GlyphClass: 1
Flags: W
LayerCount: 2
Fore
SplineSet
36 763 m 1,0,1
 119 763 119 763 367 763 c 1,2,3
 624 755 624 755 646 549 c 0,4,5
 662 369 662 369 512 321 c 0,6,7
 512 319 512 319 512 316 c 1,8,9
 552 316 552 316 624 130 c 1,10,11
 692 -8 692 -8 781 -31 c 0,12,13
 781 -34 781 -34 781 -39 c 0,14,15
 780 -46 780 -46 768 -51 c 1,16,17
 740 -51 740 -51 683 -51 c 0,18,19
 502 -51 502 -51 440 118 c 0,20,21
 379 295 379 295 325 295 c 0,22,23
 309 295 309 295 278 295 c 0,24,25
 275 295 275 295 265 295 c 1,26,27
 265 294 265 294 264 291 c 0,28,29
 264 244 264 244 264 101 c 0,30,31
 264 -29 264 -29 98 -54 c 0,32,33
 90 -54 90 -54 90 -46 c 0,34,35
 90 174 90 174 90 615 c 0,36,37
 90 705 90 705 18 732 c 1,38,39
 18 737 18 737 18 746 c 0,40,41
 22 759 22 759 36 763 c 1,0,1
264 665 m 1,42,43
 264 599 264 599 264 402 c 1,44,45
 282 402 282 402 338 402 c 0,46,47
 468 402 468 402 468 542 c 1,48,49
 454 665 454 665 362 665 c 0,50,51
 329 665 329 665 264 665 c 1,42,43
EndSplineSet
EndChar

StartChar: S
Encoding: 83 83 54
Width: 614
GlyphClass: 1
Flags: W
LayerCount: 2
Fore
SplineSet
513 793 m 0,0,1
 514 793 514 793 517 793 c 0,2,3
 525 792 525 792 526 781 c 0,4,5
 538 701 538 701 563 541 c 0,6,7
 563 528 563 528 552 527 c 0,8,9
 536 527 536 527 504 527 c 0,10,11
 490 526 490 526 484 539 c 0,12,13
 412 658 412 658 290 667 c 1,14,15
 194 667 194 667 194 579 c 0,16,17
 194 504 194 504 385 424 c 0,18,19
 589 341 589 341 598 176 c 0,20,21
 598 171 598 171 598 165 c 0,22,23
 598 -47 598 -47 306 -52 c 0,24,25
 304 -52 304 -52 301 -52 c 0,26,27
 119 -52 119 -52 20 110 c 0,28,29
 18 115 18 115 18 119 c 0,30,31
 18 124 18 124 20 127 c 0,32,33
 32 140 32 140 57 167 c 1,34,35
 70 171 70 171 79 160 c 0,36,37
 174 48 174 48 302 44 c 1,38,39
 437 44 437 44 437 137 c 1,40,41
 432 191 432 191 243 293 c 1,42,43
 85 390 85 390 45 487 c 0,44,45
 28 529 28 529 36 596 c 1,46,47
 82 767 82 767 308 764 c 0,48,49
 396 760 396 760 462 725 c 1,50,51
 498 740 498 740 513 793 c 0,0,1
EndSplineSet
EndChar

StartChar: T
Encoding: 84 84 55
Width: 696
GlyphClass: 1
Flags: W
LayerCount: 2
Fore
SplineSet
684 762 m 0,0,1
 691 761 691 761 694 755 c 0,2,3
 703 718 703 718 720 644 c 1,4,5
 718 630 718 630 706 630 c 1,6,7
 692 662 692 662 644 665 c 0,8,9
 588 665 588 665 475 665 c 1,10,11
 475 520 475 520 475 86 c 1,12,13
 479 10 479 10 412 -21 c 0,14,15
 344 -52 344 -52 289 -56 c 1,16,17
 286 -52 286 -52 280 -44 c 1,18,19
 280 133 280 133 280 665 c 1,20,21
 237 665 237 665 109 665 c 0,22,23
 65 663 65 663 51 630 c 0,24,25
 49 630 49 630 46 630 c 0,26,27
 35 633 35 633 33 647 c 1,28,29
 39 683 39 683 50 756 c 0,30,31
 52 762 52 762 58 762 c 0,32,33
 267 762 267 762 684 762 c 0,0,1
289 -56 m 0,34,35
 280 -56 280 -56 280 -43 c 256,36,37
 280 -30 280 -30 289 -30 c 0,38,39
 297 -30 297 -30 297 -43 c 256,40,41
 297 -56 297 -56 289 -56 c 0,34,35
EndSplineSet
EndChar

StartChar: U
Encoding: 85 85 56
Width: 829
GlyphClass: 1
Flags: W
LayerCount: 2
Fore
SplineSet
41 764 m 0,0,1
 116 764 116 764 340 764 c 0,2,3
 362 763 362 763 361 738 c 1,4,5
 286 739 286 739 279 609 c 1,6,7
 279 498 279 498 279 275 c 0,8,9
 279 64 279 64 449 65 c 0,10,11
 450 65 450 65 453 65 c 0,12,13
 590 65 590 65 617 211 c 1,14,15
 617 353 617 353 617 636 c 0,16,17
 617 715 617 715 544 745 c 1,18,19
 546 760 546 760 561 764 c 1,20,21
 643 764 643 764 807 764 c 1,22,23
 825 759 825 759 825 742 c 0,24,25
 825 740 825 740 825 738 c 1,26,27
 747 738 747 738 742 609 c 1,28,29
 742 475 742 475 742 207 c 0,30,31
 742 9 742 9 490 -40 c 0,32,33
 460 -46 460 -46 430 -46 c 0,34,35
 426 -46 426 -46 422 -46 c 0,36,37
 185 -46 185 -46 115 130 c 0,38,39
 98 167 98 167 97 237 c 0,40,41
 97 370 97 370 97 636 c 1,42,43
 91 728 91 728 24 743 c 1,44,45
 24 762 24 762 41 764 c 0,0,1
EndSplineSet
EndChar

StartChar: V
Encoding: 86 86 57
Width: 788
GlyphClass: 1
Flags: W
LayerCount: 2
Fore
SplineSet
28 762 m 0,0,1
 95 762 95 762 297 762 c 0,2,3
 321 762 321 762 330 737 c 1,4,5
 285 733 285 733 276 680 c 1,6,7
 433 178 433 178 443 178 c 1,8,9
 499 344 499 344 611 676 c 1,10,11
 611 713 611 713 558 737 c 1,12,13
 566 762 566 762 591 762 c 0,14,15
 655 762 655 762 782 762 c 0,16,17
 811 762 811 762 811 732 c 1,18,19
 738 715 738 715 718 676 c 1,20,21
 637 439 637 439 475 -34 c 1,22,23
 451 -45 451 -45 423 -46 c 0,24,25
 421 -46 421 -46 420 -46 c 0,26,27
 341 -46 341 -46 312 47 c 1,28,29
 106 610 106 610 76 680 c 1,30,31
 32 732 32 732 -5 732 c 1,32,33
 -5 735 -5 735 -5 741 c 0,34,35
 5 762 5 762 28 762 c 0,0,1
EndSplineSet
EndChar

StartChar: W
Encoding: 87 87 58
Width: 1065
GlyphClass: 1
Flags: W
LayerCount: 2
Fore
SplineSet
23 742 m 0,0,1
 94 742 94 742 308 742 c 0,2,3
 309 742 309 742 311 742 c 0,4,5
 333 742 333 742 338 723 c 1,6,7
 338 723 338 723 337 723 c 0,8,9
 264 694 264 694 275 648 c 0,10,11
 313 511 313 511 388 238 c 0,12,13
 389 238 389 238 392 238 c 0,14,15
 431 353 431 353 548 698 c 0,16,17
 551 707 551 707 561 709 c 0,18,19
 585 709 585 709 634 709 c 0,20,21
 645 709 645 709 649 697 c 0,22,23
 696 548 696 548 790 251 c 0,24,25
 791 251 791 251 795 251 c 0,26,27
 813 348 813 348 867 639 c 0,28,29
 867 646 867 646 867 667 c 0,30,31
 863 705 863 705 820 714 c 1,32,33
 824 741 824 741 856 742 c 0,34,35
 923 742 923 742 1057 742 c 0,36,37
 1084 740 1084 740 1090 718 c 0,38,39
 1090 717 1090 717 1090 714 c 0,40,41
 1033 698 1033 698 1010 646 c 1,42,43
 963 418 963 418 869 -39 c 1,44,45
 860 -57 860 -57 845 -56 c 0,46,47
 811 -56 811 -56 744 -57 c 0,48,49
 719 -57 719 -57 712 -31 c 0,50,51
 663 116 663 116 566 411 c 0,52,53
 565 411 565 411 563 411 c 0,54,55
 527 304 527 304 419 -18 c 0,56,57
 410 -57 410 -57 383 -56 c 0,58,59
 359 -56 359 -56 311 -56 c 0,60,61
 288 -57 288 -57 283 -28 c 0,62,63
 214 199 214 199 77 653 c 1,64,65
 49 704 49 704 -12 709 c 0,66,67
 -12 712 -12 712 -12 718 c 0,68,69
 -5 742 -5 742 23 742 c 0,0,1
EndSplineSet
EndChar

StartChar: X
Encoding: 88 88 59
Width: 737
GlyphClass: 1
Flags: W
LayerCount: 2
Fore
SplineSet
38 761 m 0,0,1
 91 761 91 761 248 761 c 0,2,3
 261 761 261 761 270 745 c 0,4,5
 318 663 318 663 413 499 c 1,6,7
 439 544 439 544 517 679 c 1,8,9
 531 724 531 724 471 739 c 0,10,11
 471 740 471 740 471 743 c 0,12,13
 475 756 475 756 487 761 c 1,14,15
 566 761 566 761 725 761 c 1,16,17
 741 752 741 752 741 735 c 1,18,19
 687 729 687 729 654 675 c 0,20,21
 593 579 593 579 471 387 c 1,22,23
 526 296 526 296 692 23 c 1,24,25
 717 -9 717 -9 751 -19 c 0,26,27
 755 -20 755 -20 763 -22 c 0,28,29
 763 -24 763 -24 763 -30 c 0,30,31
 756 -46 756 -46 733 -46 c 0,32,33
 678 -46 678 -46 567 -46 c 0,34,35
 562 -46 562 -46 557 -46 c 0,36,37
 519 -47 519 -47 505 -26 c 0,38,39
 452 63 452 63 346 241 c 1,40,41
 300 178 300 178 163 -10 c 0,42,43
 141 -45 141 -45 71 -46 c 0,44,45
 23 -44 23 -44 27 -31 c 0,46,47
 28 -29 28 -29 29 -25 c 0,48,49
 93 69 93 69 284 352 c 1,50,51
 236 434 236 434 91 678 c 0,52,53
 55 735 55 735 9 739 c 1,54,55
 14 761 14 761 38 761 c 0,0,1
EndSplineSet
EndChar

StartChar: Y
Encoding: 89 89 60
Width: 686
GlyphClass: 1
Flags: W
LayerCount: 2
Fore
SplineSet
7 762 m 1,0,1
 82 762 82 762 305 762 c 0,2,3
 316 759 316 759 317 750 c 0,4,5
 317 748 317 748 317 745 c 0,6,7
 263 715 263 715 268 685 c 0,8,9
 268 666 268 666 402 421 c 1,10,11
 449 509 449 509 542 686 c 1,12,13
 556 727 556 727 493 745 c 1,14,15
 495 757 495 757 509 762 c 1,16,17
 582 762 582 762 729 762 c 1,18,19
 745 757 745 757 745 745 c 0,20,21
 745 744 745 744 745 741 c 0,22,23
 683 725 683 725 653 680 c 1,24,25
 587 552 587 552 456 296 c 1,26,27
 456 255 456 255 456 132 c 0,28,29
 456 -12 456 -12 326 -46 c 0,30,31
 311 -50 311 -50 293 -50 c 0,32,33
 292 -50 292 -50 289 -50 c 0,34,35
 281 -50 281 -50 281 -42 c 0,36,37
 281 70 281 70 281 295 c 1,38,39
 228 395 228 395 69 693 c 1,40,41
 37 728 37 728 -9 737 c 0,42,43
 -9 740 -9 740 -9 745 c 0,44,45
 -7 757 -7 757 7 762 c 1,0,1
EndSplineSet
EndChar

StartChar: Z
Encoding: 90 90 61
Width: 676
GlyphClass: 1
Flags: W
LayerCount: 2
Fore
SplineSet
631 762 m 0,0,1
 644 760 644 760 647 744 c 0,2,3
 647 740 647 740 647 731 c 1,4,5
 560 567 560 567 299 76 c 0,6,7
 299 75 299 75 299 73 c 1,8,9
 367 73 367 73 572 73 c 0,10,11
 628 73 628 73 653 113 c 1,12,13
 668 109 668 109 670 95 c 1,14,15
 650 -2 650 -2 638 -34 c 0,16,17
 632 -42 632 -42 620 -42 c 0,18,19
 423 -42 423 -42 29 -42 c 1,20,21
 16 -37 16 -37 16 -25 c 0,22,23
 16 -20 16 -20 18 -14 c 0,24,25
 140 211 140 211 384 662 c 1,26,27
 383 662 383 662 380 662 c 0,28,29
 328 662 328 662 172 662 c 0,30,31
 91 660 91 660 61 618 c 0,32,33
 60 618 60 618 57 618 c 0,34,35
 42 620 42 620 44 637 c 0,36,37
 57 719 57 719 66 754 c 0,38,39
 70 762 70 762 78 762 c 0,40,41
 262 762 262 762 631 762 c 0,0,1
EndSplineSet
EndChar

StartChar: bracketleft
Encoding: 91 91 62
Width: 451
GlyphClass: 1
Flags: W
LayerCount: 2
Fore
SplineSet
139 831 m 0,0,1
 204 831 204 831 398 831 c 0,2,3
 421 832 421 832 424 813 c 0,4,5
 424 794 424 794 424 757 c 0,6,7
 423 734 423 734 399 732 c 0,8,9
 359 732 359 732 280 732 c 1,10,11
 280 531 280 531 280 -72 c 1,12,13
 309 -72 309 -72 396 -72 c 0,14,15
 423 -69 423 -69 424 -89 c 0,16,17
 424 -108 424 -108 424 -147 c 0,18,19
 424 -148 424 -148 424 -148 c 2,20,21
 424 -166 424 -166 399 -166 c 0,22,23
 398 -166 398 -166 396 -166 c 0,24,25
 311 -166 311 -166 140 -166 c 0,26,27
 114 -167 114 -167 113 -143 c 0,28,29
 113 176 113 176 113 813 c 0,30,31
 114 831 114 831 135 831 c 0,32,33
 137 831 137 831 139 831 c 0,0,1
EndSplineSet
EndChar

StartChar: backslash
Encoding: 92 92 63
Width: 389
GlyphClass: 1
Flags: W
LayerCount: 2
Fore
SplineSet
10 728 m 0,0,1
 38 728 38 728 122 728 c 0,2,3
 141 728 141 728 145 711 c 0,4,5
 214 456 214 456 351 -53 c 1,6,7
 347 -64 347 -64 336 -66 c 0,8,9
 299 -66 299 -66 226 -65 c 0,10,11
 197 -62 197 -62 190 -25 c 0,12,13
 126 219 126 219 -3 707 c 0,14,15
 -3 710 -3 710 -3 712 c 0,16,17
 -4 726 -4 726 10 728 c 0,0,1
EndSplineSet
EndChar

StartChar: bracketright
Encoding: 93 93 64
Width: 451
GlyphClass: 1
Flags: W
LayerCount: 2
Fore
SplineSet
323 -166 m 0,0,1
 258 -166 258 -166 63 -166 c 0,2,3
 40 -167 40 -167 38 -147 c 0,4,5
 38 -128 38 -128 38 -91 c 0,6,7
 39 -68 39 -68 61 -67 c 0,8,9
 101 -67 101 -67 182 -67 c 1,10,11
 182 134 182 134 182 736 c 1,12,13
 153 736 153 736 65 736 c 0,14,15
 39 733 39 733 38 754 c 0,16,17
 38 773 38 773 38 812 c 0,18,19
 38 813 38 813 38 813 c 2,20,21
 38 832 38 832 59 831 c 0,22,23
 62 831 62 831 65 831 c 0,24,25
 151 831 151 831 322 831 c 0,26,27
 348 832 348 832 349 808 c 0,28,29
 349 489 349 489 349 -148 c 0,30,31
 348 -166 348 -166 327 -166 c 0,32,33
 325 -166 325 -166 323 -166 c 0,0,1
EndSplineSet
EndChar

StartChar: asciicircum
Encoding: 94 94 65
Width: 594
GlyphClass: 1
Flags: W
LayerCount: 2
Fore
SplineSet
312 809 m 0,0,1
 313 809 313 809 314 809 c 0,2,3
 330 809 330 809 340 790 c 0,4,5
 398 701 398 701 515 523 c 0,6,7
 517 518 517 518 517 515 c 0,8,9
 517 508 517 508 509 506 c 0,10,11
 478 506 478 506 415 507 c 0,12,13
 387 508 387 508 377 530 c 0,14,15
 302 649 302 649 300 654 c 1,16,17
 300 654 300 654 300 654 c 1,18,19
 279 623 279 623 218 528 c 0,20,21
 205 504 205 504 182 507 c 0,22,23
 146 506 146 506 103 506 c 0,24,25
 100 506 100 506 94 506 c 0,26,27
 86 506 86 506 84 518 c 1,28,29
 143 609 143 609 262 790 c 0,30,31
 270 806 270 806 287 809 c 0,32,33
 295 809 295 809 312 809 c 0,0,1
EndSplineSet
EndChar

StartChar: underscore
Encoding: 95 95 66
Width: 604
GlyphClass: 1
Flags: W
LayerCount: 2
Fore
SplineSet
60 1 m 0,0,1
 182 1 182 1 549 1 c 0,2,3
 566 1 566 1 566 -10 c 0,4,5
 566 -40 566 -40 566 -99 c 0,6,7
 565 -111 565 -111 550 -111 c 0,8,9
 387 -111 387 -111 60 -111 c 0,10,11
 47 -111 47 -111 47 -98 c 0,12,13
 47 -69 47 -69 47 -10 c 0,14,15
 47 0 47 0 60 1 c 0,0,1
EndSplineSet
EndChar

StartChar: grave
Encoding: 96 96 67
Width: 451
GlyphClass: 1
Flags: W
LayerCount: 2
Fore
SplineSet
103 785 m 1,0,1
 141 785 141 785 256 785 c 0,2,3
 282 785 282 785 289 763 c 0,4,5
 314 674 314 674 365 495 c 0,6,7
 366 494 366 494 366 493 c 0,8,9
 366 487 366 487 357 485 c 0,10,11
 265 488 265 488 226 548 c 1,12,13
 192 612 192 612 124 739 c 0,14,15
 113 765 113 765 87 766 c 0,16,17
 87 767 87 767 87 770 c 0,18,19
 89 781 89 781 103 785 c 1,0,1
EndSplineSet
EndChar

StartChar: a
Encoding: 97 97 68
Width: 573
GlyphClass: 1
Flags: W
LayerCount: 2
Fore
SplineSet
261 41 m 0,0,1
 300 41 300 41 326 63 c 0,2,3
 351 85 351 85 351 122 c 256,4,5
 351 159 351 159 351 234 c 1,6,7
 333 231 333 231 311 225 c 0,8,9
 290 219 290 219 270 211 c 0,10,11
 231 197 231 197 212 170 c 0,12,13
 194 143 194 143 194 111 c 0,14,15
 194 77 194 77 211 59 c 0,16,17
 229 41 229 41 261 41 c 0,0,1
292 534 m 0,18,19
 459 534 459 534 505 407 c 0,20,21
 515 380 515 380 517 340 c 0,22,23
 517 281 517 281 517 164 c 0,24,25
 517 -3 517 -3 577 -23 c 0,26,27
 587 -23 587 -23 587 -30 c 0,28,29
 587 -31 587 -31 587 -34 c 0,30,31
 587 -40 587 -40 577 -46 c 1,32,33
 548 -46 548 -46 489 -46 c 0,34,35
 412 -46 412 -46 386 34 c 0,36,37
 386 35 386 35 386 37 c 1,38,39
 385 37 385 37 382 37 c 0,40,41
 335 -50 335 -50 228 -50 c 0,42,43
 33 -49 33 -49 34 105 c 0,44,45
 35 268 35 268 350 315 c 1,46,47
 350 328 350 328 350 355 c 0,48,49
 349 443 349 443 280 451 c 0,50,51
 273 451 273 451 260 451 c 0,52,53
 185 438 185 438 181 352 c 0,54,55
 181 335 181 335 169 336 c 0,56,57
 136 336 136 336 70 336 c 0,58,59
 62 335 62 335 58 347 c 0,60,61
 58 354 58 354 58 368 c 0,62,63
 58 482 58 482 201 522 c 0,64,65
 241 534 241 534 292 534 c 0,18,19
EndSplineSet
EndChar

StartChar: b
Encoding: 98 98 69
Width: 635
GlyphClass: 1
Flags: W
LayerCount: 2
Fore
SplineSet
233 793 m 1,0,1
 244 791 244 791 245 777 c 0,2,3
 245 680 245 680 245 485 c 1,4,5
 299 531 299 531 368 531 c 0,6,7
 376 531 376 531 391 531 c 0,8,9
 544 531 544 531 603 355 c 1,10,11
 616 294 616 294 616 236 c 0,12,13
 616 33 616 33 458 -33 c 1,14,15
 400 -49 400 -49 348 -49 c 0,16,17
 267 -49 267 -49 106 -49 c 0,18,19
 84 -49 84 -49 79 -33 c 1,20,21
 79 181 79 181 79 610 c 0,22,23
 79 693 79 693 12 730 c 0,24,25
 12 732 12 732 12 737 c 0,26,27
 13 743 13 743 22 748 c 0,28,29
 92 763 92 763 233 793 c 1,0,1
245 397 m 1,30,31
 245 310 245 310 245 51 c 0,32,33
 246 40 246 40 257 39 c 0,34,35
 278 39 278 39 319 39 c 0,36,37
 442 39 442 39 442 208 c 0,38,39
 442 230 442 230 442 275 c 0,40,41
 442 379 442 379 391 425 c 0,42,43
 375 438 375 438 339 445 c 1,44,45
 281 445 281 445 245 397 c 1,30,31
EndSplineSet
EndChar

StartChar: c
Encoding: 99 99 70
Width: 594
GlyphClass: 1
Flags: W
LayerCount: 2
Fore
SplineSet
325 521 m 0,0,1
 537 521 537 521 572 351 c 0,2,3
 576 322 576 322 577 304 c 0,4,5
 577 302 577 302 577 301 c 0,6,7
 577 286 577 286 565 284 c 0,8,9
 530 284 530 284 461 284 c 1,10,11
 453 288 453 288 451 298 c 0,12,13
 436 429 436 429 325 431 c 1,14,15
 202 418 202 418 200 223 c 0,16,17
 200 77 200 77 320 44 c 0,18,19
 439 12 439 12 525 97 c 0,20,21
 532 99 532 99 539 96 c 0,22,23
 553 86 553 86 566 68 c 0,24,25
 573 61 573 61 569 51 c 0,26,27
 481 -63 481 -63 321 -62 c 0,28,29
 154 -59 154 -59 88 34 c 0,30,31
 28 117 28 117 28 219 c 0,32,33
 28 230 28 230 29 241 c 0,34,35
 55 517 55 517 325 521 c 0,0,1
EndSplineSet
EndChar

StartChar: d
Encoding: 100 100 71
Width: 645
GlyphClass: 1
Flags: W
LayerCount: 2
Fore
SplineSet
558 794 m 0,0,1
 560 794 560 794 567 794 c 0,2,3
 577 792 577 792 580 782 c 0,4,5
 580 515 580 515 580 -20 c 0,6,7
 580 -52 580 -52 547 -52 c 0,8,9
 450 -52 450 -52 256 -52 c 0,10,11
 113 -52 113 -52 50 119 c 1,12,13
 39 174 39 174 39 210 c 0,14,15
 39 227 39 227 39 262 c 0,16,17
 39 449 39 449 185 516 c 1,18,19
 230 531 230 531 276 531 c 0,20,21
 360 531 360 531 412 484 c 1,22,23
 412 528 412 528 412 615 c 0,24,25
 412 688 412 688 344 731 c 0,26,27
 344 732 344 732 344 734 c 0,28,29
 344 753 344 753 365 756 c 0,30,31
 429 769 429 769 558 794 c 0,0,1
209 229 m 0,32,33
 209 35 209 35 325 36 c 0,34,35
 351 36 351 36 403 36 c 0,36,37
 411 36 411 36 412 43 c 0,38,39
 412 161 412 161 412 397 c 1,40,41
 381 440 381 440 321 440 c 0,42,43
 317 440 317 440 308 440 c 0,44,45
 209 440 209 440 209 229 c 0,32,33
EndSplineSet
EndChar

StartChar: e
Encoding: 101 101 72
Width: 594
GlyphClass: 1
Flags: W
LayerCount: 2
Fore
SplineSet
294 445 m 0,0,1
 258 445 258 445 230 408 c 0,2,3
 203 371 203 371 203 282 c 1,4,5
 271 282 271 282 407 282 c 1,6,7
 410 360 410 360 377 403 c 256,8,9
 344 446 344 446 294 445 c 0,0,1
561 337 m 0,10,11
 575 293 575 293 575 245 c 0,12,13
 575 227 575 227 573 209 c 0,14,15
 574 186 574 186 555 186 c 0,16,17
 439 185 439 185 206 184 c 0,18,19
 199 186 199 186 201 176 c 0,20,21
 202 65 202 65 312 42 c 0,22,23
 423 20 423 20 520 90 c 0,24,25
 523 93 523 93 527 91 c 0,26,27
 539 82 539 82 555 63 c 0,28,29
 561 57 561 57 557 52 c 0,30,31
 458 -60 458 -60 318 -60 c 0,32,33
 307 -60 307 -60 296 -59 c 0,34,35
 105 -52 105 -52 36 130 c 1,36,37
 27 172 27 172 27 206 c 0,38,39
 27 219 27 219 27 246 c 0,40,41
 60 519 60 519 295 522 c 0,42,43
 494 522 494 522 561 337 c 0,10,11
EndSplineSet
EndChar

StartChar: f
Encoding: 102 102 73
Width: 522
GlyphClass: 1
Flags: W
LayerCount: 2
Fore
SplineSet
542 639 m 0,0,1
 542 637 542 637 542 631 c 0,2,3
 541 620 541 620 529 620 c 0,4,5
 496 620 496 620 430 620 c 0,6,7
 422 620 422 620 422 627 c 0,8,9
 423 637 423 637 422 658 c 0,10,11
 418 723 418 723 365 723 c 0,12,13
 362 723 362 723 360 723 c 0,14,15
 296 707 296 707 296 554 c 0,16,17
 296 546 296 546 303 547 c 0,18,19
 493 547 493 547 493 547 c 0,20,21
 501 546 501 546 501 540 c 0,22,23
 496 482 496 482 440 466 c 1,24,25
 392 466 392 466 296 465 c 1,26,27
 296 369 296 369 296 82 c 0,28,29
 296 -33 296 -33 140 -62 c 1,30,31
 133 -60 133 -60 133 -50 c 0,32,33
 135 122 135 122 133 465 c 1,34,35
 108 465 108 465 35 465 c 0,36,37
 25 465 25 465 25 477 c 0,38,39
 25 498 25 498 25 540 c 0,40,41
 25 550 25 550 37 551 c 0,42,43
 69 554 69 554 133 551 c 1,44,45
 161 748 161 748 288 790 c 0,46,47
 542 874 542 874 542 639 c 0,0,1
EndSplineSet
EndChar

StartChar: g
Encoding: 103 103 74
Width: 614
GlyphClass: 1
Flags: W
LayerCount: 2
Fore
SplineSet
379 336 m 256,0,1
 379 392 379 392 358 424 c 256,2,3
 337 456 337 456 299 456 c 256,4,5
 261 456 261 456 240 424 c 256,6,7
 219 392 219 392 219 336 c 256,8,9
 219 280 219 280 240 248 c 256,10,11
 261 216 261 216 299 216 c 256,12,13
 337 216 337 216 358 248 c 256,14,15
 379 280 379 280 379 336 c 256,0,1
463 -143 m 0,16,17
 463 -99 463 -99 422 -80 c 0,18,19
 380 -61 380 -61 316 -61 c 0,20,21
 301 -61 301 -61 282 -61 c 0,22,23
 264 -61 264 -61 245 -60 c 0,24,25
 227 -60 227 -60 210 -60 c 0,26,27
 194 -59 194 -59 181 -58 c 1,28,29
 167 -69 167 -69 160 -91 c 0,30,31
 152 -114 152 -114 152 -143 c 0,32,33
 152 -171 152 -171 166 -188 c 0,34,35
 179 -205 179 -205 201 -214 c 256,36,37
 223 -223 223 -223 252 -226 c 0,38,39
 280 -229 280 -229 308 -229 c 0,40,41
 339 -229 339 -229 367 -225 c 256,42,43
 395 -221 395 -221 416 -211 c 256,44,45
 437 -201 437 -201 450 -184 c 0,46,47
 463 -168 463 -168 463 -143 c 0,16,17
555 600 m 1,48,49
 570 600 570 600 573 582 c 0,50,51
 575 568 575 568 574 552 c 0,52,53
 568 478 568 478 527 434 c 1,54,55
 550 390 550 390 550 339 c 0,56,57
 550 336 550 336 550 330 c 0,58,59
 550 198 550 198 409 152 c 0,60,61
 383 140 383 140 189 137 c 1,62,63
 180 119 180 119 189 100 c 0,64,65
 199 76 199 76 261 77 c 0,66,67
 286 77 286 77 337 77 c 0,68,69
 618 77 618 77 617 -121 c 0,70,71
 617 -260 617 -260 420 -300 c 1,72,73
 359 -308 359 -308 301 -308 c 0,74,75
 300 -308 300 -308 297 -308 c 0,76,77
 35 -308 35 -308 35 -154 c 0,78,79
 35 -85 35 -85 118 -38 c 1,80,81
 56 -9 56 -9 55 69 c 0,82,83
 55 148 55 148 152 193 c 1,84,85
 152 192 152 192 151 191 c 0,86,87
 63 228 63 228 60 321 c 0,88,89
 59 323 59 323 59 346 c 0,90,91
 59 469 59 469 186 517 c 0,92,93
 231 536 231 536 305 537 c 0,94,95
 378 537 378 537 447 517 c 1,96,97
 507 505 507 505 555 600 c 1,48,49
EndSplineSet
EndChar

StartChar: h
Encoding: 104 104 75
Width: 625
GlyphClass: 1
Flags: W
LayerCount: 2
Fore
SplineSet
227 790 m 1,0,1
 242 787 242 787 242 773 c 0,2,3
 242 675 242 675 242 478 c 1,4,5
 296 525 296 525 364 525 c 0,6,7
 374 525 374 525 395 525 c 0,8,9
 538 522 538 522 581 400 c 1,10,11
 588 361 588 361 588 330 c 0,12,13
 588 234 588 234 588 41 c 0,14,15
 588 37 588 37 588 34 c 0,16,17
 588 -33 588 -33 513 -48 c 1,18,19
 448 -48 448 -48 434 -48 c 0,20,21
 433 -48 433 -48 431 -48 c 0,22,23
 423 -48 423 -48 423 -40 c 0,24,25
 423 87 423 87 423 341 c 1,26,27
 417 435 417 435 337 435 c 0,28,29
 259 436 259 436 242 377 c 1,30,31
 242 247 242 247 242 -14 c 0,32,33
 242 -30 242 -30 238 -40 c 0,34,35
 234 -49 234 -49 218 -48 c 0,36,37
 175 -48 175 -48 88 -49 c 0,38,39
 76 -46 76 -46 77 -33 c 0,40,41
 77 188 77 188 77 629 c 0,42,43
 78 686 78 686 9 727 c 0,44,45
 9 728 9 728 9 728 c 2,46,47
 9 738 9 738 23 744 c 0,48,49
 167 779 167 779 227 790 c 1,0,1
EndSplineSet
EndChar

StartChar: i
Encoding: 105 105 76
Width: 338
GlyphClass: 1
Flags: W
LayerCount: 2
Fore
SplineSet
89 700 m 0,0,1
 89 665 89 665 111 639 c 0,2,3
 138 611 138 611 174 609 c 0,4,5
 178 609 178 609 181 609 c 0,6,7
 221 609 221 609 249 639 c 0,8,9
 274 666 274 666 274 700 c 0,10,11
 273 736 273 736 249 763 c 0,12,13
 221 794 221 794 181 795 c 0,14,15
 144 794 144 794 118 769 c 0,16,17
 89 741 89 741 89 700 c 0,0,1
267 528 m 0,18,19
 275 525 275 525 275 519 c 0,20,21
 275 362 275 362 275 47 c 0,22,23
 275 45 275 45 275 43 c 0,24,25
 275 -49 275 -49 135 -49 c 0,26,27
 100 -48 100 -48 100 -37 c 0,28,29
 100 86 100 86 100 332 c 0,30,31
 100 427 100 427 27 462 c 0,32,33
 27 464 27 464 27 465 c 0,34,35
 27 481 27 481 48 484 c 0,36,37
 176 512 176 512 232 522 c 0,38,39
 257 527 257 527 267 528 c 0,18,19
EndSplineSet
EndChar

StartChar: j
Encoding: 106 106 77
Width: 338
GlyphClass: 1
Flags: W
LayerCount: 2
Fore
SplineSet
257 536 m 0,0,1
 268 536 268 536 268 523 c 0,2,3
 268 522 268 522 268 521 c 0,4,5
 268 341 268 341 268 -19 c 0,6,7
 268 -227 268 -227 108 -290 c 1,8,9
 55 -306 55 -306 -18 -310 c 0,10,11
 -29 -309 -29 -309 -29 -301 c 0,12,13
 -29 -299 -29 -299 -28 -295 c 0,14,15
 50 -249 50 -249 71 -216 c 1,16,17
 108 -171 108 -171 108 38 c 0,18,19
 108 119 108 119 108 282 c 0,20,21
 111 439 111 439 20 456 c 1,22,23
 19 483 19 483 43 487 c 0,24,25
 108 502 108 502 237 531 c 0,26,27
 242 533 242 533 257 536 c 0,0,1
82 711 m 0,28,29
 82 676 82 676 103 649 c 0,30,31
 124 627 124 627 153 622 c 0,32,33
 163 620 163 620 174 620 c 0,34,35
 214 620 214 620 242 649 c 0,36,37
 267 676 267 676 267 711 c 0,38,39
 266 747 266 747 242 773 c 0,40,41
 214 804 214 804 174 805 c 0,42,43
 137 804 137 804 111 779 c 0,44,45
 82 752 82 752 82 711 c 0,28,29
EndSplineSet
EndChar

StartChar: k
Encoding: 107 107 78
Width: 645
GlyphClass: 1
Flags: W
LayerCount: 2
Fore
SplineSet
232 788 m 0,0,1
 240 786 240 786 240 777 c 0,2,3
 240 606 240 606 240 263 c 1,4,5
 275 302 275 302 380 418 c 1,6,7
 395 467 395 467 331 488 c 0,8,9
 331 490 331 490 331 493 c 0,10,11
 334 505 334 505 346 508 c 0,12,13
 430 508 430 508 599 508 c 0,14,15
 611 506 611 506 614 493 c 0,16,17
 614 491 614 491 614 488 c 0,18,19
 584 481 584 481 554 454 c 0,20,21
 505 403 505 403 408 300 c 0,22,23
 408 299 408 299 408 295 c 0,24,25
 564 33 564 33 596 7 c 0,26,27
 623 -17 623 -17 659 -29 c 0,28,29
 659 -32 659 -32 659 -37 c 256,30,31
 659 -42 659 -42 648 -48 c 1,32,33
 620 -48 620 -48 565 -48 c 0,34,35
 427 -48 427 -48 367 79 c 1,36,37
 314 169 314 169 301 193 c 1,38,39
 296 193 296 193 240 129 c 0,40,41
 240 123 240 123 240 110 c 0,42,43
 240 -22 240 -22 89 -44 c 0,44,45
 78 -46 78 -46 78 -33 c 0,46,47
 78 190 78 190 78 635 c 0,48,49
 78 691 78 691 13 726 c 0,50,51
 13 727 13 727 13 727 c 2,52,53
 13 744 13 744 34 750 c 0,54,55
 100 763 100 763 232 788 c 0,0,1
EndSplineSet
EndChar

StartChar: l
Encoding: 108 108 79
Width: 369
GlyphClass: 1
Flags: W
LayerCount: 2
Fore
SplineSet
234 772 m 0,0,1
 245 772 245 772 247 760 c 0,2,3
 247 679 247 679 247 516 c 0,4,5
 247 413 247 413 247 106 c 0,6,7
 249 51 249 51 272 36 c 0,8,9
 294 20 294 20 327 24 c 0,10,11
 356 27 356 27 372 28 c 0,12,13
 385 27 385 27 385 10 c 0,14,15
 386 9 386 9 386 9 c 1,16,17
 386 -7 386 -7 372 -17 c 0,18,19
 309 -77 309 -77 247 -78 c 0,20,21
 240 -78 240 -78 227 -78 c 0,22,23
 80 -78 80 -78 80 102 c 0,24,25
 80 274 80 274 80 618 c 0,26,27
 80 671 80 671 13 714 c 0,28,29
 13 715 13 715 13 717 c 0,30,31
 13 718 13 718 13 718 c 2,32,33
 13 731 13 731 29 735 c 0,34,35
 207 770 207 770 234 772 c 0,0,1
EndSplineSet
EndChar

StartChar: m
Encoding: 109 109 80
Width: 942
GlyphClass: 1
Flags: W
LayerCount: 2
Fore
SplineSet
394 521 m 0,0,1
 396 521 396 521 401 521 c 0,2,3
 495 520 495 520 537 449 c 1,4,5
 596 521 596 521 699 519 c 0,6,7
 702 519 702 519 708 519 c 0,8,9
 844 519 844 519 890 412 c 1,10,11
 897 385 897 385 897 365 c 0,12,13
 897 362 897 362 897 360 c 0,14,15
 897 250 897 250 896 30 c 1,16,17
 891 -44 891 -44 787 -54 c 0,18,19
 774 -55 774 -55 762 -54 c 0,20,21
 751 -54 751 -54 740 -54 c 0,22,23
 732 -52 732 -52 733 -42 c 0,24,25
 733 83 733 83 734 333 c 0,26,27
 735 425 735 425 656 429 c 1,28,29
 603 425 603 425 572 369 c 1,30,31
 572 245 572 245 571 -2 c 0,32,33
 574 -50 574 -50 535 -53 c 0,34,35
 498 -53 498 -53 423 -53 c 0,36,37
 415 -52 415 -52 416 -40 c 0,38,39
 416 83 416 83 417 330 c 0,40,41
 418 426 418 426 342 428 c 0,42,43
 285 426 285 426 254 383 c 1,44,45
 254 257 254 257 253 4 c 1,46,47
 257 -52 257 -52 211 -52 c 0,48,49
 105 -52 105 -52 97 -52 c 0,50,51
 87 -50 87 -50 85 -38 c 0,52,53
 86 96 86 96 87 364 c 0,54,55
 87 418 87 418 19 456 c 0,56,57
 19 457 19 457 19 457 c 2,58,59
 19 473 19 473 42 477 c 0,60,61
 158 503 158 503 231 516 c 0,62,63
 244 516 244 516 243 501 c 0,64,65
 243 487 243 487 243 459 c 1,66,67
 296 521 296 521 394 521 c 0,0,1
EndSplineSet
EndChar

StartChar: n
Encoding: 110 110 81
Width: 645
GlyphClass: 1
Flags: W
LayerCount: 2
Fore
SplineSet
393 526 m 1,0,1
 574 516 574 516 600 375 c 0,2,3
 604 334 604 334 604 311 c 0,4,5
 604 225 604 225 605 52 c 0,6,7
 605 47 605 47 605 42 c 0,8,9
 605 -28 605 -28 547 -44 c 0,10,11
 501 -56 501 -56 468 -56 c 0,12,13
 456 -56 456 -56 445 -54 c 0,14,15
 437 -54 437 -54 437 -47 c 0,16,17
 437 74 437 74 437 315 c 0,18,19
 437 430 437 430 350 430 c 0,20,21
 292 430 292 430 255 383 c 1,22,23
 255 259 255 259 255 12 c 0,24,25
 258 -54 258 -54 209 -55 c 0,26,27
 114 -54 114 -54 99 -54 c 0,28,29
 90 -53 90 -53 88 -43 c 0,30,31
 88 91 88 91 88 359 c 0,32,33
 88 417 88 417 19 459 c 0,34,35
 19 460 19 460 19 463 c 0,36,37
 20 475 20 475 38 479 c 0,38,39
 192 513 192 513 234 518 c 0,40,41
 244 518 244 518 247 508 c 0,42,43
 247 486 247 486 247 470 c 1,44,45
 306 526 306 526 393 526 c 1,0,1
EndSplineSet
EndChar

StartChar: o
Encoding: 111 111 82
Width: 635
GlyphClass: 1
Flags: W
LayerCount: 2
Fore
SplineSet
28 234 m 256,0,1
 28 300 28 300 48 354 c 0,2,3
 68 409 68 409 106 447 c 0,4,5
 144 486 144 486 200 508 c 0,6,7
 255 530 255 530 326 530 c 256,8,9
 397 530 397 530 452 508 c 256,10,11
 507 486 507 486 545 447 c 0,12,13
 584 409 584 409 604 354 c 0,14,15
 624 300 624 300 624 234 c 256,16,17
 624 168 624 168 604 114 c 256,18,19
 584 60 584 60 545 21 c 0,20,21
 507 -17 507 -17 452 -39 c 0,22,23
 396 -61 396 -61 326 -61 c 0,24,25
 255 -61 255 -61 200 -39 c 0,26,27
 144 -17 144 -17 106 21 c 0,28,29
 68 60 68 60 48 114 c 256,30,31
 28 168 28 168 28 234 c 256,0,1
202 234 m 256,32,33
 202 137 202 137 234 82 c 0,34,35
 267 28 267 28 326 28 c 0,36,37
 384 28 384 28 417 82 c 0,38,39
 450 137 450 137 450 234 c 256,40,41
 450 331 450 331 417 386 c 256,42,43
 384 441 384 441 326 441 c 256,44,45
 268 441 268 441 235 386 c 256,46,47
 202 331 202 331 202 234 c 256,32,33
EndSplineSet
EndChar

StartChar: p
Encoding: 112 112 83
Width: 645
GlyphClass: 1
Flags: W
LayerCount: 2
Fore
SplineSet
383 531 m 0,0,1
 388 531 388 531 403 531 c 0,2,3
 568 531 568 531 622 336 c 1,4,5
 631 286 631 286 631 252 c 0,6,7
 631 245 631 245 631 232 c 0,8,9
 631 34 631 34 490 -38 c 1,10,11
 433 -54 433 -54 403 -54 c 0,12,13
 395 -54 395 -54 380 -54 c 0,14,15
 302 -54 302 -54 256 -6 c 1,16,17
 256 -55 256 -55 256 -154 c 0,18,19
 256 -263 256 -263 145 -301 c 0,20,21
 129 -308 129 -308 100 -308 c 0,22,23
 99 -308 99 -308 97 -308 c 0,24,25
 89 -308 89 -308 89 -301 c 0,26,27
 89 -82 89 -82 89 355 c 0,28,29
 89 428 89 428 22 464 c 0,30,31
 22 466 22 466 22 471 c 0,32,33
 27 482 27 482 40 485 c 0,34,35
 212 522 212 522 240 527 c 1,36,37
 249 523 249 523 248 516 c 0,38,39
 248 481 248 481 248 474 c 1,40,41
 308 531 308 531 383 531 c 0,0,1
256 396 m 1,42,43
 256 317 256 317 256 81 c 1,44,45
 295 34 295 34 351 34 c 0,46,47
 439 34 439 34 455 194 c 0,48,49
 455 216 455 216 455 261 c 0,50,51
 455 399 455 399 383 435 c 0,52,53
 375 436 375 436 359 439 c 0,54,55
 353 439 353 439 336 439 c 0,56,57
 291 439 291 439 256 396 c 1,42,43
EndSplineSet
EndChar

StartChar: q
Encoding: 113 113 84
Width: 655
GlyphClass: 1
Flags: W
LayerCount: 2
Fore
SplineSet
638 488 m 0,0,1
 570 442 570 442 570 381 c 0,2,3
 570 202 570 202 570 -155 c 0,4,5
 570 -263 570 -263 465 -301 c 0,6,7
 430 -311 430 -311 413 -311 c 0,8,9
 405 -308 405 -308 406 -301 c 0,10,11
 406 -205 406 -205 406 -13 c 1,12,13
 352 -56 352 -56 283 -56 c 0,14,15
 275 -56 275 -56 259 -56 c 0,16,17
 98 -56 98 -56 43 133 c 1,18,19
 35 184 35 184 35 227 c 0,20,21
 35 234 35 234 35 247 c 0,22,23
 35 466 35 466 224 515 c 0,24,25
 263 523 263 523 302 523 c 0,26,27
 305 523 305 523 311 523 c 0,28,29
 370 523 370 523 413 508 c 1,30,31
 413 512 413 512 413 539 c 0,32,33
 416 547 416 547 425 547 c 0,34,35
 427 547 427 547 429 547 c 0,36,37
 561 517 561 517 624 504 c 0,38,39
 638 501 638 501 638 493 c 0,40,41
 638 492 638 492 638 492 c 2,42,43
 638 491 638 491 638 488 c 0,0,1
204 231 m 0,44,45
 204 30 204 30 311 31 c 0,46,47
 370 31 370 31 406 74 c 1,48,49
 406 190 406 190 406 421 c 1,50,51
 361 433 361 433 311 436 c 0,52,53
 204 436 204 436 204 231 c 0,44,45
EndSplineSet
EndChar

StartChar: r
Encoding: 114 114 85
Width: 522
GlyphClass: 1
Flags: W
LayerCount: 2
Fore
SplineSet
388 517 m 0,0,1
 389 517 389 517 390 517 c 0,2,3
 511 517 511 517 522 349 c 0,4,5
 522 344 522 344 522 334 c 0,6,7
 522 323 522 323 511 321 c 0,8,9
 479 321 479 321 416 321 c 0,10,11
 408 322 408 322 408 334 c 0,12,13
 401 390 401 390 373 399 c 0,14,15
 369 399 369 399 360 400 c 0,16,17
 316 400 316 400 258 313 c 0,18,19
 251 300 251 300 251 290 c 0,20,21
 251 235 251 235 251 124 c 0,22,23
 251 -18 251 -18 134 -52 c 0,24,25
 127 -55 127 -55 96 -56 c 0,26,27
 89 -54 89 -54 88 -46 c 0,28,29
 88 84 88 84 88 343 c 0,30,31
 88 411 88 411 25 450 c 1,32,33
 26 468 26 468 42 471 c 0,34,35
 206 510 206 510 232 513 c 0,36,37
 241 513 241 513 240 502 c 0,38,39
 240 461 240 461 240 380 c 1,40,41
 241 380 241 380 243 380 c 0,42,43
 303 518 303 518 388 517 c 0,0,1
EndSplineSet
EndChar

StartChar: s
Encoding: 115 115 86
Width: 532
GlyphClass: 1
Flags: W
LayerCount: 2
Fore
SplineSet
443 555 m 0,0,1
 446 556 446 556 448 555 c 0,2,3
 463 555 463 555 466 528 c 0,4,5
 478 428 478 428 482 360 c 0,6,7
 481 345 481 345 470 344 c 0,8,9
 457 344 457 344 430 344 c 1,10,11
 377 443 377 443 283 444 c 0,12,13
 199 446 199 446 199 395 c 0,14,15
 200 336 200 336 385 268 c 0,16,17
 499 226 499 226 503 119 c 1,18,19
 503 -50 503 -50 266 -50 c 1,20,21
 100 -44 100 -44 20 67 c 0,22,23
 18 70 18 70 18 72 c 0,24,25
 18 77 18 77 22 81 c 0,26,27
 32 91 32 91 51 112 c 0,28,29
 59 118 59 118 68 109 c 0,30,31
 146 48 146 48 202 38 c 0,32,33
 257 28 257 28 302 34 c 0,34,35
 349 42 349 42 348 83 c 0,36,37
 348 125 348 125 143 218 c 1,38,39
 23 293 23 293 39 388 c 0,40,41
 56 516 56 516 222 529 c 0,42,43
 303 534 303 534 376 502 c 1,44,45
 434 487 434 487 443 555 c 0,0,1
EndSplineSet
EndChar

StartChar: t
Encoding: 116 116 87
Width: 461
GlyphClass: 1
Flags: W
LayerCount: 2
Fore
SplineSet
280 691 m 1,0,1
 280 647 280 647 280 515 c 1,2,3
 321 515 321 515 444 515 c 0,4,5
 452 514 452 514 453 507 c 0,6,7
 447 474 447 474 424 454 c 0,8,9
 402 435 402 435 368 434 c 0,10,11
 339 434 339 434 280 433 c 1,12,13
 280 354 280 354 280 116 c 0,14,15
 280 35 280 35 349 35 c 0,16,17
 396 37 396 37 429 54 c 0,18,19
 438 59 438 59 443 52 c 0,20,21
 452 37 452 37 456 29 c 1,22,23
 449 -4 449 -4 402 -28 c 0,24,25
 356 -53 356 -53 284 -53 c 0,26,27
 146 -53 146 -53 122 29 c 0,28,29
 114 54 114 54 115 100 c 0,30,31
 115 211 115 211 115 434 c 1,32,33
 99 434 99 434 49 434 c 0,34,35
 34 434 34 434 34 450 c 0,36,37
 34 468 34 468 34 504 c 0,38,39
 34 513 34 513 45 515 c 0,40,41
 115 515 115 515 115 515 c 1,42,43
 115 536 115 536 116 578 c 0,44,45
 119 617 119 617 86 617 c 1,46,47
 85 643 85 643 106 650 c 0,48,49
 159 668 159 668 265 705 c 1,50,51
 269 701 269 701 280 691 c 1,0,1
EndSplineSet
EndChar

StartChar: u
Encoding: 117 117 88
Width: 666
GlyphClass: 1
Flags: W
LayerCount: 2
Fore
SplineSet
242 536 m 0,0,1
 255 536 255 536 253 519 c 0,2,3
 253 390 253 390 253 131 c 0,4,5
 253 60 253 60 316 59 c 0,6,7
 324 59 324 59 341 59 c 0,8,9
 403 59 403 59 432 131 c 1,10,11
 432 213 432 213 432 377 c 0,12,13
 432 431 432 431 365 472 c 0,14,15
 365 473 365 473 365 476 c 0,16,17
 365 491 365 491 388 495 c 0,18,19
 527 524 527 524 591 536 c 0,20,21
 592 536 592 536 593 536 c 0,22,23
 599 536 599 536 599 527 c 0,24,25
 599 525 599 525 599 523 c 0,26,27
 599 337 599 337 599 -34 c 0,28,29
 601 -50 601 -50 586 -48 c 0,30,31
 580 -48 580 -48 574 -48 c 0,32,33
 478 -48 478 -48 432 32 c 0,34,35
 431 32 431 32 428 32 c 0,36,37
 375 -44 375 -44 293 -44 c 0,38,39
 278 -44 278 -44 249 -44 c 0,40,41
 86 -25 86 -25 86 108 c 0,42,43
 86 191 86 191 86 356 c 0,44,45
 86 431 86 431 18 472 c 0,46,47
 18 473 18 473 18 476 c 0,48,49
 18 490 18 490 38 494 c 0,50,51
 181 525 181 525 242 536 c 0,0,1
EndSplineSet
EndChar

StartChar: v
Encoding: 118 118 89
Width: 614
GlyphClass: 1
Flags: W
LayerCount: 2
Fore
SplineSet
30 511 m 0,0,1
 88 511 88 511 260 511 c 0,2,3
 282 511 282 511 290 487 c 1,4,5
 224 488 224 488 246 417 c 1,6,7
 281 323 281 323 350 135 c 1,8,9
 350 135 350 135 350 134 c 1,10,11
 374 208 374 208 447 430 c 1,12,13
 453 468 453 468 402 492 c 0,14,15
 402 493 402 493 402 496 c 0,16,17
 408 511 408 511 428 511 c 0,18,19
 485 511 485 511 600 511 c 0,20,21
 626 511 626 511 626 483 c 1,22,23
 568 488 568 488 544 426 c 0,24,25
 489 270 489 270 380 -43 c 0,26,27
 377 -50 377 -50 369 -50 c 0,28,29
 368 -50 368 -50 367 -50 c 0,30,31
 338 -50 338 -50 280 -50 c 0,32,33
 273 -50 273 -50 268 -45 c 0,34,35
 205 110 205 110 78 421 c 1,36,37
 44 486 44 486 -1 487 c 0,38,39
 -1 489 -1 489 -1 492 c 0,40,41
 6 512 6 512 23 512 c 0,42,43
 27 512 27 512 30 511 c 0,0,1
EndSplineSet
EndChar

StartChar: w
Encoding: 119 119 90
Width: 911
GlyphClass: 1
Flags: W
LayerCount: 2
Fore
SplineSet
26 513 m 0,0,1
 92 513 92 513 291 513 c 0,2,3
 319 513 319 513 318 488 c 1,4,5
 265 479 265 479 262 432 c 0,6,7
 263 422 263 422 265 403 c 0,8,9
 280 347 280 347 325 180 c 0,10,11
 326 180 326 180 330 180 c 1,12,13
 329 180 329 180 325 180 c 1,14,15
 362 256 362 256 472 485 c 1,16,17
 484 485 484 485 519 485 c 0,18,19
 536 487 536 487 546 468 c 0,20,21
 584 377 584 377 660 194 c 0,22,23
 661 194 661 194 664 194 c 0,24,25
 682 252 682 252 737 427 c 0,26,27
 737 429 737 429 737 435 c 0,28,29
 740 471 740 471 691 493 c 0,30,31
 691 494 691 494 691 497 c 0,32,33
 697 513 697 513 718 513 c 0,34,35
 777 513 777 513 896 513 c 0,36,37
 924 513 924 513 924 488 c 1,38,39
 867 476 867 476 844 431 c 1,40,41
 790 278 790 278 682 -27 c 0,42,43
 679 -42 679 -42 658 -43 c 0,44,45
 642 -43 642 -43 611 -43 c 0,46,47
 591 -43 591 -43 587 -25 c 0,48,49
 548 72 548 72 471 266 c 0,50,51
 470 266 470 266 467 266 c 0,52,53
 432 191 432 191 325 -35 c 1,54,55
 314 -43 314 -43 303 -43 c 0,56,57
 291 -43 291 -43 268 -43 c 0,58,59
 265 -43 265 -43 263 -43 c 0,60,61
 240 -43 240 -43 234 -26 c 0,62,63
 186 119 186 119 90 408 c 1,64,65
 55 485 55 485 2 485 c 0,66,67
 1 488 1 488 -1 493 c 0,68,69
 -1 494 -1 494 -1 497 c 0,70,71
 6 513 6 513 26 513 c 0,0,1
EndSplineSet
EndChar

StartChar: x
Encoding: 120 120 91
Width: 604
GlyphClass: 1
Flags: W
LayerCount: 2
Fore
SplineSet
42 513 m 0,0,1
 85 513 85 513 215 513 c 0,2,3
 226 511 226 511 230 502 c 0,4,5
 262 457 262 457 327 367 c 1,6,7
 341 389 341 389 384 454 c 1,8,9
 391 490 391 490 358 495 c 0,10,11
 358 496 358 496 358 499 c 0,12,13
 360 508 360 508 373 513 c 1,14,15
 442 513 442 513 580 513 c 0,16,17
 592 512 592 512 595 499 c 0,18,19
 595 498 595 498 595 495 c 0,20,21
 536 494 536 494 497 456 c 1,22,23
 458 398 458 398 380 282 c 1,24,25
 516 57 516 57 550 23 c 0,26,27
 585 -13 585 -13 622 -25 c 0,28,29
 622 -26 622 -26 622 -29 c 0,30,31
 621 -42 621 -42 599 -47 c 0,32,33
 569 -49 569 -49 542 -49 c 0,34,35
 414 -49 414 -49 362 7 c 1,36,37
 332 57 332 57 271 158 c 1,38,39
 245 120 245 120 168 5 c 0,40,41
 141 -39 141 -39 78 -42 c 256,42,43
 15 -45 15 -45 15 -29 c 1,44,45
 80 64 80 64 211 251 c 1,46,47
 177 303 177 303 73 459 c 0,48,49
 48 490 48 490 15 495 c 1,50,51
 22 513 22 513 42 513 c 0,0,1
EndSplineSet
EndChar

StartChar: y
Encoding: 121 121 92
Width: 625
GlyphClass: 1
Flags: W
LayerCount: 2
Fore
SplineSet
28 520 m 0,0,1
 91 520 91 520 282 520 c 0,2,3
 301 520 301 520 307 504 c 0,4,5
 307 503 307 503 307 501 c 0,6,7
 261 478 261 478 262 444 c 0,8,9
 262 441 262 441 262 436 c 0,10,11
 262 425 262 425 358 202 c 0,12,13
 359 202 359 202 362 202 c 0,14,15
 459 398 459 398 470 444 c 1,16,17
 465 490 465 490 425 493 c 0,18,19
 425 497 425 497 425 504 c 0,20,21
 426 516 426 516 440 520 c 1,22,23
 507 520 507 520 641 520 c 1,24,25
 652 515 652 515 655 504 c 0,26,27
 655 502 655 502 655 497 c 1,28,29
 603 494 603 494 570 438 c 1,30,31
 491 241 491 241 333 -153 c 0,32,33
 292 -265 292 -265 200 -291 c 0,34,35
 137 -309 137 -309 86 -309 c 0,36,37
 62 -309 62 -309 41 -305 c 0,38,39
 25 -301 25 -301 22 -284 c 1,40,41
 93 -274 93 -274 136 -231 c 0,42,43
 180 -189 180 -189 262 7 c 1,44,45
 83 454 83 454 58 468 c 1,46,47
 32 497 32 497 1 501 c 0,48,49
 1 502 1 502 1 504 c 0,50,51
 4 520 4 520 25 520 c 0,52,53
 26 520 26 520 28 520 c 0,0,1
EndSplineSet
EndChar

StartChar: z
Encoding: 122 122 93
Width: 553
GlyphClass: 1
Flags: W
LayerCount: 2
Fore
SplineSet
76 511 m 1,0,1
 185 511 185 511 513 511 c 0,2,3
 542 511 542 511 542 482 c 0,4,5
 542 467 542 467 266 45 c 1,6,7
 354 45 354 45 531 45 c 0,8,9
 544 47 544 47 544 33 c 2,10,11
 544 33 544 33 544 32 c 0,12,13
 544 -1 544 -1 478 -34 c 1,14,15
 436 -49 436 -49 362 -49 c 0,16,17
 275 -49 275 -49 100 -49 c 0,18,19
 94 -49 94 -49 88 -49 c 0,20,21
 27 -49 27 -49 26 -13 c 0,22,23
 26 -10 26 -10 27 -6 c 0,24,25
 120 138 120 138 305 425 c 1,26,27
 264 425 264 425 141 425 c 0,28,29
 91 425 91 425 59 388 c 1,30,31
 44 392 44 392 43 409 c 1,32,33
 66 488 66 488 76 511 c 1,0,1
EndSplineSet
EndChar

StartChar: braceleft
Encoding: 123 123 94
Width: 492
GlyphClass: 1
Flags: W
LayerCount: 2
Fore
SplineSet
56 313 m 0,0,1
 56 330 56 330 57 380 c 0,2,3
 58 389 58 389 68 391 c 0,4,5
 135 391 135 391 156 412 c 0,6,7
 176 434 176 434 176 467 c 0,8,9
 176 486 176 486 174 509 c 0,10,11
 171 532 171 532 167 556 c 0,12,13
 164 581 164 581 162 604 c 0,14,15
 159 628 159 628 159 647 c 0,16,17
 159 740 159 740 203 793 c 0,18,19
 246 846 246 846 335 846 c 0,20,21
 378 846 378 846 463 847 c 1,22,23
 459 781 459 781 410 765 c 0,24,25
 400 763 400 763 380 758 c 0,26,27
 359 754 359 754 348 745 c 0,28,29
 338 736 338 736 335 722 c 256,30,31
 332 708 332 708 334 688 c 0,32,33
 339 640 339 640 346 590 c 0,34,35
 352 541 352 541 349 497 c 0,36,37
 344 436 344 436 317 401 c 256,38,39
 290 366 290 366 240 344 c 1,40,41
 290 322 290 322 317 287 c 0,42,43
 344 253 344 253 349 191 c 0,44,45
 352 147 352 147 346 98 c 0,46,47
 339 48 339 48 334 0 c 0,48,49
 332 -20 332 -20 335 -34 c 256,50,51
 338 -48 338 -48 348 -57 c 0,52,53
 359 -66 359 -66 379 -70 c 0,54,55
 399 -75 399 -75 410 -77 c 0,56,57
 463 -95 463 -95 463 -154 c 0,58,59
 463 -156 463 -156 463 -158 c 1,60,61
 420 -158 420 -158 335 -158 c 0,62,63
 246 -158 246 -158 203 -105 c 0,64,65
 159 -52 159 -52 159 41 c 0,66,67
 159 60 159 60 162 84 c 0,68,69
 164 108 164 108 167 132 c 0,70,71
 171 156 171 156 174 179 c 0,72,73
 176 202 176 202 176 221 c 0,74,75
 176 254 176 254 155 276 c 0,76,77
 134 297 134 297 68 297 c 1,78,79
 56 301 56 301 56 312 c 2,80,81
 56 312 56 312 56 313 c 0,0,1
EndSplineSet
EndChar

StartChar: bar
Encoding: 124 124 95
Width: 338
GlyphClass: 1
Flags: W
LayerCount: 2
Fore
SplineSet
240 833 m 0,0,1
 266 832 266 832 268 794 c 0,2,3
 268 487 268 487 268 -127 c 0,4,5
 268 -173 268 -173 230 -175 c 0,6,7
 195 -175 195 -175 125 -174 c 0,8,9
 90 -172 90 -172 92 -129 c 0,10,11
 92 178 92 178 92 793 c 0,12,13
 92 795 92 795 92 797 c 0,14,15
 92 825 92 825 117 833 c 1,16,17
 158 833 158 833 240 833 c 0,0,1
EndSplineSet
EndChar

StartChar: braceright
Encoding: 125 125 96
Width: 492
GlyphClass: 1
Flags: W
LayerCount: 2
Fore
SplineSet
444 376 m 0,0,1
 444 359 444 359 444 309 c 0,2,3
 442 300 442 300 433 298 c 0,4,5
 366 298 366 298 346 276 c 0,6,7
 325 255 325 255 325 222 c 0,8,9
 325 203 325 203 327 180 c 0,10,11
 330 157 330 157 333 133 c 0,12,13
 337 109 337 109 340 85 c 0,14,15
 342 61 342 61 342 42 c 0,16,17
 342 -51 342 -51 299 -104 c 0,18,19
 255 -157 255 -157 166 -157 c 0,20,21
 123 -157 123 -157 38 -158 c 1,22,23
 42 -92 42 -92 91 -76 c 0,24,25
 101 -74 101 -74 121 -69 c 0,26,27
 141 -65 141 -65 152 -56 c 256,28,29
 163 -47 163 -47 166 -32 c 0,30,31
 169 -18 169 -18 167 1 c 0,32,33
 162 49 162 49 155 98 c 0,34,35
 148 148 148 148 152 193 c 0,36,37
 157 254 157 254 184 289 c 256,38,39
 211 324 211 324 261 345 c 1,40,41
 211 367 211 367 184 402 c 0,42,43
 157 436 157 436 152 498 c 0,44,45
 149 542 149 542 155 592 c 0,46,47
 162 641 162 641 167 689 c 0,48,49
 169 709 169 709 166 723 c 256,50,51
 163 737 163 737 152 746 c 256,52,53
 141 755 141 755 121 760 c 0,54,55
 101 764 101 764 91 766 c 0,56,57
 38 784 38 784 38 843 c 0,58,59
 38 845 38 845 38 847 c 1,60,61
 81 847 81 847 166 847 c 0,62,63
 255 847 255 847 299 794 c 0,64,65
 342 741 342 741 342 648 c 0,66,67
 342 629 342 629 340 606 c 0,68,69
 337 582 337 582 333 558 c 0,70,71
 330 534 330 534 327 511 c 0,72,73
 325 487 325 487 325 468 c 0,74,75
 325 435 325 435 346 414 c 0,76,77
 367 392 367 392 433 392 c 1,78,79
 444 388 444 388 444 378 c 0,80,81
 444 377 444 377 444 376 c 0,0,1
EndSplineSet
EndChar

StartChar: asciitilde
Encoding: 126 126 97
Width: 768
GlyphClass: 1
Flags: W
LayerCount: 2
Fore
SplineSet
262 520 m 0,0,1
 290 520 290 520 323 510 c 0,2,3
 356 499 356 499 393 484 c 256,4,5
 430 469 430 469 468 454 c 0,6,7
 505 439 505 439 540 430 c 0,8,9
 559 425 559 425 575 426 c 0,10,11
 590 427 590 427 602 434 c 0,12,13
 614 442 614 442 647 473 c 0,14,15
 679 505 679 505 731 485 c 1,16,17
 705 402 705 402 686 368 c 256,18,19
 667 334 667 334 642 312 c 0,20,21
 617 291 617 291 585 281 c 0,22,23
 554 271 554 271 514 271 c 0,24,25
 486 271 486 271 453 282 c 256,26,27
 420 293 420 293 383 308 c 256,28,29
 346 323 346 323 308 338 c 0,30,31
 271 352 271 352 237 361 c 0,32,33
 198 371 198 371 175 358 c 0,34,35
 151 344 151 344 133 325 c 0,36,37
 116 306 116 306 90 301 c 0,38,39
 65 297 65 297 44 308 c 1,40,41
 71 389 71 389 91 423 c 0,42,43
 110 458 110 458 134 479 c 0,44,45
 159 501 159 501 191 510 c 0,46,47
 222 520 222 520 262 520 c 0,0,1
EndSplineSet
EndChar

StartChar: uniff01
Encoding: 65281 65281 98
Width: 860
GlyphClass: 1
Flags: W
LayerCount: 2
Fore
SplineSet
174 16 m 256,0,1
 174 60 174 60 202 88 c 0,2,3
 229 116 229 116 276 116 c 0,4,5
 281 116 281 116 285 116 c 0,6,7
 326 113 326 113 351 88 c 0,8,9
 379 60 379 60 379 16 c 256,10,11
 379 -28 379 -28 352 -56 c 0,12,13
 324 -83 324 -83 276 -83 c 0,14,15
 229 -83 229 -83 202 -56 c 0,16,17
 174 -28 174 -28 174 16 c 256,0,1
331 813 m 0,18,19
 356 813 356 813 357 784 c 1,20,21
 357 789 357 789 357 744 c 0,22,23
 357 700 357 700 357 655 c 0,24,25
 357 524 357 524 357 263 c 0,26,27
 360 223 360 223 322 216 c 1,28,29
 292 216 292 216 273 216 c 0,30,31
 220 215 220 215 240 215 c 1,32,33
 189 217 189 217 190 263 c 0,34,35
 190 435 190 435 190 780 c 0,36,37
 187 805 187 805 212 811 c 1,38,39
 252 812 252 812 331 813 c 0,18,19
EndSplineSet
EndChar

StartChar: uniff02
Encoding: 65282 65282 99
Width: 850
GlyphClass: 1
Flags: W
LayerCount: 2
Fore
SplineSet
251 806 m 0,0,1
 287 806 287 806 395 806 c 0,2,3
 408 805 408 805 408 790 c 0,4,5
 399 716 399 716 380 567 c 1,6,7
 368 509 368 509 274 508 c 1,8,9
 262 605 262 605 239 798 c 0,10,11
 241 806 241 806 251 806 c 0,0,1
451 806 m 0,12,13
 487 806 487 806 595 806 c 0,14,15
 607 805 607 805 607 791 c 2,16,17
 607 791 607 791 607 790 c 0,18,19
 598 716 598 716 581 567 c 1,20,21
 568 509 568 509 474 508 c 1,22,23
 462 605 462 605 439 798 c 0,24,25
 441 806 441 806 451 806 c 0,12,13
EndSplineSet
EndChar

StartChar: uniff03
Encoding: 65283 65283 100
Width: 1137
GlyphClass: 1
Flags: W
LayerCount: 2
Fore
SplineSet
490 285 m 1,0,1
 521 285 521 285 615 285 c 1,2,3
 626 333 626 333 657 477 c 1,4,5
 626 477 626 477 532 477 c 1,6,7
 521 429 521 429 490 285 c 1,0,1
558 765 m 0,8,9
 560 765 560 765 565 765 c 0,10,11
 567 765 567 765 569 765 c 0,12,13
 585 765 585 765 589 750 c 1,14,15
 579 688 579 688 558 564 c 1,16,17
 587 564 587 564 672 563 c 1,18,19
 678 589 678 589 695 667 c 1,20,21
 703 725 703 725 668 750 c 1,22,23
 673 763 673 763 688 764 c 0,24,25
 739 764 739 764 842 765 c 0,26,27
 844 765 844 765 850 765 c 0,28,29
 874 763 874 763 871 743 c 0,30,31
 860 683 860 683 838 564 c 1,32,33
 865 564 865 564 944 564 c 0,34,35
 963 564 963 564 964 548 c 0,36,37
 964 532 964 532 964 501 c 0,38,39
 964 498 964 498 964 496 c 0,40,41
 964 480 964 480 952 477 c 0,42,43
 907 477 907 477 818 477 c 1,44,45
 807 429 807 429 774 284 c 1,46,47
 805 284 805 284 896 284 c 0,48,49
 919 284 919 284 916 260 c 0,50,51
 916 244 916 244 916 213 c 0,52,53
 916 197 916 197 897 197 c 0,54,55
 850 197 850 197 755 197 c 1,56,57
 747 162 747 162 724 56 c 0,58,59
 710 -10 710 -10 653 -26 c 0,60,61
 602 -40 602 -40 564 -40 c 0,62,63
 559 -40 559 -40 554 -40 c 0,64,65
 548 -37 548 -37 550 -28 c 0,66,67
 564 47 564 47 593 197 c 1,68,69
 562 197 562 197 471 197 c 1,70,71
 464 161 464 161 441 55 c 0,72,73
 421 -42 421 -42 269 -40 c 0,74,75
 263 -37 263 -37 265 -28 c 0,76,77
 280 47 280 47 309 197 c 1,78,79
 283 197 283 197 205 197 c 0,80,81
 191 197 191 197 190 209 c 0,82,83
 190 230 190 230 190 272 c 0,84,85
 190 277 190 277 203 284 c 1,86,87
 245 284 245 284 329 284 c 1,88,89
 340 332 340 332 372 477 c 1,90,91
 343 477 343 477 255 477 c 0,92,93
 244 477 244 477 238 489 c 1,94,95
 238 510 238 510 238 552 c 0,96,97
 238 564 238 564 254 564 c 0,98,99
 299 564 299 564 388 564 c 1,100,101
 393 590 393 590 408 667 c 0,102,103
 408 671 408 671 408 682 c 0,104,105
 412 722 412 722 381 750 c 1,106,107
 383 761 383 761 397 765 c 1,108,109
 451 765 451 765 558 765 c 0,8,9
EndSplineSet
EndChar

StartChar: uniff04
Encoding: 65284 65284 101
Width: 870
GlyphClass: 1
Flags: W
LayerCount: 2
Fore
SplineSet
376 800 m 0,0,1
 406 800 406 800 498 800 c 0,2,3
 524 798 524 798 525 774 c 0,4,5
 525 740 525 740 525 673 c 1,6,7
 553 671 553 671 590 657 c 1,8,9
 622 659 622 659 629 692 c 1,10,11
 638 694 638 694 647 683 c 1,12,13
 655 625 655 625 672 509 c 0,14,15
 674 494 674 494 663 494 c 0,16,17
 650 494 650 494 624 494 c 0,18,19
 609 492 609 492 600 507 c 0,20,21
 562 596 562 596 456 605 c 0,22,23
 445 605 445 605 424 605 c 0,24,25
 331 605 331 605 331 538 c 0,26,27
 331 476 331 476 516 414 c 1,28,29
 710 354 710 354 710 230 c 0,30,31
 710 108 710 108 573 60 c 0,32,33
 556 52 556 52 525 49 c 1,34,35
 525 20 525 20 525 -39 c 0,36,37
 526 -63 526 -63 494 -66 c 0,38,39
 456 -66 456 -66 381 -66 c 0,40,41
 358 -64 358 -64 354 -39 c 1,42,43
 354 -9 354 -9 354 52 c 1,44,45
 276 67 276 67 230 106 c 0,46,47
 183 146 183 146 171 174 c 0,48,49
 170 177 170 177 169 180 c 0,50,51
 169 184 169 184 173 188 c 0,52,53
 212 217 212 217 221 224 c 0,54,55
 231 230 231 230 241 219 c 0,56,57
 323 131 323 131 437 126 c 1,58,59
 557 126 557 126 557 190 c 0,60,61
 557 193 557 193 557 198 c 0,62,63
 557 256 557 256 345 334 c 1,64,65
 183 382 183 382 183 494 c 0,66,67
 183 498 183 498 183 505 c 0,68,69
 183 632 183 632 349 677 c 0,70,71
 351 677 351 677 354 677 c 1,72,73
 354 701 354 701 354 774 c 0,74,75
 356 799 356 799 376 800 c 0,0,1
EndSplineSet
EndChar

StartChar: uniff05
Encoding: 65285 65285 102
Width: 1270
GlyphClass: 1
Flags: W
LayerCount: 2
Fore
SplineSet
816 763 m 0,0,1
 866 763 866 763 1015 763 c 1,2,3
 1027 759 1027 759 1024 749 c 0,4,5
 541 76 541 76 453 -34 c 0,6,7
 448 -45 448 -45 431 -43 c 0,8,9
 389 -43 389 -43 304 -43 c 0,10,11
 281 -43 281 -43 278 -31 c 1,12,13
 589 386 589 386 720 568 c 0,14,15
 798 678 798 678 811 703 c 0,16,17
 816 711 816 711 816 722 c 256,18,19
 816 733 816 733 803 754 c 1,20,21
 805 763 805 763 816 763 c 0,0,1
238 574 m 0,22,23
 238 622 238 622 252 660 c 0,24,25
 266 697 266 697 291 723 c 0,26,27
 316 750 316 750 351 764 c 0,28,29
 386 777 386 777 427 777 c 0,30,31
 469 777 469 777 504 764 c 0,32,33
 539 750 539 750 564 723 c 0,34,35
 589 697 589 697 603 660 c 256,36,37
 617 623 617 623 617 574 c 0,38,39
 617 527 617 527 603 490 c 256,40,41
 589 453 589 453 564 426 c 0,42,43
 539 400 539 400 504 386 c 0,44,45
 470 374 470 374 430 373 c 0,46,47
 429 373 429 373 427 373 c 0,48,49
 386 373 386 373 351 386 c 0,50,51
 316 400 316 400 291 426 c 0,52,53
 266 453 266 453 252 490 c 256,54,55
 238 527 238 527 238 574 c 0,22,23
503 574 m 256,56,57
 503 607 503 607 498 632 c 0,58,59
 492 658 492 658 482 676 c 256,60,61
 472 694 472 694 458 704 c 0,62,63
 443 714 443 714 427 714 c 0,64,65
 410 714 410 714 396 704 c 256,66,67
 382 694 382 694 372 676 c 256,68,69
 362 658 362 658 356 632 c 0,70,71
 351 607 351 607 351 574 c 256,72,73
 351 541 351 541 356 515 c 0,74,75
 362 490 362 490 372 472 c 256,76,77
 382 454 382 454 396 445 c 0,78,79
 410 435 410 435 427 435 c 0,80,81
 443 435 443 435 458 445 c 0,82,83
 472 454 472 454 482 472 c 256,84,85
 492 490 492 490 498 515 c 0,86,87
 503 541 503 541 503 574 c 256,56,57
725 188 m 0,88,89
 725 236 725 236 739 274 c 0,90,91
 754 311 754 311 779 337 c 0,92,93
 804 364 804 364 838 378 c 0,94,95
 873 391 873 391 914 391 c 0,96,97
 956 391 956 391 991 378 c 0,98,99
 1026 364 1026 364 1051 337 c 0,100,101
 1076 311 1076 311 1090 274 c 0,102,103
 1105 237 1105 237 1105 188 c 0,104,105
 1105 141 1105 141 1090 104 c 0,106,107
 1076 67 1076 67 1051 40 c 0,108,109
 1026 14 1026 14 991 1 c 0,110,111
 956 -13 956 -13 914 -13 c 0,112,113
 873 -13 873 -13 838 1 c 0,114,115
 804 14 804 14 779 40 c 0,116,117
 754 67 754 67 739 104 c 0,118,119
 725 141 725 141 725 188 c 0,88,89
990 191 m 256,120,121
 990 224 990 224 985 250 c 0,122,123
 979 275 979 275 969 293 c 256,124,125
 959 311 959 311 946 321 c 0,126,127
 932 331 932 331 914 331 c 0,128,129
 898 331 898 331 883 321 c 0,130,131
 869 311 869 311 859 293 c 0,132,133
 850 275 850 275 844 250 c 0,134,135
 839 224 839 224 839 191 c 256,136,137
 839 158 839 158 844 133 c 0,138,139
 850 108 850 108 859 89 c 0,140,141
 869 71 869 71 883 62 c 0,142,143
 898 52 898 52 914 52 c 0,144,145
 931 52 931 52 945 62 c 0,146,147
 959 71 959 71 969 89 c 0,148,149
 979 108 979 108 985 133 c 0,150,151
 990 158 990 158 990 191 c 256,120,121
EndSplineSet
EndChar

StartChar: uniff06
Encoding: 65286 65286 103
Width: 1198
GlyphClass: 1
Flags: W
LayerCount: 2
Fore
SplineSet
538 57 m 0,0,1
 607 57 607 57 653 114 c 1,2,3
 599 199 599 199 492 370 c 1,4,5
 430 326 430 326 404 286 c 0,6,7
 377 246 377 246 377 207 c 0,8,9
 377 142 377 142 418 100 c 0,10,11
 459 57 459 57 538 57 c 0,0,1
776 642 m 1,12,13
 772 524 772 524 615 443 c 1,14,15
 665 367 665 367 764 216 c 1,16,17
 783 239 783 239 842 308 c 1,18,19
 856 359 856 359 809 375 c 1,20,21
 809 391 809 391 825 394 c 0,22,23
 887 394 887 394 1010 394 c 1,24,25
 1028 389 1028 389 1028 371 c 1,26,27
 986 373 986 373 949 316 c 1,28,29
 904 260 904 260 815 147 c 1,30,31
 863 76 863 76 918 77 c 1,32,33
 986 85 986 85 1034 151 c 1,34,35
 1040 146 1040 146 1040 137 c 0,36,37
 1040 132 1040 132 1039 127 c 0,38,39
 992 -36 992 -36 857 -36 c 0,40,41
 783 -36 783 -36 711 34 c 1,42,43
 624 -49 624 -49 488 -49 c 0,44,45
 476 -49 476 -49 463 -48 c 0,46,47
 310 -40 310 -40 255 88 c 0,48,49
 236 133 236 133 236 176 c 0,50,51
 236 205 236 205 245 234 c 0,52,53
 287 354 287 354 454 439 c 1,54,55
 420 494 420 494 351 604 c 0,56,57
 343 611 343 611 342 634 c 0,58,59
 354 763 354 763 551 773 c 1,60,61
 770 770 770 770 776 642 c 1,12,13
564 506 m 1,62,63
 651 549 651 549 651 629 c 1,64,65
 644 705 644 705 572 711 c 1,66,67
 485 707 485 707 482 644 c 0,68,69
 482 636 482 636 485 632 c 0,70,71
 511 590 511 590 564 506 c 1,62,63
EndSplineSet
EndChar

StartChar: uniff07
Encoding: 65287 65287 104
Width: 502
GlyphClass: 1
Flags: W
LayerCount: 2
Fore
SplineSet
185 806 m 0,0,1
 221 806 221 806 330 806 c 0,2,3
 342 805 342 805 342 791 c 2,4,5
 342 791 342 791 342 790 c 0,6,7
 333 716 333 716 315 567 c 1,8,9
 302 509 302 509 209 508 c 1,10,11
 197 605 197 605 174 798 c 0,12,13
 175 806 175 806 185 806 c 0,0,1
EndSplineSet
EndChar

StartChar: uniff08
Encoding: 65288 65288 105
Width: 707
GlyphClass: 1
Flags: W
LayerCount: 2
Fore
SplineSet
453 835 m 0,0,1
 462 823 462 823 488 785 c 0,2,3
 497 774 497 774 487 763 c 0,4,5
 310 592 310 592 310 326 c 0,6,7
 310 75 310 75 489 -100 c 0,8,9
 492 -105 492 -105 492 -111 c 0,10,11
 492 -116 492 -116 490 -121 c 0,12,13
 477 -136 477 -136 450 -167 c 0,14,15
 444 -173 444 -173 437 -173 c 0,16,17
 433 -173 433 -173 428 -171 c 0,18,19
 143 -3 143 -3 143 340 c 0,20,21
 143 665 143 665 435 839 c 0,22,23
 440 841 440 841 443 841 c 0,24,25
 449 841 449 841 453 835 c 0,0,1
EndSplineSet
EndChar

StartChar: uniff09
Encoding: 65289 65289 106
Width: 778
GlyphClass: 1
Flags: W
LayerCount: 2
Fore
SplineSet
303 -167 m 0,0,1
 294 -155 294 -155 267 -118 c 0,2,3
 263 -113 263 -113 263 -108 c 0,4,5
 263 -101 263 -101 269 -94 c 0,6,7
 445 77 445 77 445 343 c 0,8,9
 445 594 445 594 267 768 c 0,10,11
 261 777 261 777 265 788 c 1,12,13
 279 804 279 804 306 835 c 0,14,15
 311 842 311 842 318 842 c 0,16,17
 323 842 323 842 328 839 c 0,18,19
 613 672 613 672 612 329 c 0,20,21
 612 4 612 4 321 -171 c 0,22,23
 317 -173 317 -173 313 -173 c 0,24,25
 307 -173 307 -173 303 -167 c 0,0,1
EndSplineSet
EndChar

StartChar: uniff0a
Encoding: 65290 65290 107
Width: 799
GlyphClass: 1
Flags: W
LayerCount: 2
Fore
SplineSet
368 806 m 1,0,1
 392 806 392 806 464 806 c 0,2,3
 476 805 476 805 477 791 c 0,4,5
 477 749 477 749 477 666 c 1,6,7
 504 674 504 674 584 697 c 0,8,9
 603 700 603 700 608 687 c 0,10,11
 616 660 616 660 631 606 c 0,12,13
 631 604 631 604 631 602 c 0,14,15
 631 586 631 586 616 582 c 0,16,17
 577 570 577 570 499 547 c 1,18,19
 523 521 523 521 594 444 c 0,20,21
 602 435 602 435 596 424 c 0,22,23
 574 402 574 402 529 358 c 0,24,25
 525 356 525 356 521 356 c 0,26,27
 513 356 513 356 506 366 c 1,28,29
 513 356 513 356 413 469 c 1,30,31
 381 435 381 435 316 367 c 0,32,33
 306 355 306 355 292 364 c 0,34,35
 270 385 270 385 227 426 c 0,36,37
 218 436 218 436 226 446 c 0,38,39
 259 480 259 480 324 548 c 1,40,41
 296 556 296 556 211 580 c 0,42,43
 198 585 198 585 198 599 c 0,44,45
 198 600 198 600 198 601 c 0,46,47
 204 629 204 629 216 684 c 1,48,49
 223 696 223 696 237 695 c 0,50,51
 276 685 276 685 354 666 c 1,52,53
 354 697 354 697 354 791 c 0,54,55
 355 802 355 802 368 806 c 1,0,1
EndSplineSet
EndChar

StartChar: uniff0b
Encoding: 65291 65291 108
Width: 922
GlyphClass: 1
Flags: W
LayerCount: 2
Fore
SplineSet
420 603 m 0,0,1
 444 603 444 603 515 603 c 0,2,3
 516 603 516 603 516 603 c 2,4,5
 538 603 538 603 538 583 c 0,6,7
 538 528 538 528 538 419 c 1,8,9
 587 419 587 419 734 419 c 0,10,11
 749 419 749 419 752 407 c 0,12,13
 752 377 752 377 752 316 c 0,14,15
 752 300 752 300 735 300 c 0,16,17
 669 300 669 300 538 300 c 1,18,19
 538 251 538 251 538 102 c 0,20,21
 537 77 537 77 520 76 c 0,22,23
 485 76 485 76 416 75 c 0,24,25
 396 75 396 75 395 98 c 0,26,27
 395 165 395 165 395 300 c 1,28,29
 348 300 348 300 205 300 c 0,30,31
 191 299 191 299 186 312 c 1,32,33
 186 344 186 344 186 407 c 0,34,35
 189 421 189 421 204 419 c 0,36,37
 268 419 268 419 395 419 c 1,38,39
 395 460 395 460 395 581 c 0,40,41
 395 603 395 603 420 603 c 0,0,1
EndSplineSet
EndChar

StartChar: uniff0c
Encoding: 65292 65292 109
Width: 707
GlyphClass: 1
Flags: W
LayerCount: 2
Fore
SplineSet
306 37 m 0,0,1
 306 32 306 32 306 27 c 0,2,3
 306 -166 306 -166 121 -208 c 0,4,5
 110 -208 110 -208 109 -198 c 1,6,7
 184 -160 184 -160 197 -54 c 1,8,9
 110 -55 110 -55 102 38 c 0,10,11
 102 47 102 47 103 56 c 0,12,13
 113 135 113 135 204 139 c 1,14,15
 297 137 297 137 306 37 c 0,0,1
EndSplineSet
EndChar

StartChar: uniff0d
Encoding: 65293 65293 110
Width: 809
GlyphClass: 1
Flags: W
LayerCount: 2
Fore
SplineSet
194 419 m 0,0,1
 301 419 301 419 622 419 c 0,2,3
 637 419 637 419 637 407 c 0,4,5
 637 375 637 375 637 312 c 0,6,7
 636 300 636 300 623 300 c 2,8,9
 623 300 623 300 622 300 c 0,10,11
 479 300 479 300 194 300 c 0,12,13
 182 300 182 300 181 313 c 0,14,15
 181 344 181 344 181 407 c 0,16,17
 182 418 182 418 194 419 c 0,0,1
EndSplineSet
EndChar

StartChar: uniff0e
Encoding: 65294 65294 111
Width: 512
GlyphClass: 1
Flags: W
LayerCount: 2
Fore
SplineSet
150 37 m 256,0,1
 150 81 150 81 178 108 c 0,2,3
 205 136 205 136 252 136 c 256,4,5
 299 136 299 136 326 108 c 0,6,7
 354 81 354 81 354 37 c 256,8,9
 354 -7 354 -7 326 -35 c 0,10,11
 299 -62 299 -62 252 -62 c 256,12,13
 205 -62 205 -62 178 -35 c 0,14,15
 150 -7 150 -7 150 37 c 256,0,1
EndSplineSet
EndChar

StartChar: uniff0f
Encoding: 65295 65295 112
Width: 778
GlyphClass: 1
Flags: W
LayerCount: 2
Fore
SplineSet
590 774 m 0,0,1
 604 772 604 772 604 758 c 2,2,3
 604 758 604 758 604 757 c 0,4,5
 521 486 521 486 355 -55 c 0,6,7
 350 -71 350 -71 333 -72 c 0,8,9
 293 -72 293 -72 212 -72 c 0,10,11
 211 -72 211 -72 211 -72 c 2,12,13
 197 -72 197 -72 196 -59 c 1,14,15
 282 214 282 214 455 759 c 0,16,17
 459 771 459 771 472 773 c 0,18,19
 511 773 511 773 590 774 c 0,0,1
EndSplineSet
EndChar

StartChar: uniff10
Encoding: 65296 65296 113
Width: 748
GlyphClass: 1
Flags: W
LayerCount: 2
Fore
SplineSet
65 351 m 256,0,1
 65 558 65 558 148 661 c 0,2,3
 232 764 232 764 382 764 c 256,4,5
 532 764 532 764 616 661 c 0,6,7
 699 558 699 558 699 351 c 0,8,9
 699 248 699 248 678 170 c 0,10,11
 656 93 656 93 615 41 c 0,12,13
 574 -10 574 -10 516 -35 c 0,14,15
 457 -61 457 -61 382 -61 c 0,16,17
 232 -61 232 -61 148 42 c 0,18,19
 65 144 65 144 65 351 c 256,0,1
243 351 m 256,20,21
 243 187 243 187 278 108 c 0,22,23
 314 28 314 28 382 28 c 256,24,25
 450 28 450 28 485 108 c 0,26,27
 521 187 521 187 521 351 c 256,28,29
 521 515 521 515 485 595 c 0,30,31
 450 675 450 675 382 675 c 256,32,33
 314 675 314 675 278 595 c 0,34,35
 243 515 243 515 243 351 c 256,20,21
EndSplineSet
EndChar

StartChar: uniff11
Encoding: 65297 65297 114
Width: 399
GlyphClass: 1
Flags: W
LayerCount: 2
Fore
SplineSet
316 769 m 0,0,1
 319 770 319 770 322 770 c 0,2,3
 333 770 333 770 338 760 c 1,4,5
 338 536 338 536 338 89 c 0,6,7
 338 -32 338 -32 182 -69 c 0,8,9
 167 -69 167 -69 167 -56 c 0,10,11
 167 120 167 120 167 471 c 1,12,13
 171 601 171 601 8 596 c 1,14,15
 8 598 8 598 8 601 c 0,16,17
 7 614 7 614 22 625 c 0,18,19
 120 673 120 673 316 769 c 0,0,1
EndSplineSet
EndChar

StartChar: uniff12
Encoding: 65298 65298 115
Width: 655
GlyphClass: 1
Flags: W
LayerCount: 2
Fore
SplineSet
306 765 m 0,0,1
 310 765 310 765 314 765 c 0,2,3
 536 765 536 765 595 605 c 0,4,5
 603 575 603 575 603 550 c 0,6,7
 603 545 603 545 603 535 c 0,8,9
 605 385 605 385 435 292 c 0,10,11
 266 199 266 199 262 89 c 1,12,13
 337 89 337 89 488 89 c 0,14,15
 585 89 585 89 607 128 c 1,16,17
 621 125 621 125 623 109 c 1,18,19
 611 58 611 58 587 -45 c 1,20,21
 575 -45 575 -45 540 -45 c 0,22,23
 422 -45 422 -45 68 -45 c 0,24,25
 48 -45 48 -45 47 -5 c 0,26,27
 47 -3 47 -3 47 2 c 0,28,29
 47 5 47 5 47 8 c 0,30,31
 47 170 47 170 270 313 c 1,32,33
 430 423 430 423 436 481 c 0,34,35
 454 657 454 657 327 674 c 1,36,37
 197 664 197 664 207 479 c 0,38,39
 206 463 206 463 188 460 c 0,40,41
 148 460 148 460 67 460 c 0,42,43
 52 460 52 460 49 478 c 0,44,45
 51 621 51 621 129 693 c 0,46,47
 198 756 198 756 306 765 c 0,0,1
EndSplineSet
EndChar

StartChar: uniff13
Encoding: 65299 65299 116
Width: 676
GlyphClass: 1
Flags: W
LayerCount: 2
Fore
SplineSet
317 774 m 0,0,1
 453 773 453 773 526 707 c 0,2,3
 600 641 600 641 596 558 c 0,4,5
 590 431 590 431 485 380 c 1,6,7
 523 370 523 370 553 346 c 0,8,9
 625 295 625 295 625 196 c 0,10,11
 625 191 625 191 625 187 c 0,12,13
 617 61 617 61 528 0 c 0,14,15
 445 -55 445 -55 329 -55 c 0,16,17
 319 -55 319 -55 309 -55 c 0,18,19
 125 -55 125 -55 63 80 c 1,20,21
 52 122 52 122 52 152 c 0,22,23
 52 173 52 173 52 215 c 0,24,25
 54 225 54 225 63 227 c 0,26,27
 100 227 100 227 173 227 c 0,28,29
 182 226 182 226 185 215 c 0,30,31
 185 207 185 207 185 191 c 0,32,33
 179 67 179 67 306 56 c 0,34,35
 307 56 307 56 310 56 c 0,36,37
 447 66 447 66 449 187 c 0,38,39
 451 319 451 319 310 334 c 0,40,41
 283 334 283 334 230 334 c 0,42,43
 221 334 221 334 219 345 c 0,44,45
 219 368 219 368 219 413 c 0,46,47
 218 425 218 425 230 425 c 0,48,49
 255 425 255 425 306 425 c 0,50,51
 435 427 435 427 442 557 c 1,52,53
 427 668 427 668 310 669 c 1,54,55
 190 658 190 658 189 547 c 0,56,57
 189 540 189 540 189 527 c 0,58,59
 189 511 189 511 175 511 c 0,60,61
 140 511 140 511 70 511 c 0,62,63
 56 510 56 510 54 526 c 0,64,65
 56 769 56 769 317 774 c 0,0,1
EndSplineSet
EndChar

StartChar: uniff14
Encoding: 65300 65300 117
Width: 737
GlyphClass: 1
Flags: W
LayerCount: 2
Fore
SplineSet
531 766 m 0,0,1
 532 766 532 766 534 766 c 0,2,3
 551 766 551 766 555 754 c 1,4,5
 555 592 555 592 556 268 c 1,6,7
 594 268 594 268 707 268 c 0,8,9
 718 267 718 267 718 256 c 0,10,11
 718 223 718 223 718 157 c 1,12,13
 714 145 714 145 694 144 c 0,14,15
 648 144 648 144 556 144 c 1,16,17
 556 129 556 129 556 84 c 0,18,19
 556 -42 556 -42 393 -67 c 0,20,21
 386 -66 386 -66 386 -55 c 0,22,23
 386 11 386 11 386 144 c 1,24,25
 320 144 320 144 124 144 c 0,26,27
 109 144 109 144 63 144 c 0,28,29
 34 147 34 147 37 166 c 0,30,31
 36 176 36 176 36 185 c 0,32,33
 36 217 36 217 49 233 c 0,34,35
 161 405 161 405 385 750 c 0,36,37
 395 765 395 765 413 766 c 0,38,39
 452 766 452 766 531 766 c 0,0,1
381 603 m 0,40,41
 371 585 371 585 245 380 c 0,42,43
 214 330 214 330 176 268 c 1,44,45
 246 268 246 268 386 268 c 1,46,47
 386 352 386 352 385 603 c 0,48,49
 384 603 384 603 381 603 c 0,40,41
EndSplineSet
EndChar

StartChar: uniff15
Encoding: 65301 65301 118
Width: 676
GlyphClass: 1
Flags: W
LayerCount: 2
Fore
SplineSet
173 762 m 0,0,1
 279 762 279 762 597 762 c 0,2,3
 604 761 604 761 604 754 c 0,4,5
 604 751 604 751 604 745 c 0,6,7
 604 673 604 673 521 635 c 0,8,9
 504 627 504 627 458 627 c 0,10,11
 392 627 392 627 260 627 c 1,12,13
 236 468 236 468 237 449 c 0,14,15
 238 449 238 449 241 449 c 0,16,17
 269 464 269 464 359 469 c 1,18,19
 561 469 561 469 621 314 c 0,20,21
 636 276 636 276 636 207 c 0,22,23
 636 31 636 31 449 -34 c 1,24,25
 392 -49 392 -49 313 -49 c 1,26,27
 167 -41 167 -41 111 28 c 0,28,29
 55 96 55 96 54 160 c 0,30,31
 54 171 54 171 54 193 c 256,32,33
 54 215 54 215 70 219 c 1,34,35
 103 219 103 219 169 219 c 0,36,37
 180 218 180 218 181 207 c 0,38,39
 181 206 181 206 181 203 c 0,40,41
 181 49 181 49 315 49 c 0,42,43
 316 49 316 49 319 49 c 0,44,45
 423 49 423 49 454 156 c 0,46,47
 458 178 458 178 458 191 c 256,48,49
 458 204 458 204 458 231 c 0,50,51
 458 322 458 322 387 361 c 0,52,53
 351 377 351 377 311 378 c 0,54,55
 245 378 245 378 150 340 c 0,56,57
 128 327 128 327 123 335 c 1,58,59
 115 339 115 339 98 347 c 0,60,61
 91 353 91 353 95 371 c 0,62,63
 117 497 117 497 161 749 c 0,64,65
 162 761 162 761 173 762 c 0,0,1
EndSplineSet
EndChar

StartChar: uniff16
Encoding: 65302 65302 119
Width: 696
GlyphClass: 1
Flags: W
LayerCount: 2
Fore
SplineSet
365 -65 m 0,0,1
 295 -65 295 -65 238 -46 c 256,2,3
 181 -27 181 -27 140 12 c 256,4,5
 99 51 99 51 78 110 c 0,6,7
 56 170 56 170 56 249 c 0,8,9
 55 463 55 463 184 603 c 0,10,11
 314 743 314 743 464 781 c 0,12,13
 471 783 471 783 476 783 c 0,14,15
 488 784 488 784 492 771 c 0,16,17
 499 756 499 756 514 726 c 0,18,19
 515 722 515 722 515 719 c 0,20,21
 516 709 516 709 504 701 c 0,22,23
 443 669 443 669 390 626 c 0,24,25
 338 584 338 584 302 526 c 0,26,27
 267 469 267 469 257 425 c 1,28,29
 285 443 285 443 322 457 c 0,30,31
 358 470 358 470 406 470 c 0,32,33
 530 470 530 470 598 402 c 0,34,35
 667 334 667 334 667 204 c 0,36,37
 667 139 667 139 646 89 c 256,38,39
 625 39 625 39 585 5 c 0,40,41
 546 -29 546 -29 490 -47 c 256,42,43
 434 -65 434 -65 365 -65 c 0,0,1
232 205 m 0,44,45
 236 116 236 116 270 72 c 0,46,47
 305 27 305 27 365 27 c 0,48,49
 423 27 423 27 458 72 c 0,50,51
 492 116 492 116 492 204 c 256,52,53
 492 292 492 292 458 336 c 0,54,55
 423 379 423 379 365 379 c 0,56,57
 333 379 333 379 301 366 c 0,58,59
 269 354 269 354 244 332 c 1,60,61
 231 279 231 279 232 205 c 0,44,45
EndSplineSet
EndChar

StartChar: uniff17
Encoding: 65303 65303 120
Width: 594
GlyphClass: 1
Flags: W
LayerCount: 2
Fore
SplineSet
604 763 m 1,0,1
 620 757 620 757 621 742 c 1,2,3
 419 469 419 469 360 87 c 0,4,5
 349 12 349 12 311 -20 c 0,6,7
 274 -53 274 -53 190 -55 c 0,8,9
 183 -54 183 -54 172 -47 c 1,10,11
 186 371 186 371 437 631 c 1,12,13
 328 631 328 631 109 631 c 0,14,15
 51 631 51 631 27 595 c 0,16,17
 26 595 26 595 23 595 c 0,18,19
 11 598 11 598 10 610 c 0,20,21
 19 656 19 656 38 749 c 0,22,23
 42 762 42 762 57 763 c 0,24,25
 239 763 239 763 604 763 c 1,0,1
EndSplineSet
EndChar

StartChar: uniff18
Encoding: 65304 65304 121
Width: 686
GlyphClass: 1
Flags: W
LayerCount: 2
Fore
SplineSet
34 165 m 0,0,1
 34 199 34 199 45 230 c 0,2,3
 56 260 56 260 77 286 c 256,4,5
 98 312 98 312 127 331 c 256,6,7
 156 350 156 350 191 359 c 1,8,9
 155 378 155 378 130 400 c 0,10,11
 106 423 106 423 92 447 c 0,12,13
 78 472 78 472 72 499 c 256,14,15
 66 526 66 526 66 557 c 0,16,17
 66 654 66 654 139 712 c 0,18,19
 212 769 212 769 347 769 c 0,20,21
 415 769 415 769 467 754 c 256,22,23
 519 739 519 739 555 712 c 0,24,25
 591 686 591 686 610 649 c 0,26,27
 629 611 629 611 629 567 c 0,28,29
 629 533 629 533 619 504 c 256,30,31
 609 475 609 475 592 452 c 256,32,33
 575 429 575 429 552 412 c 0,34,35
 530 396 530 396 505 388 c 1,36,37
 588 348 588 348 624 295 c 256,38,39
 660 242 660 242 660 166 c 0,40,41
 660 50 660 50 580 -9 c 0,42,43
 500 -67 500 -67 347 -67 c 256,44,45
 194 -67 194 -67 114 -9 c 0,46,47
 34 50 34 50 34 165 c 0,0,1
489 182 m 0,48,49
 479 210 479 210 460 232 c 0,50,51
 442 254 442 254 403 275 c 0,52,53
 364 297 364 297 310 307 c 1,54,55
 249 272 249 272 226 236 c 0,56,57
 203 199 203 199 203 157 c 0,58,59
 203 91 203 91 242 57 c 0,60,61
 280 23 280 23 347 23 c 0,62,63
 415 23 415 23 450 50 c 0,64,65
 484 76 484 76 491 115 c 0,66,67
 499 155 499 155 489 182 c 0,48,49
234 574 m 0,68,69
 234 548 234 548 243 528 c 0,70,71
 253 509 253 509 272 491 c 0,72,73
 291 474 291 474 314 463 c 0,74,75
 336 452 336 452 380 439 c 1,76,77
 422 464 422 464 443 498 c 0,78,79
 463 532 463 532 463 583 c 0,80,81
 460 625 460 625 428 652 c 0,82,83
 397 680 397 680 347 680 c 256,84,85
 297 680 297 680 265 650 c 0,86,87
 234 621 234 621 234 574 c 0,68,69
EndSplineSet
EndChar

StartChar: uniff19
Encoding: 65305 65305 122
Width: 645
GlyphClass: 1
Flags: W
LayerCount: 2
Fore
SplineSet
327 784 m 256,0,1
 395 784 395 784 450 766 c 0,2,3
 506 748 506 748 546 709 c 0,4,5
 586 671 586 671 607 613 c 0,6,7
 629 555 629 555 629 477 c 0,8,9
 629 391 629 391 603 308 c 256,10,11
 577 225 577 225 527 155 c 0,12,13
 478 86 478 86 408 35 c 0,14,15
 337 -16 337 -16 228 -54 c 0,16,17
 221 -56 221 -56 216 -56 c 0,18,19
 204 -56 204 -56 200 -43 c 0,20,21
 193 -29 193 -29 180 0 c 0,22,23
 178 4 178 4 178 7 c 0,24,25
 177 16 177 16 189 24 c 0,26,27
 249 56 249 56 286 84 c 0,28,29
 324 113 324 113 353 147 c 0,30,31
 382 182 382 182 402 222 c 256,32,33
 422 262 422 262 431 305 c 1,34,35
 404 287 404 287 368 274 c 256,36,37
 332 261 332 261 286 261 c 0,38,39
 165 261 165 261 98 327 c 0,40,41
 30 394 30 394 30 521 c 0,42,43
 30 584 30 584 51 634 c 0,44,45
 72 683 72 683 110 716 c 0,46,47
 148 750 148 750 204 767 c 0,48,49
 259 784 259 784 327 784 c 256,0,1
456 520 m 0,50,51
 452 608 452 608 418 652 c 0,52,53
 384 695 384 695 327 695 c 256,54,55
 270 695 270 695 236 652 c 0,56,57
 202 608 202 608 202 521 c 0,58,59
 202 435 202 435 235 393 c 0,60,61
 269 350 269 350 327 350 c 0,62,63
 358 350 358 350 389 362 c 256,64,65
 420 374 420 374 444 396 c 1,66,67
 457 448 457 448 456 520 c 0,50,51
EndSplineSet
EndChar

StartChar: uniff1a
Encoding: 65306 65306 123
Width: 696
GlyphClass: 1
Flags: W
LayerCount: 2
Fore
SplineSet
69 432 m 256,0,1
 69 471 69 471 94 496 c 0,2,3
 118 520 118 520 160 520 c 0,4,5
 201 520 201 520 225 496 c 0,6,7
 250 471 250 471 250 432 c 256,8,9
 250 393 250 393 225 368 c 0,10,11
 201 344 201 344 160 344 c 0,12,13
 118 344 118 344 94 368 c 0,14,15
 69 393 69 393 69 432 c 256,0,1
69 60 m 256,16,17
 69 99 69 99 94 124 c 0,18,19
 118 148 118 148 160 148 c 0,20,21
 201 148 201 148 225 124 c 0,22,23
 250 99 250 99 250 60 c 256,24,25
 250 21 250 21 225 -4 c 0,26,27
 201 -28 201 -28 160 -28 c 0,28,29
 118 -28 118 -28 94 -4 c 0,30,31
 69 21 69 21 69 60 c 256,16,17
EndSplineSet
EndChar

StartChar: uniff1b
Encoding: 65307 65307 124
Width: 819
GlyphClass: 1
Flags: W
LayerCount: 2
Fore
SplineSet
142 554 m 256,0,1
 142 598 142 598 170 626 c 0,2,3
 198 653 198 653 245 653 c 256,4,5
 292 653 292 653 320 626 c 0,6,7
 347 598 347 598 347 554 c 256,8,9
 347 510 347 510 320 483 c 0,10,11
 292 455 292 455 245 455 c 0,12,13
 237 455 237 455 229 456 c 0,14,15
 193 460 193 460 170 483 c 0,16,17
 142 510 142 510 142 554 c 256,0,1
347 131 m 0,18,19
 347 126 347 126 347 121 c 0,20,21
 347 -71 347 -71 162 -114 c 0,22,23
 151 -114 151 -114 150 -102 c 1,24,25
 225 -64 225 -64 239 40 c 1,26,27
 151 39 151 39 143 132 c 0,28,29
 144 142 144 142 144 151 c 0,30,31
 154 230 154 230 244 232 c 0,32,33
 338 231 338 231 347 131 c 0,18,19
EndSplineSet
EndChar

StartChar: uniff1c
Encoding: 65308 65308 125
Width: 829
GlyphClass: 1
Flags: W
LayerCount: 2
Fore
SplineSet
684 594 m 1,0,1
 685 596 685 596 685 512 c 0,2,3
 685 511 685 511 685 509 c 0,4,5
 685 480 685 480 668 469 c 0,6,7
 573 420 573 420 382 321 c 1,8,9
 382 321 382 321 382 322 c 1,10,11
 451 286 451 286 656 178 c 0,12,13
 684 165 684 165 684 133 c 0,14,15
 684 47 684 47 684 42 c 0,16,17
 684 26 684 26 669 26 c 1,18,19
 514 105 514 105 203 264 c 0,20,21
 175 276 175 276 174 305 c 0,22,23
 174 316 174 316 174 337 c 0,24,25
 174 338 174 338 174 339 c 0,26,27
 174 365 174 365 202 376 c 0,28,29
 359 456 359 456 674 617 c 0,30,31
 675 617 675 617 677 618 c 0,32,33
 686 618 686 618 684 594 c 1,0,1
EndSplineSet
EndChar

StartChar: uniff1d
Encoding: 65309 65309 126
Width: 768
GlyphClass: 1
Flags: W
LayerCount: 2
Fore
SplineSet
162 510 m 0,0,1
 277 510 277 510 623 510 c 0,2,3
 637 510 637 510 637 500 c 0,4,5
 637 471 637 471 637 414 c 0,6,7
 636 402 636 402 624 402 c 0,8,9
 470 402 470 402 162 402 c 0,10,11
 152 402 152 402 152 415 c 0,12,13
 152 443 152 443 152 500 c 0,14,15
 152 509 152 509 162 510 c 0,0,1
162 287 m 0,16,17
 277 287 277 287 623 287 c 0,18,19
 637 287 637 287 637 276 c 0,20,21
 637 247 637 247 637 190 c 0,22,23
 636 179 636 179 624 179 c 0,24,25
 470 179 470 179 162 179 c 0,26,27
 152 179 152 179 152 191 c 0,28,29
 152 219 152 219 152 276 c 0,30,31
 152 286 152 286 162 287 c 0,16,17
EndSplineSet
EndChar

StartChar: uniff1e
Encoding: 65310 65310 127
Width: 809
GlyphClass: 1
Flags: W
LayerCount: 2
Fore
SplineSet
143 599 m 1,0,1
 143 601 143 601 143 602 c 0,2,3
 143 623 143 623 152 623 c 0,4,5
 153 624 153 624 155 623 c 0,6,7
 312 542 312 542 627 381 c 0,8,9
 653 371 653 371 653 346 c 0,10,11
 653 345 653 345 653 343 c 0,12,13
 653 332 653 332 653 311 c 0,14,15
 653 281 653 281 626 270 c 0,16,17
 471 191 471 191 160 32 c 1,18,19
 144 32 144 32 143 48 c 0,20,21
 143 52 143 52 143 138 c 0,22,23
 143 170 143 170 172 184 c 0,24,25
 263 232 263 232 445 327 c 1,26,27
 445 327 445 327 445 326 c 1,28,29
 374 363 374 363 160 474 c 0,30,31
 142 487 142 487 143 518 c 0,32,33
 143 602 143 602 143 599 c 1,0,1
EndSplineSet
EndChar

StartChar: uniff1f
Encoding: 65311 65311 128
Width: 1096
GlyphClass: 1
Flags: W
LayerCount: 2
Fore
SplineSet
275 28 m 256,0,1
 275 72 275 72 304 100 c 0,2,3
 332 127 332 127 379 127 c 2,4,5
 379 127 379 127 380 127 c 0,6,7
 428 127 428 127 456 100 c 0,8,9
 484 72 484 72 484 28 c 256,10,11
 484 -16 484 -16 456 -44 c 256,12,13
 428 -72 428 -72 380 -72 c 256,14,15
 332 -72 332 -72 304 -44 c 0,16,17
 275 -16 275 -16 275 28 c 256,0,1
379 823 m 0,18,19
 612 812 612 812 634 638 c 0,20,21
 634 630 634 630 634 614 c 0,22,23
 627 445 627 445 482 376 c 0,24,25
 459 369 459 369 455 346 c 1,26,27
 455 319 455 319 455 266 c 0,28,29
 455 224 455 224 414 220 c 0,30,31
 401 220 401 220 376 219 c 0,32,33
 368 219 368 219 343 219 c 0,34,35
 293 218 293 218 293 264 c 1,36,37
 293 229 293 229 294 378 c 1,38,39
 290 419 290 419 392 483 c 0,40,41
 469 535 469 535 466 632 c 256,42,43
 463 729 463 729 383 739 c 1,44,45
 322 738 322 738 301 692 c 1,46,47
 281 630 281 630 287 567 c 0,48,49
 288 547 288 547 272 543 c 1,50,51
 226 543 226 543 133 543 c 0,52,53
 118 545 118 545 118 563 c 0,54,55
 118 576 118 576 117 602 c 0,56,57
 117 754 117 754 255 805 c 0,58,59
 308 824 308 824 379 823 c 0,18,19
EndSplineSet
EndChar

StartChar: uniff20
Encoding: 65312 65312 129
Width: 1229
GlyphClass: 1
Flags: W
LayerCount: 2
Fore
SplineSet
680 811 m 1,0,1
 1050 791 1050 791 1082 460 c 0,2,3
 1082 455 1082 455 1082 449 c 0,4,5
 1082 223 1082 223 874 115 c 0,6,7
 829 90 829 90 784 94 c 1,8,9
 697 114 697 114 697 177 c 1,10,11
 697 177 697 177 697 177 c 1,12,13
 639 99 639 99 539 99 c 0,14,15
 530 99 530 99 513 99 c 0,16,17
 367 108 367 108 371 233 c 0,18,19
 374 377 374 377 651 434 c 0,20,21
 696 445 696 445 692 470 c 0,22,23
 692 479 692 479 692 496 c 0,24,25
 682 563 682 563 615 562 c 1,26,27
 545 552 545 552 535 475 c 0,28,29
 534 453 534 453 518 455 c 0,30,31
 490 455 490 455 435 455 c 0,32,33
 420 457 420 457 420 475 c 0,34,35
 437 637 437 637 631 644 c 1,36,37
 847 639 847 639 847 475 c 1,38,39
 843 405 843 405 834 264 c 0,40,41
 830 218 830 218 863 229 c 1,42,43
 933 295 933 295 944 388 c 0,44,45
 963 560 963 560 881 639 c 256,46,47
 799 718 799 718 683 721 c 1,48,49
 483 718 483 718 392 607 c 0,50,51
 300 495 300 495 294 359 c 0,52,53
 277 20 277 20 649 -18 c 1,54,55
 800 -11 800 -11 913 74 c 1,56,57
 972 136 972 136 1039 137 c 0,58,59
 1054 135 1054 135 1054 125 c 1,60,61
 942 -115 942 -115 674 -125 c 1,62,63
 330 -123 330 -123 197 110 c 1,64,65
 153 200 153 200 147 315 c 0,66,67
 147 317 147 317 147 321 c 0,68,69
 159 691 159 691 486 788 c 0,70,71
 559 810 559 810 680 811 c 1,0,1
523 239 m 0,72,73
 526 197 526 197 569 187 c 0,74,75
 576 187 576 187 590 187 c 0,76,77
 677 187 677 187 681 365 c 1,78,79
 523 331 523 331 523 239 c 0,72,73
EndSplineSet
EndChar

StartChar: uniff21
Encoding: 65313 65313 130
Width: 676
GlyphClass: 1
Flags: W
LayerCount: 2
Fore
SplineSet
291 761 m 0,0,1
 318 761 318 761 397 761 c 0,2,3
 399 761 399 761 401 761 c 0,4,5
 427 761 427 761 434 737 c 0,6,7
 698 -29 698 -29 698 -40 c 0,8,9
 698 -48 698 -48 690 -48 c 0,10,11
 675 -48 675 -48 646 -48 c 0,12,13
 522 -48 522 -48 464 100 c 0,14,15
 442 157 442 157 440 164 c 1,16,17
 351 164 351 164 174 164 c 1,18,19
 172 159 172 159 116 -15 c 0,20,21
 109 -28 109 -28 88 -38 c 0,22,23
 60 -49 60 -49 24 -49 c 0,24,25
 14 -49 14 -49 4 -48 c 0,26,27
 -4 -48 -4 -48 -4 -40 c 0,28,29
 29 78 29 78 254 737 c 0,30,31
 264 762 264 762 291 761 c 0,0,1
311 582 m 0,32,33
 285 502 285 502 206 262 c 1,34,35
 258 262 258 262 412 262 c 1,36,37
 412 263 412 263 412 266 c 0,38,39
 388 345 388 345 315 582 c 0,40,41
 314 582 314 582 311 582 c 0,32,33
EndSplineSet
EndChar

StartChar: uniff22
Encoding: 65314 65314 131
Width: 707
GlyphClass: 1
Flags: W
LayerCount: 2
Fore
SplineSet
265 668 m 1,0,1
 265 609 265 609 265 432 c 1,2,3
 284 432 284 432 342 432 c 0,4,5
 398 432 398 432 432 462 c 0,6,7
 465 493 465 493 465 550 c 256,8,9
 465 607 465 607 432 638 c 0,10,11
 398 668 398 668 342 668 c 0,12,13
 316 668 316 668 265 668 c 1,0,1
37 763 m 0,14,15
 126 763 126 763 394 763 c 0,16,17
 592 763 592 763 638 632 c 1,18,19
 647 593 647 593 646 578 c 0,20,21
 646 443 646 443 522 399 c 0,22,23
 519 398 519 398 514 396 c 1,24,25
 556 389 556 389 592 371 c 1,26,27
 691 308 691 308 691 198 c 0,28,29
 691 189 691 189 691 172 c 0,30,31
 691 22 691 22 522 -27 c 0,32,33
 470 -39 470 -39 408 -39 c 0,34,35
 313 -39 313 -39 123 -39 c 0,36,37
 90 -39 90 -39 90 -5 c 0,38,39
 90 210 90 210 90 640 c 0,40,41
 90 696 90 696 20 742 c 0,42,43
 20 743 20 743 20 746 c 0,44,45
 25 760 25 760 37 763 c 0,14,15
267 337 m 1,46,47
 267 270 267 270 267 71 c 0,48,49
 270 58 270 58 280 57 c 0,50,51
 303 57 303 57 349 57 c 0,52,53
 510 57 510 57 510 193 c 0,54,55
 510 337 510 337 345 337 c 0,56,57
 319 337 319 337 267 337 c 1,46,47
EndSplineSet
EndChar

StartChar: uniff23
Encoding: 65315 65315 132
Width: 737
GlyphClass: 1
Flags: W
LayerCount: 2
Fore
SplineSet
654 772 m 0,0,1
 656 773 656 773 658 773 c 0,2,3
 665 773 665 773 669 764 c 0,4,5
 682 688 682 688 707 537 c 0,6,7
 710 515 710 515 689 515 c 0,8,9
 688 515 688 515 687 515 c 0,10,11
 677 515 677 515 647 516 c 0,12,13
 633 517 633 517 630 530 c 0,14,15
 554 660 554 660 426 669 c 1,16,17
 294 669 294 669 239 532 c 0,18,19
 209 448 209 448 209 357 c 0,20,21
 209 90 209 90 379 47 c 0,22,23
 396 43 396 43 413 43 c 0,24,25
 426 43 426 43 452 43 c 0,26,27
 554 43 554 43 669 146 c 0,28,29
 681 155 681 155 690 146 c 0,30,31
 701 137 701 137 724 119 c 0,32,33
 731 114 731 114 731 106 c 0,34,35
 731 103 731 103 731 101 c 0,36,37
 687 24 687 24 595 -24 c 1,38,39
 514 -59 514 -59 422 -59 c 0,40,41
 420 -59 420 -59 417 -59 c 0,42,43
 87 -56 87 -56 26 258 c 0,44,45
 18 301 18 301 17 379 c 0,46,47
 17 630 17 630 247 736 c 0,48,49
 317 766 317 766 417 766 c 0,50,51
 509 766 509 766 622 720 c 1,52,53
 649 732 649 732 654 772 c 0,0,1
EndSplineSet
EndChar

StartChar: uniff24
Encoding: 65316 65316 133
Width: 788
GlyphClass: 1
Flags: W
LayerCount: 2
Fore
SplineSet
33 763 m 1,0,1
 118 763 118 763 373 763 c 0,2,3
 630 763 630 763 722 559 c 1,4,5
 761 484 761 484 761 358 c 0,6,7
 761 84 761 84 539 -24 c 0,8,9
 470 -54 470 -54 375 -54 c 0,10,11
 372 -54 372 -54 369 -54 c 0,12,13
 287 -54 287 -54 122 -54 c 0,14,15
 88 -54 88 -54 88 -18 c 0,16,17
 88 200 88 200 88 637 c 0,18,19
 88 694 88 694 16 740 c 0,20,21
 16 741 16 741 16 744 c 0,22,23
 19 759 19 759 33 763 c 1,0,1
266 657 m 1,24,25
 266 515 266 515 266 90 c 0,26,27
 264 71 264 71 284 70 c 0,28,29
 578 60 578 60 578 362 c 0,30,31
 578 592 578 592 424 645 c 0,32,33
 382 657 382 657 313 657 c 0,34,35
 297 657 297 657 266 657 c 1,24,25
EndSplineSet
EndChar

StartChar: uniff25
Encoding: 65317 65317 134
Width: 645
GlyphClass: 1
Flags: W
LayerCount: 2
Fore
SplineSet
55 766 m 0,0,1
 187 766 187 766 581 766 c 0,2,3
 594 766 594 766 602 758 c 1,4,5
 610 722 610 722 626 649 c 0,6,7
 626 646 626 646 626 636 c 0,8,9
 622 624 622 624 610 623 c 1,10,11
 581 664 581 664 526 662 c 0,12,13
 441 662 441 662 270 662 c 1,14,15
 270 604 270 604 270 431 c 1,16,17
 343 431 343 431 560 431 c 1,18,19
 572 427 572 427 572 414 c 0,20,21
 572 391 572 391 572 345 c 0,22,23
 571 330 571 330 556 328 c 0,24,25
 298 327 298 327 270 327 c 1,26,27
 270 326 270 326 270 323 c 0,28,29
 270 89 270 89 270 84 c 1,30,31
 352 84 352 84 515 84 c 1,32,33
 602 89 602 89 602 124 c 1,34,35
 606 124 606 124 614 124 c 0,36,37
 624 120 624 120 626 106 c 0,38,39
 621 59 621 59 610 -35 c 0,40,41
 605 -47 605 -47 594 -47 c 0,42,43
 593 -47 593 -47 592 -47 c 0,44,45
 431 -47 431 -47 110 -47 c 1,46,47
 93 -38 93 -38 93 -11 c 0,48,49
 93 206 93 206 93 640 c 0,50,51
 93 703 93 703 22 740 c 1,52,53
 30 766 30 766 55 766 c 0,0,1
EndSplineSet
EndChar

StartChar: uniff26
Encoding: 65318 65318 135
Width: 594
GlyphClass: 1
Flags: W
LayerCount: 2
Fore
SplineSet
57 767 m 0,0,1
 183 767 183 767 563 767 c 0,2,3
 581 766 581 766 587 752 c 0,4,5
 601 663 601 663 606 637 c 0,6,7
 606 636 606 636 606 634 c 0,8,9
 606 618 606 618 590 613 c 1,10,11
 567 662 567 662 500 665 c 0,12,13
 422 665 422 665 266 665 c 1,14,15
 266 605 266 605 266 425 c 1,16,17
 336 425 336 425 547 425 c 0,18,19
 555 424 555 424 555 417 c 0,20,21
 555 390 555 390 555 336 c 0,22,23
 555 327 555 327 547 327 c 0,24,25
 453 327 453 327 266 327 c 1,26,27
 266 272 266 272 266 105 c 0,28,29
 266 -26 266 -26 103 -52 c 0,30,31
 102 -52 102 -52 99 -52 c 0,32,33
 90 -52 90 -52 90 -44 c 0,34,35
 90 184 90 184 90 639 c 0,36,37
 88 711 88 711 19 745 c 1,38,39
 19 767 19 767 57 767 c 0,0,1
EndSplineSet
EndChar

StartChar: uniff27
Encoding: 65319 65319 136
Width: 788
GlyphClass: 1
Flags: W
LayerCount: 2
Fore
SplineSet
666 780 m 0,0,1
 668 780 668 780 671 780 c 0,2,3
 685 781 685 781 688 765 c 0,4,5
 698 687 698 687 718 530 c 0,6,7
 720 517 720 517 703 517 c 0,8,9
 683 517 683 517 643 518 c 0,10,11
 626 516 626 516 621 535 c 0,12,13
 570 671 570 671 433 673 c 1,14,15
 221 657 221 657 211 374 c 1,16,17
 218 137 218 137 334 66 c 0,18,19
 383 40 383 40 437 40 c 0,20,21
 473 40 473 40 537 56 c 1,22,23
 537 112 537 112 537 224 c 0,24,25
 537 281 537 281 463 333 c 1,26,27
 470 355 470 355 494 354 c 0,28,29
 580 354 580 354 752 354 c 0,30,31
 776 354 776 354 782 337 c 0,32,33
 782 336 782 336 782 333 c 0,34,35
 708 284 708 284 709 208 c 0,36,37
 709 150 709 150 709 35 c 0,38,39
 709 -26 709 -26 565 -50 c 0,40,41
 518 -59 518 -59 446 -59 c 0,42,43
 430 -59 430 -59 398 -59 c 0,44,45
 189 -52 189 -52 103 68 c 0,46,47
 20 184 20 184 20 362 c 0,48,49
 20 366 20 366 20 370 c 0,50,51
 19 652 19 652 273 750 c 0,52,53
 326 772 326 772 427 772 c 0,54,55
 527 771 527 771 631 724 c 1,56,57
 660 738 660 738 666 780 c 0,0,1
EndSplineSet
EndChar

StartChar: uniff28
Encoding: 65320 65320 137
Width: 799
GlyphClass: 1
Flags: W
LayerCount: 2
Fore
SplineSet
35 764 m 1,0,1
 90 764 90 764 253 764 c 1,2,3
 270 757 270 757 270 733 c 0,4,5
 270 637 270 637 270 444 c 1,6,7
 341 444 341 444 553 444 c 1,8,9
 553 521 553 521 553 751 c 0,10,11
 553 757 553 757 565 764 c 1,12,13
 615 764 615 764 716 764 c 1,14,15
 732 757 732 757 732 733 c 0,16,17
 732 545 732 545 732 170 c 1,18,19
 727 33 727 33 669 -9 c 256,20,21
 611 -51 611 -51 561 -51 c 1,22,23
 558 -47 558 -47 553 -39 c 1,24,25
 553 55 553 55 553 338 c 1,26,27
 482 338 482 338 270 338 c 1,28,29
 270 284 270 284 271 122 c 0,30,31
 270 6 270 6 176 -31 c 0,32,33
 126 -51 126 -51 99 -51 c 1,34,35
 96 -47 96 -47 90 -39 c 1,36,37
 90 125 90 125 90 618 c 0,38,39
 90 698 90 698 17 742 c 0,40,41
 17 743 17 743 17 746 c 0,42,43
 19 759 19 759 35 764 c 1,0,1
100 -51 m 0,44,45
 90 -51 90 -51 90 -42 c 256,46,47
 90 -33 90 -33 100 -33 c 0,48,49
 109 -33 109 -33 110 -42 c 0,50,51
 109 -51 109 -51 100 -51 c 0,44,45
100 -51 m 0,52,53
 90 -51 90 -51 90 -42 c 256,54,55
 90 -33 90 -33 100 -33 c 0,56,57
 109 -33 109 -33 110 -42 c 0,58,59
 109 -51 109 -51 100 -51 c 0,52,53
562 -51 m 0,60,61
 553 -51 553 -51 553 -42 c 256,62,63
 553 -33 553 -33 562 -33 c 0,64,65
 572 -33 572 -33 572 -42 c 256,66,67
 572 -51 572 -51 562 -51 c 0,60,61
EndSplineSet
EndChar

StartChar: uniff29
Encoding: 65321 65321 138
Width: 389
GlyphClass: 1
Flags: W
LayerCount: 2
Fore
SplineSet
50 766 m 1,0,1
 123 766 123 766 343 766 c 1,2,3
 360 760 360 760 365 744 c 0,4,5
 365 743 365 743 365 740 c 0,6,7
 292 696 292 696 292 635 c 0,8,9
 292 450 292 450 292 81 c 0,10,11
 292 20 292 20 365 -25 c 0,12,13
 365 -26 365 -26 365 -29 c 0,14,15
 362 -46 362 -46 343 -49 c 0,16,17
 245 -49 245 -49 50 -49 c 0,18,19
 30 -46 30 -46 29 -29 c 0,20,21
 29 -28 29 -28 29 -25 c 0,22,23
 103 19 103 19 102 81 c 0,24,25
 102 266 102 266 102 635 c 0,26,27
 102 696 102 696 29 740 c 0,28,29
 29 741 29 741 29 744 c 0,30,31
 33 760 33 760 50 766 c 1,0,1
EndSplineSet
EndChar

StartChar: uniff2a
Encoding: 65322 65322 139
Width: 358
GlyphClass: 1
Flags: W
LayerCount: 2
Fore
SplineSet
55 768 m 0,0,1
 108 768 108 768 267 768 c 0,2,3
 275 768 275 768 282 753 c 1,4,5
 282 499 282 499 282 -9 c 0,6,7
 282 -197 282 -197 113 -280 c 1,8,9
 47 -305 47 -305 -27 -305 c 0,10,11
 -29 -305 -29 -305 -32 -305 c 0,12,13
 -43 -303 -43 -303 -46 -291 c 1,14,15
 104 -218 104 -218 103 -15 c 0,16,17
 103 191 103 191 103 602 c 0,18,19
 103 692 103 692 23 743 c 0,20,21
 23 745 23 745 23 748 c 0,22,23
 29 768 29 768 55 768 c 0,0,1
EndSplineSet
EndChar

StartChar: uniff2b
Encoding: 65323 65323 140
Width: 737
GlyphClass: 1
Flags: W
LayerCount: 2
Fore
SplineSet
44 765 m 0,0,1
 95 765 95 765 249 765 c 0,2,3
 255 765 255 765 261 752 c 1,4,5
 261 626 261 626 261 374 c 1,6,7
 262 374 262 374 265 374 c 0,8,9
 316 447 316 447 470 667 c 0,10,11
 471 671 471 671 472 681 c 0,12,13
 472 721 472 721 420 743 c 0,14,15
 420 745 420 745 420 748 c 0,16,17
 427 765 427 765 450 765 c 0,18,19
 528 765 528 765 683 765 c 0,20,21
 713 765 713 765 713 739 c 1,22,23
 635 723 635 723 597 664 c 0,24,25
 548 593 548 593 450 451 c 1,26,27
 653 70 653 70 684 45 c 1,28,29
 722 6 722 6 779 -27 c 0,30,31
 779 -29 779 -29 779 -32 c 0,32,33
 777 -41 777 -41 767 -44 c 0,34,35
 739 -45 739 -45 684 -46 c 0,36,37
 677 -46 677 -46 669 -46 c 0,38,39
 556 -46 556 -46 486 46 c 1,40,41
 438 134 438 134 342 309 c 1,42,43
 342 309 342 309 341 309 c 0,44,45
 321 284 321 284 261 209 c 1,46,47
 261 185 261 185 261 115 c 0,48,49
 261 -17 261 -17 94 -44 c 0,50,51
 93 -41 93 -41 90 -36 c 0,52,53
 90 113 90 113 90 558 c 0,54,55
 90 721 90 721 15 739 c 0,56,57
 15 740 15 740 15 743 c 0,58,59
 21 765 21 765 44 765 c 0,0,1
94 -44 m 256,60,61
 90 -44 90 -44 90 -40 c 256,62,63
 90 -36 90 -36 90 -32 c 1,64,65
 98 -36 98 -36 98 -40 c 256,66,67
 98 -44 98 -44 94 -44 c 256,60,61
EndSplineSet
EndChar

StartChar: uniff2c
Encoding: 65324 65324 141
Width: 604
GlyphClass: 1
Flags: W
LayerCount: 2
Fore
SplineSet
45 755 m 0,0,1
 94 755 94 755 242 755 c 0,2,3
 265 755 265 755 264 732 c 0,4,5
 264 513 264 513 264 75 c 0,6,7
 264 52 264 52 286 52 c 0,8,9
 398 52 398 52 621 52 c 0,10,11
 633 51 633 51 633 39 c 2,12,13
 633 39 633 39 633 38 c 0,14,15
 626 8 626 8 590 -20 c 0,16,17
 554 -47 554 -47 478 -47 c 0,18,19
 362 -47 362 -47 131 -47 c 0,20,21
 87 -47 87 -47 87 -6 c 0,22,23
 87 201 87 201 87 614 c 0,24,25
 87 690 87 690 16 733 c 0,26,27
 16 735 16 735 16 738 c 0,28,29
 22 755 22 755 45 755 c 0,0,1
EndSplineSet
EndChar

StartChar: uniff2d
Encoding: 65325 65325 142
Width: 983
GlyphClass: 1
Flags: W
LayerCount: 2
Fore
SplineSet
44 764 m 0,0,1
 100 764 100 764 269 764 c 0,2,3
 272 764 272 764 275 764 c 0,4,5
 299 765 299 765 310 744 c 0,6,7
 507 278 507 278 507 261 c 1,8,9
 508 261 508 261 511 261 c 0,10,11
 677 712 677 712 702 756 c 1,12,13
 713 765 713 765 728 764 c 0,14,15
 782 764 782 764 889 764 c 0,16,17
 894 764 894 764 902 752 c 1,18,19
 902 486 902 486 902 -47 c 1,20,21
 815 -48 815 -48 770 -18 c 0,22,23
 724 11 724 11 724 65 c 0,24,25
 724 214 724 214 724 513 c 1,26,27
 723 513 723 513 719 513 c 0,28,29
 671 379 671 379 525 -22 c 1,30,31
 518 -23 518 -23 498 -24 c 0,32,33
 436 -24 436 -24 412 15 c 1,34,35
 319 266 319 266 210 542 c 0,36,37
 209 542 209 542 206 542 c 1,38,39
 206 423 206 423 206 65 c 0,40,41
 206 -11 206 -11 133 -39 c 0,42,43
 108 -47 108 -47 99 -47 c 0,44,45
 97 -47 97 -47 96 -47 c 0,46,47
 94 -44 94 -44 91 -39 c 0,48,49
 91 123 91 123 91 609 c 0,50,51
 91 704 91 704 14 742 c 1,52,53
 19 764 19 764 44 764 c 0,0,1
95 -47 m 0,54,55
 91 -47 91 -47 91 -43 c 256,56,57
 91 -39 91 -39 91 -35 c 1,58,59
 99 -39 99 -39 99 -43 c 0,60,61
 99 -48 99 -48 95 -47 c 0,54,55
EndSplineSet
EndChar

StartChar: uniff2e
Encoding: 65326 65326 143
Width: 840
GlyphClass: 1
Flags: W
LayerCount: 2
Fore
SplineSet
46 764 m 0,0,1
 97 764 97 764 250 764 c 0,2,3
 251 764 251 764 253 764 c 0,4,5
 287 764 287 764 302 738 c 0,6,7
 413 582 413 582 634 270 c 1,8,9
 634 354 634 354 634 606 c 0,10,11
 634 704 634 704 557 742 c 1,12,13
 563 764 563 764 587 764 c 0,14,15
 663 764 663 764 816 764 c 1,16,17
 828 760 828 760 834 748 c 0,18,19
 834 745 834 745 834 738 c 1,20,21
 756 720 756 720 753 620 c 0,22,23
 753 402 753 402 753 -33 c 0,24,25
 752 -45 752 -45 735 -50 c 1,26,27
 713 -50 713 -50 670 -50 c 0,28,29
 626 -50 626 -50 596 -5 c 0,30,31
 468 185 468 185 212 564 c 1,32,33
 212 445 212 445 212 86 c 0,34,35
 212 -15 212 -15 135 -46 c 0,36,37
 103 -55 103 -55 96 -55 c 0,38,39
 95 -52 95 -52 92 -46 c 0,40,41
 92 117 92 117 92 606 c 0,42,43
 92 704 92 704 15 742 c 1,44,45
 22 764 22 764 46 764 c 0,0,1
96 -55 m 0,46,47
 92 -55 92 -55 92 -47 c 0,48,49
 92 -40 92 -40 96 -40 c 0,50,51
 102 -40 102 -40 102 -47 c 0,52,53
 102 -55 102 -55 96 -55 c 0,46,47
EndSplineSet
EndChar

StartChar: uniff2f
Encoding: 65327 65327 144
Width: 819
GlyphClass: 1
Flags: W
LayerCount: 2
Fore
SplineSet
15 361 m 256,0,1
 15 457 15 457 44 534 c 0,2,3
 74 611 74 611 125 664 c 0,4,5
 176 718 176 718 247 746 c 256,6,7
 318 774 318 774 402 774 c 256,8,9
 486 774 486 774 558 746 c 0,10,11
 629 718 629 718 680 664 c 0,12,13
 731 611 731 611 761 534 c 0,14,15
 790 458 790 458 790 361 c 0,16,17
 790 265 790 265 761 188 c 0,18,19
 731 112 731 112 680 58 c 0,20,21
 629 5 629 5 558 -23 c 0,22,23
 486 -51 486 -51 402 -51 c 256,24,25
 318 -51 318 -51 247 -23 c 256,26,27
 176 5 176 5 125 58 c 0,28,29
 74 112 74 112 44 188 c 0,30,31
 15 265 15 265 15 361 c 256,0,1
599 361 m 256,32,33
 599 435 599 435 584 493 c 0,34,35
 570 551 570 551 544 592 c 0,36,37
 519 633 519 633 483 654 c 0,38,39
 446 676 446 676 402 676 c 256,40,41
 358 676 358 676 322 654 c 0,42,43
 286 633 286 633 260 592 c 256,44,45
 234 551 234 551 220 493 c 256,46,47
 206 435 206 435 206 361 c 256,48,49
 206 287 206 287 220 230 c 0,50,51
 234 172 234 172 260 131 c 256,52,53
 286 90 286 90 322 68 c 0,54,55
 358 47 358 47 402 47 c 256,56,57
 446 47 446 47 483 68 c 0,58,59
 519 90 519 90 544 131 c 0,60,61
 570 172 570 172 584 230 c 0,62,63
 599 287 599 287 599 361 c 256,32,33
EndSplineSet
EndChar

StartChar: uniff30
Encoding: 65328 65328 145
Width: 686
GlyphClass: 1
Flags: W
LayerCount: 2
Fore
SplineSet
47 762 m 0,0,1
 118 762 118 762 332 762 c 0,2,3
 672 762 672 762 672 511 c 0,4,5
 672 320 672 320 472 269 c 1,6,7
 390 254 390 254 268 260 c 1,8,9
 268 210 268 210 268 109 c 0,10,11
 268 -12 268 -12 104 -61 c 1,12,13
 88 -60 88 -60 90 -45 c 0,14,15
 90 177 90 177 90 622 c 0,16,17
 90 699 90 699 17 736 c 0,18,19
 17 739 17 739 17 744 c 0,20,21
 24 762 24 762 47 762 c 0,0,1
268 665 m 1,22,23
 268 588 268 588 268 358 c 1,24,25
 288 358 288 358 349 358 c 0,26,27
 497 358 497 358 498 511 c 0,28,29
 498 665 498 665 345 665 c 0,30,31
 319 665 319 665 268 665 c 1,22,23
EndSplineSet
EndChar

StartChar: uniff31
Encoding: 65329 65329 146
Width: 819
GlyphClass: 1
Flags: W
LayerCount: 2
Fore
SplineSet
411 779 m 1,0,1
 660 777 660 777 760 528 c 0,2,3
 786 462 786 462 786 369 c 0,4,5
 786 366 786 366 786 362 c 0,6,7
 786 109 786 109 579 -1 c 1,8,9
 631 -116 631 -116 706 -176 c 1,10,11
 742 -199 742 -199 763 -207 c 1,12,13
 761 -217 761 -217 743 -222 c 1,14,15
 721 -222 721 -222 676 -222 c 0,16,17
 485 -222 485 -222 396 -40 c 1,18,19
 391 -40 391 -40 380 -40 c 0,20,21
 16 27 16 27 15 379 c 1,22,23
 41 771 41 771 411 779 c 1,0,1
210 375 m 1,24,25
 228 61 228 61 409 57 c 0,26,27
 578 57 578 57 591 378 c 1,28,29
 572 668 572 668 407 682 c 1,30,31
 232 667 232 667 210 375 c 1,24,25
EndSplineSet
EndChar

StartChar: uniff32
Encoding: 65330 65330 147
Width: 737
GlyphClass: 1
Flags: W
LayerCount: 2
Fore
SplineSet
36 763 m 1,0,1
 119 763 119 763 367 763 c 1,2,3
 624 755 624 755 646 549 c 0,4,5
 662 369 662 369 512 321 c 0,6,7
 512 319 512 319 512 316 c 1,8,9
 552 316 552 316 624 130 c 1,10,11
 692 -8 692 -8 781 -31 c 0,12,13
 781 -34 781 -34 781 -39 c 0,14,15
 780 -46 780 -46 768 -51 c 1,16,17
 740 -51 740 -51 683 -51 c 0,18,19
 502 -51 502 -51 440 118 c 0,20,21
 379 295 379 295 325 295 c 0,22,23
 309 295 309 295 278 295 c 0,24,25
 275 295 275 295 265 295 c 1,26,27
 265 294 265 294 264 291 c 0,28,29
 264 244 264 244 264 101 c 0,30,31
 264 -29 264 -29 98 -54 c 0,32,33
 90 -54 90 -54 90 -46 c 0,34,35
 90 174 90 174 90 615 c 0,36,37
 90 705 90 705 18 732 c 1,38,39
 18 737 18 737 18 746 c 0,40,41
 22 759 22 759 36 763 c 1,0,1
264 665 m 1,42,43
 264 599 264 599 264 402 c 1,44,45
 282 402 282 402 338 402 c 0,46,47
 468 402 468 402 468 542 c 1,48,49
 454 665 454 665 362 665 c 0,50,51
 329 665 329 665 264 665 c 1,42,43
EndSplineSet
EndChar

StartChar: uniff33
Encoding: 65331 65331 148
Width: 614
GlyphClass: 1
Flags: W
LayerCount: 2
Fore
SplineSet
513 793 m 0,0,1
 514 793 514 793 517 793 c 0,2,3
 525 792 525 792 526 781 c 0,4,5
 538 701 538 701 563 541 c 0,6,7
 563 528 563 528 552 527 c 0,8,9
 536 527 536 527 504 527 c 0,10,11
 490 526 490 526 484 539 c 0,12,13
 412 658 412 658 290 667 c 1,14,15
 194 667 194 667 194 579 c 0,16,17
 194 504 194 504 385 424 c 0,18,19
 589 341 589 341 598 176 c 0,20,21
 598 171 598 171 598 165 c 0,22,23
 598 -47 598 -47 306 -52 c 0,24,25
 304 -52 304 -52 301 -52 c 0,26,27
 119 -52 119 -52 20 110 c 0,28,29
 18 115 18 115 18 119 c 0,30,31
 18 124 18 124 20 127 c 0,32,33
 32 140 32 140 57 167 c 1,34,35
 70 171 70 171 79 160 c 0,36,37
 174 48 174 48 302 44 c 1,38,39
 437 44 437 44 437 137 c 1,40,41
 432 191 432 191 243 293 c 1,42,43
 85 390 85 390 45 487 c 0,44,45
 28 529 28 529 36 596 c 1,46,47
 82 767 82 767 308 764 c 0,48,49
 396 760 396 760 462 725 c 1,50,51
 498 740 498 740 513 793 c 0,0,1
EndSplineSet
EndChar

StartChar: uniff34
Encoding: 65332 65332 149
Width: 696
GlyphClass: 1
Flags: W
LayerCount: 2
Fore
SplineSet
684 762 m 0,0,1
 691 761 691 761 694 755 c 0,2,3
 703 718 703 718 720 644 c 1,4,5
 718 630 718 630 706 630 c 1,6,7
 692 662 692 662 644 665 c 0,8,9
 588 665 588 665 475 665 c 1,10,11
 475 520 475 520 475 86 c 1,12,13
 479 10 479 10 412 -21 c 0,14,15
 344 -52 344 -52 289 -56 c 1,16,17
 286 -52 286 -52 280 -44 c 1,18,19
 280 133 280 133 280 665 c 1,20,21
 237 665 237 665 109 665 c 0,22,23
 65 663 65 663 51 630 c 0,24,25
 49 630 49 630 46 630 c 0,26,27
 35 633 35 633 33 647 c 1,28,29
 39 683 39 683 50 756 c 0,30,31
 52 762 52 762 58 762 c 0,32,33
 267 762 267 762 684 762 c 0,0,1
289 -56 m 0,34,35
 280 -56 280 -56 280 -43 c 256,36,37
 280 -30 280 -30 289 -30 c 0,38,39
 297 -30 297 -30 297 -43 c 256,40,41
 297 -56 297 -56 289 -56 c 0,34,35
EndSplineSet
EndChar

StartChar: uniff35
Encoding: 65333 65333 150
Width: 829
GlyphClass: 1
Flags: W
LayerCount: 2
Fore
SplineSet
41 764 m 0,0,1
 116 764 116 764 340 764 c 0,2,3
 362 763 362 763 361 738 c 1,4,5
 286 739 286 739 279 609 c 1,6,7
 279 498 279 498 279 275 c 0,8,9
 279 64 279 64 449 65 c 0,10,11
 450 65 450 65 453 65 c 0,12,13
 590 65 590 65 617 211 c 1,14,15
 617 353 617 353 617 636 c 0,16,17
 617 715 617 715 544 745 c 1,18,19
 546 760 546 760 561 764 c 1,20,21
 643 764 643 764 807 764 c 1,22,23
 825 759 825 759 825 742 c 0,24,25
 825 740 825 740 825 738 c 1,26,27
 747 738 747 738 742 609 c 1,28,29
 742 475 742 475 742 207 c 0,30,31
 742 9 742 9 490 -40 c 0,32,33
 460 -46 460 -46 430 -46 c 0,34,35
 426 -46 426 -46 422 -46 c 0,36,37
 185 -46 185 -46 115 130 c 0,38,39
 98 167 98 167 97 237 c 0,40,41
 97 370 97 370 97 636 c 1,42,43
 91 728 91 728 24 743 c 1,44,45
 24 762 24 762 41 764 c 0,0,1
EndSplineSet
EndChar

StartChar: uniff36
Encoding: 65334 65334 151
Width: 788
GlyphClass: 1
Flags: W
LayerCount: 2
Fore
SplineSet
28 762 m 0,0,1
 95 762 95 762 297 762 c 0,2,3
 321 762 321 762 330 737 c 1,4,5
 285 733 285 733 276 680 c 1,6,7
 433 178 433 178 443 178 c 1,8,9
 499 344 499 344 611 676 c 1,10,11
 611 713 611 713 558 737 c 1,12,13
 566 762 566 762 591 762 c 0,14,15
 655 762 655 762 782 762 c 0,16,17
 811 762 811 762 811 732 c 1,18,19
 738 715 738 715 718 676 c 1,20,21
 637 439 637 439 475 -34 c 1,22,23
 451 -45 451 -45 423 -46 c 0,24,25
 421 -46 421 -46 420 -46 c 0,26,27
 341 -46 341 -46 312 47 c 1,28,29
 106 610 106 610 76 680 c 1,30,31
 32 732 32 732 -5 732 c 1,32,33
 -5 735 -5 735 -5 741 c 0,34,35
 5 762 5 762 28 762 c 0,0,1
EndSplineSet
EndChar

StartChar: uniff37
Encoding: 65335 65335 152
Width: 1065
GlyphClass: 1
Flags: W
LayerCount: 2
Fore
SplineSet
23 742 m 0,0,1
 94 742 94 742 308 742 c 0,2,3
 309 742 309 742 311 742 c 0,4,5
 333 742 333 742 338 723 c 1,6,7
 338 723 338 723 337 723 c 0,8,9
 264 694 264 694 275 648 c 0,10,11
 313 511 313 511 388 238 c 0,12,13
 389 238 389 238 392 238 c 0,14,15
 431 353 431 353 548 698 c 0,16,17
 551 707 551 707 561 709 c 0,18,19
 585 709 585 709 634 709 c 0,20,21
 645 709 645 709 649 697 c 0,22,23
 696 548 696 548 790 251 c 0,24,25
 791 251 791 251 795 251 c 0,26,27
 813 348 813 348 867 639 c 0,28,29
 867 646 867 646 867 667 c 0,30,31
 863 705 863 705 820 714 c 1,32,33
 824 741 824 741 856 742 c 0,34,35
 923 742 923 742 1057 742 c 0,36,37
 1084 740 1084 740 1090 718 c 0,38,39
 1090 717 1090 717 1090 714 c 0,40,41
 1033 698 1033 698 1010 646 c 1,42,43
 963 418 963 418 869 -39 c 1,44,45
 860 -57 860 -57 845 -56 c 0,46,47
 811 -56 811 -56 744 -57 c 0,48,49
 719 -57 719 -57 712 -31 c 0,50,51
 663 116 663 116 566 411 c 0,52,53
 565 411 565 411 563 411 c 0,54,55
 527 304 527 304 419 -18 c 0,56,57
 410 -57 410 -57 383 -56 c 0,58,59
 359 -56 359 -56 311 -56 c 0,60,61
 288 -57 288 -57 283 -28 c 0,62,63
 214 199 214 199 77 653 c 1,64,65
 49 704 49 704 -12 709 c 0,66,67
 -12 712 -12 712 -12 718 c 0,68,69
 -5 742 -5 742 23 742 c 0,0,1
EndSplineSet
EndChar

StartChar: uniff38
Encoding: 65336 65336 153
Width: 737
GlyphClass: 1
Flags: W
LayerCount: 2
Fore
SplineSet
38 761 m 0,0,1
 91 761 91 761 248 761 c 0,2,3
 261 761 261 761 270 745 c 0,4,5
 318 663 318 663 413 499 c 1,6,7
 439 544 439 544 517 679 c 1,8,9
 531 724 531 724 471 739 c 0,10,11
 471 740 471 740 471 743 c 0,12,13
 475 756 475 756 487 761 c 1,14,15
 566 761 566 761 725 761 c 1,16,17
 741 752 741 752 741 735 c 1,18,19
 687 729 687 729 654 675 c 0,20,21
 593 579 593 579 471 387 c 1,22,23
 526 296 526 296 692 23 c 1,24,25
 717 -9 717 -9 751 -19 c 0,26,27
 755 -20 755 -20 763 -22 c 0,28,29
 763 -24 763 -24 763 -30 c 0,30,31
 756 -46 756 -46 733 -46 c 0,32,33
 678 -46 678 -46 567 -46 c 0,34,35
 562 -46 562 -46 557 -46 c 0,36,37
 519 -47 519 -47 505 -26 c 0,38,39
 452 63 452 63 346 241 c 1,40,41
 300 178 300 178 163 -10 c 0,42,43
 141 -45 141 -45 71 -46 c 0,44,45
 23 -44 23 -44 27 -31 c 0,46,47
 28 -29 28 -29 29 -25 c 0,48,49
 93 69 93 69 284 352 c 1,50,51
 236 434 236 434 91 678 c 0,52,53
 55 735 55 735 9 739 c 1,54,55
 14 761 14 761 38 761 c 0,0,1
EndSplineSet
EndChar

StartChar: uniff39
Encoding: 65337 65337 154
Width: 686
GlyphClass: 1
Flags: W
LayerCount: 2
Fore
SplineSet
7 762 m 1,0,1
 82 762 82 762 305 762 c 0,2,3
 316 759 316 759 317 750 c 0,4,5
 317 748 317 748 317 745 c 0,6,7
 263 715 263 715 268 685 c 0,8,9
 268 666 268 666 402 421 c 1,10,11
 449 509 449 509 542 686 c 1,12,13
 556 727 556 727 493 745 c 1,14,15
 495 757 495 757 509 762 c 1,16,17
 582 762 582 762 729 762 c 1,18,19
 745 757 745 757 745 745 c 0,20,21
 745 744 745 744 745 741 c 0,22,23
 683 725 683 725 653 680 c 1,24,25
 587 552 587 552 456 296 c 1,26,27
 456 255 456 255 456 132 c 0,28,29
 456 -12 456 -12 326 -46 c 0,30,31
 311 -50 311 -50 293 -50 c 0,32,33
 292 -50 292 -50 289 -50 c 0,34,35
 281 -50 281 -50 281 -42 c 0,36,37
 281 70 281 70 281 295 c 1,38,39
 228 395 228 395 69 693 c 1,40,41
 37 728 37 728 -9 737 c 0,42,43
 -9 740 -9 740 -9 745 c 0,44,45
 -7 757 -7 757 7 762 c 1,0,1
EndSplineSet
EndChar

StartChar: uniff3a
Encoding: 65338 65338 155
Width: 676
GlyphClass: 1
Flags: W
LayerCount: 2
Fore
SplineSet
631 762 m 0,0,1
 644 760 644 760 647 744 c 0,2,3
 647 740 647 740 647 731 c 1,4,5
 560 567 560 567 299 76 c 0,6,7
 299 75 299 75 299 73 c 1,8,9
 367 73 367 73 572 73 c 0,10,11
 628 73 628 73 653 113 c 1,12,13
 668 109 668 109 670 95 c 1,14,15
 650 -2 650 -2 638 -34 c 0,16,17
 632 -42 632 -42 620 -42 c 0,18,19
 423 -42 423 -42 29 -42 c 1,20,21
 16 -37 16 -37 16 -25 c 0,22,23
 16 -20 16 -20 18 -14 c 0,24,25
 140 211 140 211 384 662 c 1,26,27
 383 662 383 662 380 662 c 0,28,29
 328 662 328 662 172 662 c 0,30,31
 91 660 91 660 61 618 c 0,32,33
 60 618 60 618 57 618 c 0,34,35
 42 620 42 620 44 637 c 0,36,37
 57 719 57 719 66 754 c 0,38,39
 70 762 70 762 78 762 c 0,40,41
 262 762 262 762 631 762 c 0,0,1
EndSplineSet
EndChar

StartChar: uniff3b
Encoding: 65339 65339 156
Width: 655
GlyphClass: 1
Flags: W
LayerCount: 2
Fore
SplineSet
240 831 m 0,0,1
 305 831 305 831 499 831 c 0,2,3
 522 832 522 832 524 813 c 0,4,5
 524 794 524 794 524 757 c 0,6,7
 523 734 523 734 500 732 c 0,8,9
 460 732 460 732 380 732 c 1,10,11
 380 531 380 531 380 -72 c 1,12,13
 409 -72 409 -72 497 -72 c 0,14,15
 524 -69 524 -69 524 -89 c 0,16,17
 524 -108 524 -108 524 -147 c 0,18,19
 524 -148 524 -148 524 -148 c 2,20,21
 524 -166 524 -166 500 -166 c 0,22,23
 499 -166 499 -166 497 -166 c 0,24,25
 412 -166 412 -166 241 -166 c 0,26,27
 215 -167 215 -167 213 -143 c 0,28,29
 213 176 213 176 213 813 c 0,30,31
 215 831 215 831 236 831 c 0,32,33
 238 831 238 831 240 831 c 0,0,1
EndSplineSet
EndChar

StartChar: uniff3c
Encoding: 65340 65340 157
Width: 604
GlyphClass: 1
Flags: W
LayerCount: 2
Fore
SplineSet
113 728 m 0,0,1
 141 728 141 728 224 728 c 0,2,3
 243 728 243 728 248 711 c 0,4,5
 317 456 317 456 454 -53 c 1,6,7
 450 -64 450 -64 438 -66 c 0,8,9
 402 -66 402 -66 329 -65 c 0,10,11
 300 -62 300 -62 293 -25 c 0,12,13
 228 219 228 219 99 707 c 0,14,15
 99 709 99 709 99 711 c 0,16,17
 99 726 99 726 113 728 c 0,0,1
EndSplineSet
EndChar

StartChar: uniff3d
Encoding: 65341 65341 158
Width: 686
GlyphClass: 1
Flags: W
LayerCount: 2
Fore
SplineSet
420 -166 m 0,0,1
 355 -166 355 -166 161 -166 c 0,2,3
 138 -167 138 -167 135 -147 c 0,4,5
 135 -128 135 -128 135 -91 c 0,6,7
 136 -68 136 -68 159 -67 c 0,8,9
 199 -67 199 -67 280 -67 c 1,10,11
 280 134 280 134 280 736 c 1,12,13
 250 736 250 736 162 736 c 0,14,15
 136 733 136 733 135 754 c 0,16,17
 135 773 135 773 135 812 c 0,18,19
 135 813 135 813 135 813 c 2,20,21
 135 832 135 832 156 831 c 0,22,23
 159 831 159 831 162 831 c 0,24,25
 248 831 248 831 419 831 c 0,26,27
 445 832 445 832 446 808 c 0,28,29
 446 489 446 489 446 -148 c 0,30,31
 445 -166 445 -166 424 -166 c 0,32,33
 422 -166 422 -166 420 -166 c 0,0,1
EndSplineSet
EndChar

StartChar: uniff3e
Encoding: 65342 65342 159
Width: 809
GlyphClass: 1
Flags: W
LayerCount: 2
Fore
SplineSet
413 809 m 0,0,1
 414 809 414 809 415 809 c 0,2,3
 431 809 431 809 440 790 c 0,4,5
 498 701 498 701 615 523 c 0,6,7
 617 518 617 518 617 515 c 0,8,9
 617 508 617 508 609 506 c 0,10,11
 578 506 578 506 515 507 c 0,12,13
 487 508 487 508 477 530 c 0,14,15
 402 649 402 649 400 654 c 1,16,17
 400 654 400 654 400 654 c 1,18,19
 380 623 380 623 318 528 c 0,20,21
 305 504 305 504 283 507 c 0,22,23
 247 506 247 506 204 506 c 0,24,25
 201 506 201 506 195 506 c 0,26,27
 187 506 187 506 184 518 c 1,28,29
 243 609 243 609 362 790 c 0,30,31
 370 806 370 806 387 809 c 0,32,33
 396 809 396 809 413 809 c 0,0,1
EndSplineSet
EndChar

StartChar: uniff3f
Encoding: 65343 65343 160
Width: 829
GlyphClass: 1
Flags: W
LayerCount: 2
Fore
SplineSet
170 1 m 0,0,1
 292 1 292 1 658 1 c 0,2,3
 675 1 675 1 676 -10 c 0,4,5
 676 -40 676 -40 676 -99 c 0,6,7
 675 -111 675 -111 659 -111 c 0,8,9
 496 -111 496 -111 170 -111 c 0,10,11
 157 -111 157 -111 157 -98 c 0,12,13
 157 -69 157 -69 157 -10 c 0,14,15
 157 0 157 0 170 1 c 0,0,1
EndSplineSet
EndChar

StartChar: uniff40
Encoding: 65344 65344 161
Width: 604
GlyphClass: 1
Flags: W
LayerCount: 2
Fore
SplineSet
206 785 m 1,0,1
 244 785 244 785 358 785 c 0,2,3
 384 785 384 785 391 763 c 0,4,5
 416 674 416 674 467 495 c 0,6,7
 468 493 468 493 468 492 c 0,8,9
 468 487 468 487 460 485 c 0,10,11
 368 488 368 488 329 548 c 1,12,13
 295 612 295 612 226 739 c 0,14,15
 215 765 215 765 189 766 c 0,16,17
 189 767 189 767 189 770 c 0,18,19
 192 781 192 781 206 785 c 1,0,1
EndSplineSet
EndChar

StartChar: uniff41
Encoding: 65345 65345 162
Width: 573
GlyphClass: 1
Flags: W
LayerCount: 2
Fore
SplineSet
261 41 m 0,0,1
 300 41 300 41 326 63 c 0,2,3
 351 85 351 85 351 122 c 256,4,5
 351 159 351 159 351 234 c 1,6,7
 333 231 333 231 311 225 c 0,8,9
 290 219 290 219 270 211 c 0,10,11
 231 197 231 197 212 170 c 0,12,13
 194 143 194 143 194 111 c 0,14,15
 194 77 194 77 211 59 c 0,16,17
 229 41 229 41 261 41 c 0,0,1
292 534 m 0,18,19
 459 534 459 534 505 407 c 0,20,21
 515 380 515 380 517 340 c 0,22,23
 517 281 517 281 517 164 c 0,24,25
 517 -3 517 -3 577 -23 c 0,26,27
 587 -23 587 -23 587 -30 c 0,28,29
 587 -31 587 -31 587 -34 c 0,30,31
 587 -40 587 -40 577 -46 c 1,32,33
 548 -46 548 -46 489 -46 c 0,34,35
 412 -46 412 -46 386 34 c 0,36,37
 386 35 386 35 386 37 c 1,38,39
 385 37 385 37 382 37 c 0,40,41
 335 -50 335 -50 228 -50 c 0,42,43
 33 -49 33 -49 34 105 c 0,44,45
 35 268 35 268 350 315 c 1,46,47
 350 328 350 328 350 355 c 0,48,49
 349 443 349 443 280 451 c 0,50,51
 273 451 273 451 260 451 c 0,52,53
 185 438 185 438 181 352 c 0,54,55
 181 335 181 335 169 336 c 0,56,57
 136 336 136 336 70 336 c 0,58,59
 62 335 62 335 58 347 c 0,60,61
 58 354 58 354 58 368 c 0,62,63
 58 482 58 482 201 522 c 0,64,65
 241 534 241 534 292 534 c 0,18,19
EndSplineSet
EndChar

StartChar: uniff42
Encoding: 65346 65346 163
Width: 635
GlyphClass: 1
Flags: W
LayerCount: 2
Fore
SplineSet
233 793 m 1,0,1
 244 791 244 791 245 777 c 0,2,3
 245 680 245 680 245 485 c 1,4,5
 299 531 299 531 368 531 c 0,6,7
 376 531 376 531 391 531 c 0,8,9
 544 531 544 531 603 355 c 1,10,11
 616 294 616 294 616 236 c 0,12,13
 616 33 616 33 458 -33 c 1,14,15
 400 -49 400 -49 348 -49 c 0,16,17
 267 -49 267 -49 106 -49 c 0,18,19
 84 -49 84 -49 79 -33 c 1,20,21
 79 181 79 181 79 610 c 0,22,23
 79 693 79 693 12 730 c 0,24,25
 12 732 12 732 12 737 c 0,26,27
 13 743 13 743 22 748 c 0,28,29
 92 763 92 763 233 793 c 1,0,1
245 397 m 1,30,31
 245 310 245 310 245 51 c 0,32,33
 246 40 246 40 257 39 c 0,34,35
 278 39 278 39 319 39 c 0,36,37
 442 39 442 39 442 208 c 0,38,39
 442 230 442 230 442 275 c 0,40,41
 442 379 442 379 391 425 c 0,42,43
 375 438 375 438 339 445 c 1,44,45
 281 445 281 445 245 397 c 1,30,31
EndSplineSet
EndChar

StartChar: uniff43
Encoding: 65347 65347 164
Width: 594
GlyphClass: 1
Flags: W
LayerCount: 2
Fore
SplineSet
325 521 m 0,0,1
 537 521 537 521 572 351 c 0,2,3
 576 322 576 322 577 304 c 0,4,5
 577 302 577 302 577 301 c 0,6,7
 577 286 577 286 565 284 c 0,8,9
 530 284 530 284 461 284 c 1,10,11
 453 288 453 288 451 298 c 0,12,13
 436 429 436 429 325 431 c 1,14,15
 202 418 202 418 200 223 c 0,16,17
 200 77 200 77 320 44 c 0,18,19
 439 12 439 12 525 97 c 0,20,21
 532 99 532 99 539 96 c 0,22,23
 553 86 553 86 566 68 c 0,24,25
 573 61 573 61 569 51 c 0,26,27
 481 -63 481 -63 321 -62 c 0,28,29
 154 -59 154 -59 88 34 c 0,30,31
 28 117 28 117 28 219 c 0,32,33
 28 230 28 230 29 241 c 0,34,35
 55 517 55 517 325 521 c 0,0,1
EndSplineSet
EndChar

StartChar: uniff44
Encoding: 65348 65348 165
Width: 645
GlyphClass: 1
Flags: W
LayerCount: 2
Fore
SplineSet
558 794 m 0,0,1
 560 794 560 794 567 794 c 0,2,3
 577 792 577 792 580 782 c 0,4,5
 580 515 580 515 580 -20 c 0,6,7
 580 -52 580 -52 547 -52 c 0,8,9
 450 -52 450 -52 256 -52 c 0,10,11
 113 -52 113 -52 50 119 c 1,12,13
 39 174 39 174 39 210 c 0,14,15
 39 227 39 227 39 262 c 0,16,17
 39 449 39 449 185 516 c 1,18,19
 230 531 230 531 276 531 c 0,20,21
 360 531 360 531 412 484 c 1,22,23
 412 528 412 528 412 615 c 0,24,25
 412 688 412 688 344 731 c 0,26,27
 344 732 344 732 344 734 c 0,28,29
 344 753 344 753 365 756 c 0,30,31
 429 769 429 769 558 794 c 0,0,1
209 229 m 0,32,33
 209 35 209 35 325 36 c 0,34,35
 351 36 351 36 403 36 c 0,36,37
 411 36 411 36 412 43 c 0,38,39
 412 161 412 161 412 397 c 1,40,41
 381 440 381 440 321 440 c 0,42,43
 317 440 317 440 308 440 c 0,44,45
 209 440 209 440 209 229 c 0,32,33
EndSplineSet
EndChar

StartChar: uniff45
Encoding: 65349 65349 166
Width: 594
GlyphClass: 1
Flags: W
LayerCount: 2
Fore
SplineSet
294 445 m 0,0,1
 258 445 258 445 230 408 c 0,2,3
 203 371 203 371 203 282 c 1,4,5
 271 282 271 282 407 282 c 1,6,7
 410 360 410 360 377 403 c 256,8,9
 344 446 344 446 294 445 c 0,0,1
561 337 m 0,10,11
 575 293 575 293 575 245 c 0,12,13
 575 227 575 227 573 209 c 0,14,15
 574 186 574 186 555 186 c 0,16,17
 439 185 439 185 206 184 c 0,18,19
 199 186 199 186 201 176 c 0,20,21
 202 65 202 65 312 42 c 0,22,23
 423 20 423 20 520 90 c 0,24,25
 523 93 523 93 527 91 c 0,26,27
 539 82 539 82 555 63 c 0,28,29
 561 57 561 57 557 52 c 0,30,31
 458 -60 458 -60 318 -60 c 0,32,33
 307 -60 307 -60 296 -59 c 0,34,35
 105 -52 105 -52 36 130 c 1,36,37
 27 172 27 172 27 206 c 0,38,39
 27 219 27 219 27 246 c 0,40,41
 60 519 60 519 295 522 c 0,42,43
 494 522 494 522 561 337 c 0,10,11
EndSplineSet
EndChar

StartChar: uniff46
Encoding: 65350 65350 167
Width: 522
GlyphClass: 1
Flags: W
LayerCount: 2
Fore
SplineSet
542 639 m 0,0,1
 542 637 542 637 542 631 c 0,2,3
 541 620 541 620 529 620 c 0,4,5
 496 620 496 620 430 620 c 0,6,7
 422 620 422 620 422 627 c 0,8,9
 423 637 423 637 422 658 c 0,10,11
 418 723 418 723 365 723 c 0,12,13
 362 723 362 723 360 723 c 0,14,15
 296 707 296 707 296 554 c 0,16,17
 296 546 296 546 303 547 c 0,18,19
 493 547 493 547 493 547 c 0,20,21
 501 546 501 546 501 540 c 0,22,23
 496 482 496 482 440 466 c 1,24,25
 392 466 392 466 296 465 c 1,26,27
 296 369 296 369 296 82 c 0,28,29
 296 -33 296 -33 140 -62 c 1,30,31
 133 -60 133 -60 133 -50 c 0,32,33
 135 122 135 122 133 465 c 1,34,35
 108 465 108 465 35 465 c 0,36,37
 25 465 25 465 25 477 c 0,38,39
 25 498 25 498 25 540 c 0,40,41
 25 550 25 550 37 551 c 0,42,43
 69 554 69 554 133 551 c 1,44,45
 170 741 170 741 274 782 c 0,46,47
 542 887 542 887 542 639 c 0,0,1
EndSplineSet
EndChar

StartChar: uniff47
Encoding: 65351 65351 168
Width: 614
GlyphClass: 1
Flags: W
LayerCount: 2
Fore
SplineSet
379 336 m 256,0,1
 379 392 379 392 358 424 c 256,2,3
 337 456 337 456 299 456 c 256,4,5
 261 456 261 456 240 424 c 256,6,7
 219 392 219 392 219 336 c 256,8,9
 219 280 219 280 240 248 c 256,10,11
 261 216 261 216 299 216 c 256,12,13
 337 216 337 216 358 248 c 256,14,15
 379 280 379 280 379 336 c 256,0,1
463 -143 m 0,16,17
 463 -99 463 -99 422 -80 c 0,18,19
 380 -61 380 -61 316 -61 c 0,20,21
 301 -61 301 -61 282 -61 c 0,22,23
 264 -61 264 -61 245 -60 c 0,24,25
 227 -60 227 -60 210 -60 c 0,26,27
 194 -59 194 -59 181 -58 c 1,28,29
 167 -69 167 -69 160 -91 c 0,30,31
 152 -114 152 -114 152 -143 c 0,32,33
 152 -171 152 -171 166 -188 c 0,34,35
 179 -205 179 -205 201 -214 c 256,36,37
 223 -223 223 -223 252 -226 c 0,38,39
 280 -229 280 -229 308 -229 c 0,40,41
 339 -229 339 -229 367 -225 c 256,42,43
 395 -221 395 -221 416 -211 c 256,44,45
 437 -201 437 -201 450 -184 c 0,46,47
 463 -168 463 -168 463 -143 c 0,16,17
555 600 m 1,48,49
 570 600 570 600 573 582 c 0,50,51
 575 568 575 568 574 552 c 0,52,53
 568 478 568 478 527 434 c 1,54,55
 550 390 550 390 550 339 c 0,56,57
 550 336 550 336 550 330 c 0,58,59
 550 198 550 198 409 152 c 0,60,61
 383 140 383 140 189 137 c 1,62,63
 180 119 180 119 189 100 c 0,64,65
 199 76 199 76 261 77 c 0,66,67
 286 77 286 77 337 77 c 0,68,69
 618 77 618 77 617 -121 c 0,70,71
 617 -260 617 -260 420 -300 c 1,72,73
 359 -308 359 -308 301 -308 c 0,74,75
 300 -308 300 -308 297 -308 c 0,76,77
 35 -308 35 -308 35 -154 c 0,78,79
 35 -85 35 -85 118 -38 c 1,80,81
 56 -9 56 -9 55 69 c 0,82,83
 55 148 55 148 152 193 c 1,84,85
 152 192 152 192 151 191 c 0,86,87
 63 228 63 228 60 321 c 0,88,89
 59 323 59 323 59 346 c 0,90,91
 59 469 59 469 186 517 c 0,92,93
 231 536 231 536 305 537 c 0,94,95
 378 537 378 537 447 517 c 1,96,97
 507 505 507 505 555 600 c 1,48,49
EndSplineSet
EndChar

StartChar: uniff48
Encoding: 65352 65352 169
Width: 625
GlyphClass: 1
Flags: W
LayerCount: 2
Fore
SplineSet
227 790 m 1,0,1
 242 787 242 787 242 773 c 0,2,3
 242 675 242 675 242 478 c 1,4,5
 296 525 296 525 364 525 c 0,6,7
 374 525 374 525 395 525 c 0,8,9
 538 522 538 522 581 400 c 1,10,11
 588 361 588 361 588 330 c 0,12,13
 588 234 588 234 588 41 c 0,14,15
 588 37 588 37 588 34 c 0,16,17
 588 -33 588 -33 513 -48 c 1,18,19
 448 -48 448 -48 434 -48 c 0,20,21
 433 -48 433 -48 431 -48 c 0,22,23
 423 -48 423 -48 423 -40 c 0,24,25
 423 87 423 87 423 341 c 1,26,27
 417 435 417 435 337 435 c 0,28,29
 259 436 259 436 242 377 c 1,30,31
 242 247 242 247 242 -14 c 0,32,33
 242 -30 242 -30 238 -40 c 0,34,35
 234 -49 234 -49 218 -48 c 0,36,37
 175 -48 175 -48 88 -49 c 0,38,39
 76 -46 76 -46 77 -33 c 0,40,41
 77 188 77 188 77 629 c 0,42,43
 78 686 78 686 9 727 c 0,44,45
 9 728 9 728 9 728 c 2,46,47
 9 738 9 738 23 744 c 0,48,49
 167 779 167 779 227 790 c 1,0,1
EndSplineSet
EndChar

StartChar: uniff49
Encoding: 65353 65353 170
Width: 338
GlyphClass: 1
Flags: W
LayerCount: 2
Fore
SplineSet
89 700 m 0,0,1
 89 665 89 665 111 639 c 0,2,3
 138 611 138 611 174 609 c 0,4,5
 178 609 178 609 181 609 c 0,6,7
 221 609 221 609 249 639 c 0,8,9
 274 666 274 666 274 700 c 0,10,11
 273 736 273 736 249 763 c 0,12,13
 221 794 221 794 181 795 c 0,14,15
 144 794 144 794 118 769 c 0,16,17
 89 741 89 741 89 700 c 0,0,1
267 528 m 0,18,19
 275 525 275 525 275 519 c 0,20,21
 275 362 275 362 275 47 c 0,22,23
 275 45 275 45 275 43 c 0,24,25
 275 -49 275 -49 135 -49 c 0,26,27
 100 -48 100 -48 100 -37 c 0,28,29
 100 86 100 86 100 332 c 0,30,31
 100 427 100 427 27 462 c 0,32,33
 27 464 27 464 27 465 c 0,34,35
 27 481 27 481 48 484 c 0,36,37
 176 512 176 512 232 522 c 0,38,39
 257 527 257 527 267 528 c 0,18,19
EndSplineSet
EndChar

StartChar: uniff4a
Encoding: 65354 65354 171
Width: 338
GlyphClass: 1
Flags: W
LayerCount: 2
Fore
SplineSet
257 536 m 0,0,1
 268 536 268 536 268 523 c 0,2,3
 268 522 268 522 268 521 c 0,4,5
 268 341 268 341 268 -19 c 0,6,7
 268 -227 268 -227 108 -290 c 1,8,9
 55 -306 55 -306 -18 -310 c 0,10,11
 -29 -309 -29 -309 -29 -301 c 0,12,13
 -29 -299 -29 -299 -28 -295 c 0,14,15
 50 -249 50 -249 71 -216 c 1,16,17
 108 -171 108 -171 108 38 c 0,18,19
 108 119 108 119 108 282 c 0,20,21
 111 439 111 439 20 456 c 1,22,23
 19 483 19 483 43 487 c 0,24,25
 108 502 108 502 237 531 c 0,26,27
 242 533 242 533 257 536 c 0,0,1
82 711 m 0,28,29
 82 676 82 676 103 649 c 0,30,31
 124 627 124 627 153 622 c 0,32,33
 163 620 163 620 174 620 c 0,34,35
 214 620 214 620 242 649 c 0,36,37
 267 676 267 676 267 711 c 0,38,39
 266 747 266 747 242 773 c 0,40,41
 214 804 214 804 174 805 c 0,42,43
 137 804 137 804 111 779 c 0,44,45
 82 752 82 752 82 711 c 0,28,29
EndSplineSet
EndChar

StartChar: uniff4b
Encoding: 65355 65355 172
Width: 645
GlyphClass: 1
Flags: W
LayerCount: 2
Fore
SplineSet
232 788 m 0,0,1
 240 786 240 786 240 777 c 0,2,3
 240 606 240 606 240 263 c 1,4,5
 275 302 275 302 380 418 c 1,6,7
 395 467 395 467 331 488 c 0,8,9
 331 490 331 490 331 493 c 0,10,11
 334 505 334 505 346 508 c 0,12,13
 430 508 430 508 599 508 c 0,14,15
 611 506 611 506 614 493 c 0,16,17
 614 491 614 491 614 488 c 0,18,19
 584 481 584 481 554 454 c 0,20,21
 505 403 505 403 408 300 c 0,22,23
 408 299 408 299 408 295 c 0,24,25
 564 33 564 33 596 7 c 0,26,27
 623 -17 623 -17 659 -29 c 0,28,29
 659 -32 659 -32 659 -37 c 256,30,31
 659 -42 659 -42 648 -48 c 1,32,33
 620 -48 620 -48 565 -48 c 0,34,35
 427 -48 427 -48 367 79 c 1,36,37
 314 169 314 169 301 193 c 1,38,39
 296 193 296 193 240 129 c 0,40,41
 240 123 240 123 240 110 c 0,42,43
 240 -22 240 -22 89 -44 c 0,44,45
 78 -46 78 -46 78 -33 c 0,46,47
 78 190 78 190 78 635 c 0,48,49
 78 691 78 691 13 726 c 0,50,51
 13 727 13 727 13 727 c 2,52,53
 13 744 13 744 34 750 c 0,54,55
 100 763 100 763 232 788 c 0,0,1
EndSplineSet
EndChar

StartChar: uniff4c
Encoding: 65356 65356 173
Width: 369
GlyphClass: 1
Flags: W
LayerCount: 2
Fore
SplineSet
234 772 m 0,0,1
 245 772 245 772 247 760 c 0,2,3
 247 679 247 679 247 516 c 0,4,5
 247 413 247 413 247 106 c 0,6,7
 249 51 249 51 272 36 c 0,8,9
 294 20 294 20 327 24 c 0,10,11
 356 27 356 27 372 28 c 0,12,13
 385 27 385 27 385 10 c 0,14,15
 386 9 386 9 386 9 c 1,16,17
 386 -7 386 -7 372 -17 c 0,18,19
 309 -77 309 -77 247 -78 c 0,20,21
 240 -78 240 -78 227 -78 c 0,22,23
 80 -78 80 -78 80 102 c 0,24,25
 80 274 80 274 80 618 c 0,26,27
 80 671 80 671 13 714 c 0,28,29
 13 715 13 715 13 717 c 0,30,31
 13 718 13 718 13 718 c 2,32,33
 13 731 13 731 29 735 c 0,34,35
 207 770 207 770 234 772 c 0,0,1
EndSplineSet
EndChar

StartChar: uniff4d
Encoding: 65357 65357 174
Width: 942
GlyphClass: 1
Flags: W
LayerCount: 2
Fore
SplineSet
394 521 m 0,0,1
 396 521 396 521 401 521 c 0,2,3
 495 520 495 520 537 449 c 1,4,5
 596 521 596 521 699 519 c 0,6,7
 702 519 702 519 708 519 c 0,8,9
 844 519 844 519 890 412 c 1,10,11
 897 385 897 385 897 365 c 0,12,13
 897 362 897 362 897 360 c 0,14,15
 897 250 897 250 896 30 c 1,16,17
 891 -44 891 -44 787 -54 c 0,18,19
 774 -55 774 -55 762 -54 c 0,20,21
 751 -54 751 -54 740 -54 c 0,22,23
 732 -52 732 -52 733 -42 c 0,24,25
 733 83 733 83 734 333 c 0,26,27
 735 425 735 425 656 429 c 1,28,29
 603 425 603 425 572 369 c 1,30,31
 572 245 572 245 571 -2 c 0,32,33
 574 -50 574 -50 535 -53 c 0,34,35
 498 -53 498 -53 423 -53 c 0,36,37
 415 -52 415 -52 416 -40 c 0,38,39
 416 83 416 83 417 330 c 0,40,41
 418 426 418 426 342 428 c 0,42,43
 285 426 285 426 254 383 c 1,44,45
 254 257 254 257 253 4 c 1,46,47
 257 -52 257 -52 211 -52 c 0,48,49
 105 -52 105 -52 97 -52 c 0,50,51
 87 -50 87 -50 85 -38 c 0,52,53
 86 96 86 96 87 364 c 0,54,55
 87 418 87 418 19 456 c 0,56,57
 19 457 19 457 19 457 c 2,58,59
 19 473 19 473 42 477 c 0,60,61
 158 503 158 503 231 516 c 0,62,63
 244 516 244 516 243 501 c 0,64,65
 243 487 243 487 243 459 c 1,66,67
 296 521 296 521 394 521 c 0,0,1
EndSplineSet
EndChar

StartChar: uniff4e
Encoding: 65358 65358 175
Width: 645
GlyphClass: 1
Flags: W
LayerCount: 2
Fore
SplineSet
393 526 m 1,0,1
 574 516 574 516 600 375 c 0,2,3
 604 334 604 334 604 311 c 0,4,5
 604 225 604 225 605 52 c 0,6,7
 605 47 605 47 605 42 c 0,8,9
 605 -28 605 -28 547 -44 c 0,10,11
 501 -56 501 -56 468 -56 c 0,12,13
 456 -56 456 -56 445 -54 c 0,14,15
 437 -54 437 -54 437 -47 c 0,16,17
 437 74 437 74 437 315 c 0,18,19
 437 430 437 430 350 430 c 0,20,21
 292 430 292 430 255 383 c 1,22,23
 255 259 255 259 255 12 c 0,24,25
 258 -54 258 -54 209 -55 c 0,26,27
 114 -54 114 -54 99 -54 c 0,28,29
 90 -53 90 -53 88 -43 c 0,30,31
 88 91 88 91 88 359 c 0,32,33
 88 417 88 417 19 459 c 0,34,35
 19 460 19 460 19 463 c 0,36,37
 20 475 20 475 38 479 c 0,38,39
 192 513 192 513 234 518 c 0,40,41
 244 518 244 518 247 508 c 0,42,43
 247 486 247 486 247 470 c 1,44,45
 306 526 306 526 393 526 c 1,0,1
EndSplineSet
EndChar

StartChar: uniff4f
Encoding: 65359 65359 176
Width: 635
GlyphClass: 1
Flags: W
LayerCount: 2
Fore
SplineSet
28 234 m 256,0,1
 28 300 28 300 48 354 c 0,2,3
 68 409 68 409 106 447 c 0,4,5
 144 486 144 486 200 508 c 0,6,7
 255 530 255 530 326 530 c 256,8,9
 397 530 397 530 452 508 c 256,10,11
 507 486 507 486 545 447 c 0,12,13
 584 409 584 409 604 354 c 0,14,15
 624 300 624 300 624 234 c 256,16,17
 624 168 624 168 604 114 c 256,18,19
 584 60 584 60 545 21 c 0,20,21
 507 -17 507 -17 452 -39 c 0,22,23
 396 -61 396 -61 326 -61 c 0,24,25
 255 -61 255 -61 200 -39 c 0,26,27
 144 -17 144 -17 106 21 c 0,28,29
 68 60 68 60 48 114 c 256,30,31
 28 168 28 168 28 234 c 256,0,1
202 234 m 256,32,33
 202 137 202 137 234 82 c 0,34,35
 267 28 267 28 326 28 c 0,36,37
 384 28 384 28 417 82 c 0,38,39
 450 137 450 137 450 234 c 256,40,41
 450 331 450 331 417 386 c 256,42,43
 384 441 384 441 326 441 c 256,44,45
 268 441 268 441 235 386 c 256,46,47
 202 331 202 331 202 234 c 256,32,33
EndSplineSet
EndChar

StartChar: uniff50
Encoding: 65360 65360 177
Width: 645
GlyphClass: 1
Flags: W
LayerCount: 2
Fore
SplineSet
383 531 m 0,0,1
 388 531 388 531 403 531 c 0,2,3
 568 531 568 531 622 336 c 1,4,5
 631 286 631 286 631 252 c 0,6,7
 631 245 631 245 631 232 c 0,8,9
 631 34 631 34 490 -38 c 1,10,11
 433 -54 433 -54 403 -54 c 0,12,13
 395 -54 395 -54 380 -54 c 0,14,15
 302 -54 302 -54 256 -6 c 1,16,17
 256 -55 256 -55 256 -154 c 0,18,19
 256 -263 256 -263 145 -301 c 0,20,21
 129 -308 129 -308 100 -308 c 0,22,23
 99 -308 99 -308 97 -308 c 0,24,25
 89 -308 89 -308 89 -301 c 0,26,27
 89 -82 89 -82 89 355 c 0,28,29
 89 428 89 428 22 464 c 0,30,31
 22 466 22 466 22 471 c 0,32,33
 27 482 27 482 40 485 c 0,34,35
 212 522 212 522 240 527 c 1,36,37
 249 523 249 523 248 516 c 0,38,39
 248 481 248 481 248 474 c 1,40,41
 308 531 308 531 383 531 c 0,0,1
256 396 m 1,42,43
 256 317 256 317 256 81 c 1,44,45
 295 34 295 34 351 34 c 0,46,47
 439 34 439 34 455 194 c 0,48,49
 455 216 455 216 455 261 c 0,50,51
 455 399 455 399 383 435 c 0,52,53
 375 436 375 436 359 439 c 0,54,55
 353 439 353 439 336 439 c 0,56,57
 291 439 291 439 256 396 c 1,42,43
EndSplineSet
EndChar

StartChar: uniff51
Encoding: 65361 65361 178
Width: 655
GlyphClass: 1
Flags: W
LayerCount: 2
Fore
SplineSet
638 488 m 0,0,1
 570 442 570 442 570 381 c 0,2,3
 570 202 570 202 570 -155 c 0,4,5
 570 -263 570 -263 465 -301 c 0,6,7
 430 -311 430 -311 413 -311 c 0,8,9
 405 -308 405 -308 406 -301 c 0,10,11
 406 -205 406 -205 406 -13 c 1,12,13
 352 -56 352 -56 283 -56 c 0,14,15
 275 -56 275 -56 259 -56 c 0,16,17
 98 -56 98 -56 43 133 c 1,18,19
 35 184 35 184 35 227 c 0,20,21
 35 234 35 234 35 247 c 0,22,23
 35 466 35 466 224 515 c 0,24,25
 263 523 263 523 302 523 c 0,26,27
 305 523 305 523 311 523 c 0,28,29
 370 523 370 523 413 508 c 1,30,31
 413 512 413 512 413 539 c 0,32,33
 416 547 416 547 425 547 c 0,34,35
 427 547 427 547 429 547 c 0,36,37
 561 517 561 517 624 504 c 0,38,39
 638 501 638 501 638 493 c 0,40,41
 638 492 638 492 638 492 c 2,42,43
 638 491 638 491 638 488 c 0,0,1
204 231 m 0,44,45
 204 30 204 30 311 31 c 0,46,47
 370 31 370 31 406 74 c 1,48,49
 406 190 406 190 406 421 c 1,50,51
 361 433 361 433 311 436 c 0,52,53
 204 436 204 436 204 231 c 0,44,45
EndSplineSet
EndChar

StartChar: uniff52
Encoding: 65362 65362 179
Width: 522
GlyphClass: 1
Flags: W
LayerCount: 2
Fore
SplineSet
388 517 m 0,0,1
 389 517 389 517 390 517 c 0,2,3
 511 517 511 517 522 349 c 0,4,5
 522 344 522 344 522 334 c 0,6,7
 522 323 522 323 511 321 c 0,8,9
 479 321 479 321 416 321 c 0,10,11
 408 322 408 322 408 334 c 0,12,13
 401 390 401 390 373 399 c 0,14,15
 369 399 369 399 360 400 c 0,16,17
 316 400 316 400 258 313 c 0,18,19
 251 300 251 300 251 290 c 0,20,21
 251 235 251 235 251 124 c 0,22,23
 251 -18 251 -18 134 -52 c 0,24,25
 127 -55 127 -55 96 -56 c 0,26,27
 89 -54 89 -54 88 -46 c 0,28,29
 88 84 88 84 88 343 c 0,30,31
 88 411 88 411 25 450 c 1,32,33
 26 468 26 468 42 471 c 0,34,35
 206 510 206 510 232 513 c 0,36,37
 241 513 241 513 240 502 c 0,38,39
 240 461 240 461 240 380 c 1,40,41
 241 380 241 380 243 380 c 0,42,43
 303 518 303 518 388 517 c 0,0,1
EndSplineSet
EndChar

StartChar: uniff53
Encoding: 65363 65363 180
Width: 532
GlyphClass: 1
Flags: W
LayerCount: 2
Fore
SplineSet
443 555 m 0,0,1
 446 556 446 556 448 555 c 0,2,3
 463 555 463 555 466 528 c 0,4,5
 478 428 478 428 482 360 c 0,6,7
 481 345 481 345 470 344 c 0,8,9
 457 344 457 344 430 344 c 1,10,11
 377 443 377 443 283 444 c 0,12,13
 199 446 199 446 199 395 c 0,14,15
 200 336 200 336 385 268 c 0,16,17
 499 226 499 226 503 119 c 1,18,19
 503 -50 503 -50 266 -50 c 1,20,21
 100 -44 100 -44 20 67 c 0,22,23
 18 70 18 70 18 72 c 0,24,25
 18 77 18 77 22 81 c 0,26,27
 32 91 32 91 51 112 c 0,28,29
 59 118 59 118 68 109 c 0,30,31
 146 48 146 48 202 38 c 0,32,33
 257 28 257 28 302 34 c 0,34,35
 349 42 349 42 348 83 c 0,36,37
 348 125 348 125 143 218 c 1,38,39
 23 293 23 293 39 388 c 0,40,41
 56 516 56 516 222 529 c 0,42,43
 303 534 303 534 376 502 c 1,44,45
 434 487 434 487 443 555 c 0,0,1
EndSplineSet
EndChar

StartChar: uniff54
Encoding: 65364 65364 181
Width: 461
GlyphClass: 1
Flags: W
LayerCount: 2
Fore
SplineSet
280 691 m 1,0,1
 280 647 280 647 280 515 c 1,2,3
 321 515 321 515 444 515 c 0,4,5
 452 514 452 514 453 507 c 0,6,7
 447 474 447 474 424 454 c 0,8,9
 402 435 402 435 368 434 c 0,10,11
 339 434 339 434 280 433 c 1,12,13
 280 354 280 354 280 116 c 0,14,15
 280 35 280 35 349 35 c 0,16,17
 396 37 396 37 429 54 c 0,18,19
 438 59 438 59 443 52 c 0,20,21
 452 37 452 37 456 29 c 1,22,23
 449 -4 449 -4 402 -28 c 0,24,25
 356 -53 356 -53 284 -53 c 0,26,27
 146 -53 146 -53 122 29 c 0,28,29
 114 54 114 54 115 100 c 0,30,31
 115 211 115 211 115 434 c 1,32,33
 99 434 99 434 49 434 c 0,34,35
 34 434 34 434 34 450 c 0,36,37
 34 468 34 468 34 504 c 0,38,39
 34 513 34 513 45 515 c 0,40,41
 115 515 115 515 115 515 c 1,42,43
 115 536 115 536 116 578 c 0,44,45
 119 617 119 617 86 617 c 1,46,47
 85 643 85 643 106 650 c 0,48,49
 159 668 159 668 265 705 c 1,50,51
 269 701 269 701 280 691 c 1,0,1
EndSplineSet
EndChar

StartChar: uniff55
Encoding: 65365 65365 182
Width: 666
GlyphClass: 1
Flags: W
LayerCount: 2
Fore
SplineSet
242 536 m 0,0,1
 255 536 255 536 253 519 c 0,2,3
 253 390 253 390 253 131 c 0,4,5
 253 60 253 60 316 59 c 0,6,7
 324 59 324 59 341 59 c 0,8,9
 403 59 403 59 432 131 c 1,10,11
 432 213 432 213 432 377 c 0,12,13
 432 431 432 431 365 472 c 0,14,15
 365 473 365 473 365 476 c 0,16,17
 365 491 365 491 388 495 c 0,18,19
 527 524 527 524 591 536 c 0,20,21
 592 536 592 536 593 536 c 0,22,23
 599 536 599 536 599 527 c 0,24,25
 599 525 599 525 599 523 c 0,26,27
 599 337 599 337 599 -34 c 0,28,29
 601 -50 601 -50 586 -48 c 0,30,31
 580 -48 580 -48 574 -48 c 0,32,33
 478 -48 478 -48 432 32 c 0,34,35
 431 32 431 32 428 32 c 0,36,37
 375 -44 375 -44 293 -44 c 0,38,39
 278 -44 278 -44 249 -44 c 0,40,41
 86 -25 86 -25 86 108 c 0,42,43
 86 191 86 191 86 356 c 0,44,45
 86 431 86 431 18 472 c 0,46,47
 18 473 18 473 18 476 c 0,48,49
 18 490 18 490 38 494 c 0,50,51
 181 525 181 525 242 536 c 0,0,1
EndSplineSet
EndChar

StartChar: uniff56
Encoding: 65366 65366 183
Width: 614
GlyphClass: 1
Flags: W
LayerCount: 2
Fore
SplineSet
30 511 m 0,0,1
 88 511 88 511 260 511 c 0,2,3
 282 511 282 511 290 487 c 1,4,5
 224 488 224 488 246 417 c 1,6,7
 281 323 281 323 350 135 c 1,8,9
 350 135 350 135 350 134 c 1,10,11
 374 208 374 208 447 430 c 1,12,13
 453 468 453 468 402 492 c 0,14,15
 402 493 402 493 402 496 c 0,16,17
 408 511 408 511 428 511 c 0,18,19
 485 511 485 511 600 511 c 0,20,21
 626 511 626 511 626 483 c 1,22,23
 568 488 568 488 544 426 c 0,24,25
 489 270 489 270 380 -43 c 0,26,27
 377 -50 377 -50 369 -50 c 0,28,29
 368 -50 368 -50 367 -50 c 0,30,31
 338 -50 338 -50 280 -50 c 0,32,33
 273 -50 273 -50 268 -45 c 0,34,35
 205 110 205 110 78 421 c 1,36,37
 44 486 44 486 -1 487 c 0,38,39
 -1 489 -1 489 -1 492 c 0,40,41
 6 512 6 512 23 512 c 0,42,43
 27 512 27 512 30 511 c 0,0,1
EndSplineSet
EndChar

StartChar: uniff57
Encoding: 65367 65367 184
Width: 911
GlyphClass: 1
Flags: W
LayerCount: 2
Fore
SplineSet
26 513 m 0,0,1
 92 513 92 513 291 513 c 0,2,3
 319 513 319 513 318 488 c 1,4,5
 265 479 265 479 262 432 c 0,6,7
 263 422 263 422 265 403 c 0,8,9
 280 347 280 347 325 180 c 0,10,11
 326 180 326 180 330 180 c 1,12,13
 329 180 329 180 325 180 c 1,14,15
 362 256 362 256 472 485 c 1,16,17
 484 485 484 485 519 485 c 0,18,19
 536 487 536 487 546 468 c 0,20,21
 584 377 584 377 660 194 c 0,22,23
 661 194 661 194 664 194 c 0,24,25
 682 252 682 252 737 427 c 0,26,27
 737 429 737 429 737 435 c 0,28,29
 740 471 740 471 691 493 c 0,30,31
 691 494 691 494 691 497 c 0,32,33
 697 513 697 513 718 513 c 0,34,35
 777 513 777 513 896 513 c 0,36,37
 924 513 924 513 924 488 c 1,38,39
 867 476 867 476 844 431 c 1,40,41
 790 278 790 278 682 -27 c 0,42,43
 679 -42 679 -42 658 -43 c 0,44,45
 642 -43 642 -43 611 -43 c 0,46,47
 591 -43 591 -43 587 -25 c 0,48,49
 548 72 548 72 471 266 c 0,50,51
 470 266 470 266 467 266 c 0,52,53
 432 191 432 191 325 -35 c 1,54,55
 314 -43 314 -43 303 -43 c 0,56,57
 291 -43 291 -43 268 -43 c 0,58,59
 265 -43 265 -43 263 -43 c 0,60,61
 240 -43 240 -43 234 -26 c 0,62,63
 186 119 186 119 90 408 c 1,64,65
 55 485 55 485 2 485 c 0,66,67
 1 488 1 488 -1 493 c 0,68,69
 -1 494 -1 494 -1 497 c 0,70,71
 6 513 6 513 26 513 c 0,0,1
EndSplineSet
EndChar

StartChar: uniff58
Encoding: 65368 65368 185
Width: 604
GlyphClass: 1
Flags: W
LayerCount: 2
Fore
SplineSet
42 513 m 0,0,1
 85 513 85 513 215 513 c 0,2,3
 226 511 226 511 230 502 c 0,4,5
 262 457 262 457 327 367 c 1,6,7
 341 389 341 389 384 454 c 1,8,9
 391 490 391 490 358 495 c 0,10,11
 358 496 358 496 358 499 c 0,12,13
 360 508 360 508 373 513 c 1,14,15
 442 513 442 513 580 513 c 0,16,17
 592 512 592 512 595 499 c 0,18,19
 595 498 595 498 595 495 c 0,20,21
 536 494 536 494 497 456 c 1,22,23
 458 398 458 398 380 282 c 1,24,25
 516 57 516 57 550 23 c 0,26,27
 585 -13 585 -13 622 -25 c 0,28,29
 622 -26 622 -26 622 -29 c 0,30,31
 621 -42 621 -42 599 -47 c 0,32,33
 569 -49 569 -49 542 -49 c 0,34,35
 414 -49 414 -49 362 7 c 1,36,37
 332 57 332 57 271 158 c 1,38,39
 245 120 245 120 168 5 c 0,40,41
 141 -39 141 -39 78 -42 c 256,42,43
 15 -45 15 -45 15 -29 c 1,44,45
 80 64 80 64 211 251 c 1,46,47
 177 303 177 303 73 459 c 0,48,49
 48 490 48 490 15 495 c 1,50,51
 22 513 22 513 42 513 c 0,0,1
EndSplineSet
EndChar

StartChar: uniff59
Encoding: 65369 65369 186
Width: 625
GlyphClass: 1
Flags: W
LayerCount: 2
Fore
SplineSet
28 520 m 0,0,1
 91 520 91 520 282 520 c 0,2,3
 301 520 301 520 307 504 c 0,4,5
 307 503 307 503 307 501 c 0,6,7
 261 478 261 478 262 444 c 0,8,9
 262 441 262 441 262 436 c 0,10,11
 262 425 262 425 358 202 c 0,12,13
 359 202 359 202 362 202 c 0,14,15
 459 398 459 398 470 444 c 1,16,17
 465 490 465 490 425 493 c 0,18,19
 425 497 425 497 425 504 c 0,20,21
 426 516 426 516 440 520 c 1,22,23
 507 520 507 520 641 520 c 1,24,25
 652 515 652 515 655 504 c 0,26,27
 655 502 655 502 655 497 c 1,28,29
 603 494 603 494 570 438 c 1,30,31
 491 241 491 241 333 -153 c 0,32,33
 292 -265 292 -265 200 -291 c 0,34,35
 137 -309 137 -309 83 -309 c 0,36,37
 58 -309 58 -309 35 -305 c 0,38,39
 23 -300 23 -300 23 -294 c 0,40,41
 23 -287 23 -287 29 -284 c 0,42,43
 92 -274 92 -274 136 -231 c 0,44,45
 180 -189 180 -189 262 7 c 1,46,47
 83 454 83 454 58 468 c 1,48,49
 32 497 32 497 1 501 c 0,50,51
 1 502 1 502 1 504 c 0,52,53
 4 520 4 520 25 520 c 0,54,55
 26 520 26 520 28 520 c 0,0,1
EndSplineSet
EndChar

StartChar: uniff5a
Encoding: 65370 65370 187
Width: 553
GlyphClass: 1
Flags: W
LayerCount: 2
Fore
SplineSet
76 511 m 1,0,1
 185 511 185 511 513 511 c 0,2,3
 542 511 542 511 542 482 c 0,4,5
 542 467 542 467 266 45 c 1,6,7
 354 45 354 45 531 45 c 0,8,9
 544 47 544 47 544 33 c 2,10,11
 544 33 544 33 544 32 c 0,12,13
 544 -1 544 -1 478 -34 c 1,14,15
 436 -49 436 -49 362 -49 c 0,16,17
 275 -49 275 -49 100 -49 c 0,18,19
 94 -49 94 -49 88 -49 c 0,20,21
 27 -49 27 -49 26 -13 c 0,22,23
 26 -10 26 -10 27 -6 c 0,24,25
 120 138 120 138 305 425 c 1,26,27
 264 425 264 425 141 425 c 0,28,29
 91 425 91 425 59 388 c 1,30,31
 44 392 44 392 43 409 c 1,32,33
 66 488 66 488 76 511 c 1,0,1
EndSplineSet
EndChar

StartChar: uniff5b
Encoding: 65371 65371 188
Width: 717
GlyphClass: 1
Flags: W
LayerCount: 2
Fore
SplineSet
160 313 m 0,0,1
 160 330 160 330 161 380 c 0,2,3
 162 389 162 389 171 391 c 0,4,5
 238 391 238 391 259 412 c 0,6,7
 280 434 280 434 280 467 c 0,8,9
 280 486 280 486 277 509 c 256,10,11
 274 532 274 532 270 556 c 0,12,13
 267 581 267 581 265 604 c 0,14,15
 262 628 262 628 262 647 c 0,16,17
 262 740 262 740 306 793 c 0,18,19
 349 846 349 846 438 846 c 0,20,21
 481 846 481 846 566 847 c 1,22,23
 562 781 562 781 513 765 c 0,24,25
 503 763 503 763 483 758 c 0,26,27
 463 754 463 754 452 745 c 256,28,29
 441 736 441 736 438 722 c 256,30,31
 435 708 435 708 437 688 c 0,32,33
 442 640 442 640 449 590 c 0,34,35
 456 541 456 541 453 497 c 0,36,37
 448 436 448 436 420 401 c 0,38,39
 393 366 393 366 343 344 c 1,40,41
 393 322 393 322 420 287 c 0,42,43
 447 253 447 253 453 191 c 0,44,45
 456 147 456 147 449 98 c 0,46,47
 442 48 442 48 437 0 c 0,48,49
 435 -20 435 -20 438 -34 c 256,50,51
 441 -48 441 -48 452 -57 c 256,52,53
 463 -66 463 -66 483 -70 c 0,54,55
 503 -75 503 -75 513 -77 c 0,56,57
 566 -95 566 -95 566 -154 c 0,58,59
 566 -156 566 -156 566 -158 c 1,60,61
 523 -158 523 -158 438 -158 c 0,62,63
 349 -158 349 -158 306 -105 c 0,64,65
 262 -52 262 -52 262 41 c 0,66,67
 262 60 262 60 265 84 c 0,68,69
 267 108 267 108 270 132 c 0,70,71
 274 156 274 156 277 179 c 256,72,73
 280 202 280 202 280 221 c 0,74,75
 280 254 280 254 259 276 c 0,76,77
 238 297 238 297 171 297 c 1,78,79
 160 301 160 301 160 311 c 0,80,81
 160 312 160 312 160 313 c 0,0,1
EndSplineSet
EndChar

StartChar: uniff5c
Encoding: 65372 65372 189
Width: 532
GlyphClass: 1
Flags: W
LayerCount: 2
Fore
SplineSet
343 833 m 0,0,1
 369 832 369 832 372 794 c 0,2,3
 372 487 372 487 372 -127 c 0,4,5
 372 -173 372 -173 334 -175 c 0,6,7
 299 -175 299 -175 228 -174 c 0,8,9
 196 -172 196 -172 196 -136 c 0,10,11
 196 -133 196 -133 196 -129 c 0,12,13
 196 178 196 178 196 793 c 0,14,15
 194 825 194 825 220 833 c 1,16,17
 261 833 261 833 343 833 c 0,0,1
EndSplineSet
EndChar

StartChar: uniff5d
Encoding: 65373 65373 190
Width: 696
GlyphClass: 1
Flags: W
LayerCount: 2
Fore
SplineSet
538 376 m 0,0,1
 538 359 538 359 538 309 c 0,2,3
 536 300 536 300 526 298 c 0,4,5
 459 298 459 298 438 276 c 0,6,7
 418 255 418 255 418 222 c 0,8,9
 418 203 418 203 420 180 c 0,10,11
 423 157 423 157 426 133 c 0,12,13
 430 109 430 109 433 85 c 0,14,15
 435 61 435 61 435 42 c 0,16,17
 435 -51 435 -51 392 -104 c 0,18,19
 348 -157 348 -157 259 -157 c 0,20,21
 216 -157 216 -157 131 -158 c 1,22,23
 135 -92 135 -92 184 -76 c 0,24,25
 194 -74 194 -74 214 -69 c 0,26,27
 234 -65 234 -65 245 -56 c 256,28,29
 256 -47 256 -47 259 -32 c 0,30,31
 262 -18 262 -18 260 1 c 0,32,33
 255 49 255 49 248 98 c 0,34,35
 242 148 242 148 245 193 c 0,36,37
 250 254 250 254 277 289 c 256,38,39
 304 324 304 324 354 345 c 1,40,41
 304 367 304 367 277 402 c 0,42,43
 250 436 250 436 245 498 c 0,44,45
 242 542 242 542 248 592 c 0,46,47
 255 641 255 641 260 689 c 0,48,49
 262 709 262 709 259 723 c 256,50,51
 256 737 256 737 245 746 c 256,52,53
 234 755 234 755 214 760 c 0,54,55
 195 764 195 764 184 766 c 0,56,57
 131 784 131 784 131 843 c 0,58,59
 131 845 131 845 131 847 c 1,60,61
 174 847 174 847 259 847 c 0,62,63
 348 847 348 847 392 794 c 0,64,65
 435 741 435 741 435 648 c 0,66,67
 435 629 435 629 433 606 c 0,68,69
 430 582 430 582 426 558 c 0,70,71
 423 534 423 534 420 511 c 0,72,73
 418 487 418 487 418 468 c 0,74,75
 418 435 418 435 439 414 c 0,76,77
 460 392 460 392 526 392 c 1,78,79
 538 388 538 388 538 377 c 2,80,81
 538 377 538 377 538 376 c 0,0,1
EndSplineSet
EndChar

StartChar: uniff5e
Encoding: 65374 65374 191
Width: 983
GlyphClass: 1
Flags: W
LayerCount: 2
Fore
SplineSet
372 520 m 0,0,1
 400 520 400 520 433 510 c 0,2,3
 466 499 466 499 503 484 c 256,4,5
 540 469 540 469 577 454 c 256,6,7
 614 439 614 439 649 430 c 0,8,9
 668 425 668 425 684 426 c 0,10,11
 699 427 699 427 711 434 c 0,12,13
 724 442 724 442 756 473 c 0,14,15
 788 505 788 505 841 485 c 1,16,17
 815 402 815 402 796 368 c 0,18,19
 776 334 776 334 751 312 c 0,20,21
 727 291 727 291 696 281 c 0,22,23
 664 271 664 271 624 271 c 0,24,25
 596 271 596 271 562 282 c 0,26,27
 529 293 529 293 492 308 c 0,28,29
 456 323 456 323 418 338 c 0,30,31
 381 352 381 352 346 361 c 0,32,33
 307 371 307 371 284 358 c 0,34,35
 260 344 260 344 242 325 c 0,36,37
 225 306 225 306 200 301 c 0,38,39
 174 297 174 297 154 308 c 1,40,41
 181 389 181 389 200 423 c 0,42,43
 219 458 219 458 243 479 c 0,44,45
 268 501 268 501 300 510 c 0,46,47
 332 520 332 520 372 520 c 0,0,1
EndSplineSet
EndChar
